<svg width="146" height="119" viewBox="0 0 146 119" fill="none" xmlns="http://www.w3.org/2000/svg">
<path d="M125.697 20.6217C127.483 24.1813 127.615 28.4188 127.684 32.4463C127.703 33.305 127.711 34.1602 127.723 35.0228C127.758 37.9845 127.752 40.958 127.572 43.9013C127.304 48.1608 126.658 52.3567 125.212 56.3634C122.635 63.549 117.624 69.6898 111.747 74.565C105.869 79.4403 99.119 83.1463 92.282 86.5614C90.66 87.3719 89.0302 88.1678 87.4002 88.9452C86.8531 89.2031 86.3098 89.4684 85.7662 89.7152C83.9304 90.5814 82.0757 91.4295 80.2169 92.2517C72.6166 95.6361 64.8772 98.7008 57.0208 101.434C55.4716 101.973 53.9185 102.505 52.3578 103.022C43.7149 105.877 27.3371 113.896 21.8005 101.732C21.5154 101.115 21.2893 100.486 21.0999 99.8378C20.6427 98.3019 20.4436 96.7059 20.4254 95.0806C20.3794 92.1154 20.9393 89.0764 21.6314 86.183C23.7219 77.4584 27.0239 68.9785 31.4902 61.2071C31.6696 60.8891 31.8564 60.5673 32.047 60.2529C32.9597 58.7108 33.921 57.1901 34.9238 55.7131C35.3675 55.0608 35.815 54.4158 36.2776 53.7817C38.7232 50.3828 41.4239 47.1682 44.3696 44.1898C48.2317 40.284 52.4827 36.8007 56.9083 33.5439C57.1822 33.3353 57.4674 33.1302 57.7452 32.929C62.135 29.7468 66.6989 26.7726 71.2408 23.8099C72.5364 22.9645 73.832 22.1192 75.1464 21.292C76.2044 20.6175 77.27 19.9577 78.3434 19.3125C82.7722 16.6518 87.351 14.2957 92.2866 12.8367C97.8666 11.1809 103.802 10.7407 109.57 11.5366C109.771 11.5626 109.971 11.5886 110.176 11.622C110.907 11.7347 111.646 11.8621 112.371 12.0156C115.14 12.5952 117.938 13.5335 120.338 14.9973C122.232 16.1555 123.885 17.6365 125.067 19.5222C125.31 19.8807 125.513 20.251 125.697 20.6217Z" fill="#38778A"/>
<path d="M29.748 70.5624C30.3241 69.0376 31.193 67.3223 32.795 67.0453C34.2605 66.793 35.5838 67.8949 36.6065 68.9577C37.5837 69.9695 38.51 71.0266 39.3887 72.118C39.8925 72.7421 40.3819 73.3924 40.6068 74.1622C40.9149 75.2342 40.6615 76.3756 40.3959 77.4579C39.9722 79.2207 39.5453 81.0132 38.5994 82.5632C37.5241 84.3304 35.8737 85.6228 34.0845 86.6141C32.4274 87.5363 30.0712 88.9081 28.1601 89.0944C23.1293 89.585 26.6097 80.7316 27.185 78.5439C27.914 75.8462 28.7621 73.1796 29.748 70.5624Z" fill="#00A89D"/>
<path d="M40.5584 69.2086C41.2074 70.2892 41.9696 71.2827 43.0121 71.5972C45.5848 72.3729 48.2375 70.1922 49.7857 68.3647C50.993 66.9395 51.9223 65.2861 52.8372 63.6589C53.379 62.6938 53.9786 61.4462 53.7578 60.2912C53.5335 59.1473 52.3563 59.1648 51.3834 59.2157C49.763 59.2967 47.8591 59.6754 46.2512 59.423C45.2041 59.2604 43.8511 58.5664 42.9639 58.0306C42.2669 57.5729 41.8052 56.8148 41.0935 56.3647C39.7976 55.5475 38.0103 56.0241 36.8696 57.0407C35.9113 57.9059 34.4261 59.9434 34.3723 61.27C34.2914 63.1525 36.8025 63.596 37.8367 64.6809C38.3499 65.2159 38.5752 66.0043 39.0192 66.6036C39.5205 67.2944 40.0012 68.2855 40.5584 69.2086Z" fill="#00A89D"/>
<path d="M62.145 37.9153C61.042 37.7352 59.8963 37.2411 58.8241 36.9235C57.5324 36.5431 56.2273 37.4776 55.2147 38.2031C53.9938 39.0841 52.7694 39.9764 51.5977 40.9158C50.3348 41.931 49.2938 43.1383 48.0874 44.208C45.9081 46.1505 43.8093 48.2472 42.8903 51.0817C42.6693 51.767 42.5167 52.5473 42.8651 53.1779C43.4125 54.1716 44.802 54.2206 45.8289 54.702C46.5086 55.0193 47.0738 55.5645 47.7888 55.7886C48.8351 56.1104 49.9418 55.6721 50.9218 55.1878C52.6724 54.3194 54.4267 53.2436 56.3806 53.1751C57.7387 53.1284 59.1093 53.5702 60.4376 53.3056C63.1126 52.776 64.4096 49.9496 66.0762 48.1162C67.9427 46.0756 69.8666 43.9303 70.6371 41.2763C71.0766 39.7761 70.9982 37.8927 69.723 36.99C68.624 36.21 67.1071 36.4891 65.8419 36.9636C64.7789 37.3605 63.4775 38.0875 62.3081 37.9234C62.2637 37.9279 62.2044 37.9216 62.145 37.9153Z" fill="#00A89D"/>
<path d="M79.555 25.5265C79.4463 27.3021 80.1622 29.011 80.8655 30.6424C81.5455 32.2113 82.4551 33.9871 84.1243 34.357C85.1986 34.5894 86.2945 34.166 87.3051 33.7405C89.334 32.9041 91.3591 32.0604 93.388 31.224C95.031 30.5427 96.8239 29.5587 97.5964 27.8378C98.0558 26.8223 98.0271 25.6416 97.8591 24.5338C97.691 23.4259 97.3937 22.339 97.3475 21.2141C97.3023 20.1448 97.4789 19.053 97.1791 18.0327C96.725 16.4671 95.1762 15.3804 93.5578 15.1615C91.7648 14.9124 90.053 15.6764 88.4544 16.3532C86.4223 17.2193 84.3719 18.7115 82.728 20.1593C81.1756 21.55 79.6899 23.3541 79.555 25.5265Z" fill="#00A89D"/>
<path d="M125.701 20.6291C127.487 24.1887 127.619 28.4262 127.688 32.4537C127.707 33.3124 127.715 34.1676 127.727 35.0302C127.762 37.9919 127.756 40.9654 127.576 43.9087C127.308 48.1682 126.662 52.3641 125.216 56.3708C122.638 63.5564 117.628 69.6972 111.75 74.5724C105.873 79.4477 99.1227 83.1537 92.2858 86.5688C90.6637 87.3793 89.034 88.1752 87.4039 88.9526C86.8568 89.2105 86.3136 89.4758 85.77 89.7226C83.9341 90.5888 82.0795 91.4369 80.2206 92.2591C72.6203 95.6435 64.8809 98.7082 57.0245 101.442C55.4753 101.981 53.9223 102.512 52.3616 103.029C43.7186 105.884 27.3408 113.904 21.8043 101.74C21.5191 101.123 21.293 100.493 21.1036 99.8452C20.6464 98.3093 20.4473 96.7132 20.4291 95.088C21.8009 97.0332 23.6926 99.0616 25.138 100.361C26.2325 100.686 27.359 100.732 28.3763 100.266C29.941 99.56 30.8797 97.8176 32.4946 97.2256C32.9802 97.0465 33.4974 96.9817 34.0125 97.002C34.1644 97.0067 34.3163 97.0113 34.4759 97.0307C34.9099 97.0747 35.3446 97.1557 35.765 97.263C38.8479 97.9961 41.9627 99.4693 45.0524 98.7323C45.4101 98.6481 45.7524 98.5345 46.0905 98.3951C49.2695 95.8273 51.9884 92.5938 54.5519 89.3668C54.6459 89.2429 54.7511 89.1226 54.8452 88.9987C54.9574 88.8559 55.0623 88.717 55.1783 88.5816C57.6691 85.43 60.1956 82.2037 63.1239 79.496C63.4699 79.175 63.8271 78.8575 64.1881 78.5473C64.6476 78.1577 65.1148 77.7827 65.5897 77.4223C65.8819 77.1949 66.1817 76.9821 66.4853 76.7767C67.202 76.2713 67.949 75.8061 68.7263 75.3811C72.0227 73.5739 75.7192 72.6038 79.1306 71.0167C82.542 69.4297 85.8346 67.0079 87.1262 63.4743C88.8731 58.7031 86.5359 53.3205 87.5497 48.344C87.839 46.9317 88.3894 45.6258 89.1419 44.4384C89.3255 44.1463 89.5167 43.8688 89.7192 43.5948C89.9038 43.3582 90.0883 43.1216 90.2879 42.8958C90.5781 42.5574 90.887 42.237 91.1998 41.9241L91.2072 41.9202C93.7547 39.4489 97.2611 37.7935 100.794 37.1707C101.89 36.9806 103.013 36.8604 104.13 36.7625C104.577 36.7248 105.025 36.6871 105.465 36.6533C105.465 36.6533 105.465 36.6533 105.472 36.6495C108.833 36.3778 112.19 36.0989 115.033 34.3888C115.894 33.8733 116.66 33.2486 117.332 32.5329C117.605 32.2503 117.859 31.9495 118.094 31.649C118.666 30.9203 119.148 30.1266 119.562 29.2934C120.741 26.9023 121.288 24.1412 121.254 21.4683C121.222 19.2805 120.865 17.1318 120.323 15.0236C122.218 16.1817 123.87 17.6628 125.052 19.5484C125.314 19.8881 125.513 20.2511 125.701 20.6291Z" fill="#384769"/>
<path d="M125.697 20.6216C127.483 24.1813 127.615 28.4187 127.684 32.4462C127.703 33.305 127.711 34.1602 127.723 35.0227C127.758 37.9844 127.752 40.9579 127.572 43.9013C127.304 48.1607 126.658 52.3567 125.212 56.3633C122.635 63.549 117.624 69.6898 111.747 74.565C105.869 79.4402 99.119 83.1463 92.282 86.5614C90.6599 87.3719 89.0302 88.1678 87.4001 88.9451C86.853 89.2031 86.3098 89.4683 85.7662 89.7151C83.9304 90.5814 82.0757 91.4294 80.2168 92.2516C72.6165 95.636 64.8772 98.7008 57.0208 101.434C55.4716 101.973 53.9185 102.505 52.3578 103.022C43.7149 105.877 27.3371 113.896 21.8005 101.732C21.5154 101.115 21.2893 100.486 21.0999 99.8377C22.5098 101.231 23.9999 102.544 25.6346 103.67C26.4293 104.207 27.2603 104.707 28.1309 105.139C28.7268 105.332 29.321 105.629 29.9509 105.655C30.5438 105.681 31.1101 105.46 31.6463 105.217C32.2193 104.955 32.7807 104.671 33.3229 104.35C33.6528 104.159 33.9676 103.957 34.2786 103.747C34.5347 103.576 34.7796 103.402 35.0207 103.219C35.1741 103.102 35.3275 102.984 35.4809 102.867C35.8314 102.59 36.1366 102.262 36.5749 102.136C36.9948 102.01 37.433 102.08 37.8575 102.213C38.1368 102.3 38.4129 102.418 38.674 102.524C38.6852 102.528 38.7002 102.538 38.7114 102.542C39.0696 102.691 39.4274 102.822 39.7996 102.926C40.5816 103.171 41.3916 103.327 42.2067 103.349C43.4107 103.383 44.6356 103.135 45.6611 102.506C45.7159 102.468 45.7746 102.437 45.8333 102.406C46.2834 102.106 46.7296 101.798 47.1684 101.493C51.8135 98.2993 56.4622 95.094 61.1073 91.8998C61.4693 91.6452 61.8278 91.4018 62.1936 91.1545C62.4679 90.9644 62.7422 90.7743 63.0165 90.5842C65.5585 88.8351 68.0721 86.7458 70.778 85.2566C70.8661 85.2106 70.9429 85.1611 71.031 85.1151C71.3573 84.9352 71.6986 84.7661 72.0326 84.6008C73.7357 83.7666 75.5298 83.0529 77.2208 82.1597C84.6116 78.2496 93.2202 74.7211 96.6039 67.0766C97.9667 64.0009 98.3577 60.4242 100.492 57.8234C101.963 56.0269 103.995 54.9831 106.172 54.107C106.565 53.9481 106.962 53.7965 107.363 53.6523C108.809 53.1115 110.274 52.6075 111.647 51.9828C116.969 49.5467 121.085 44.9661 123.559 39.619C124.15 38.3383 124.641 37.026 125.039 35.6784L125.043 35.6672C125.109 35.4364 125.171 35.1983 125.237 34.9675C126.24 31.2022 126.506 27.2797 126.229 23.4078C126.183 22.6939 125.969 21.7128 125.697 20.6216Z" fill="#452E61"/>
<path d="M127.734 35.0262C127.769 37.9879 127.764 40.9615 127.583 43.9048C125.309 51.0628 120.987 57.7688 114.627 61.7752C112.5 63.1206 110.141 64.1666 108.249 65.7819C107.924 66.0543 107.611 66.3488 107.316 66.6614L107.226 66.7556C105.039 69.1316 104.057 72.3634 102.351 75.1046C98.6085 81.1152 91.8189 84.6924 86.0586 88.4694C85.9671 88.5266 85.8794 88.5912 85.7805 88.6522C85.3231 88.9567 84.8619 89.2538 84.4045 89.5583C83.0101 90.4647 81.6229 91.3673 80.2208 92.259C72.6205 95.6434 64.8811 98.7081 57.0247 101.442C58.8762 100.623 60.7507 99.849 62.6026 99.0492C68.8931 96.3401 74.6644 92.7628 80.3928 89.0677C80.8065 88.8048 81.2091 88.5383 81.6227 88.2753C82.4061 87.7725 83.1856 87.2622 83.969 86.7593C84.6716 86.2986 85.3855 85.8414 86.0843 85.3734C90.8558 82.2066 95.5399 78.7118 98.5836 73.7765C100.023 71.4363 101.039 68.8408 102.718 66.6739C104.103 64.8753 105.863 63.4698 107.728 62.1772C108.057 61.9491 108.383 61.7322 108.716 61.5114C110.483 60.3354 112.314 59.21 113.987 57.9246C119.403 53.7575 123.247 47.7969 125.702 41.4133C126.516 39.3251 127.177 37.1951 127.734 35.0262Z" fill="#384769"/>
<path d="M82.5439 22.2732C81.6705 23.1221 80.9623 24.3049 80.9003 25.3836C80.8588 26.1619 81.1593 26.8082 81.644 27.1994C82.2641 27.7067 83.1807 27.816 84.1053 27.5476C85.0337 27.2865 85.974 26.6548 86.7628 25.8408C87.5734 24.9967 88.2493 23.8774 88.2974 22.8434C88.3575 21.4574 87.1868 20.3973 86.0296 20.2923C84.9692 20.2114 83.4644 21.3716 82.5439 22.2732Z" fill="#29E1C2"/>
<path d="M91.222 41.9125C90.898 42.222 90.6002 42.5458 90.3101 42.8843C90.1105 43.1101 89.9259 43.3467 89.7413 43.5833C89.5389 43.8573 89.3403 44.1386 89.164 44.4269C88.1036 44.757 87.0643 44.8239 85.8656 44.6751C84.5666 44.5134 83.1717 44.7755 82.0108 44.0559C81.6813 43.8544 81.4067 43.615 81.1722 43.3452C81.0704 43.6507 80.935 43.9456 80.7849 44.2483C79.2899 47.1783 77.6493 50.0443 76.0869 52.9348C74.7075 55.4961 73.303 57.9024 71.3163 60.0525C70.3502 61.0993 69.2813 62.1998 68.9368 63.6317C68.578 65.0897 69.4749 66.1621 69.8876 67.4877C70.6538 69.9364 69.0744 71.4719 67.7895 73.3206C67.0605 74.3742 66.8859 75.5771 66.5148 76.7613C66.2111 76.9668 65.9152 77.1869 65.6192 77.407C65.137 77.7711 64.6698 78.1461 64.2176 78.532C63.8566 78.8421 63.5067 79.1558 63.1534 79.4806C63.2471 79.3382 63.3443 79.1846 63.4381 79.0422C64.2374 77.7836 64.7738 76.5224 65.133 75.0829C65.489 73.6731 66.0951 72.5809 66.9816 71.4356C67.6871 70.5156 68.4992 69.5494 68.1252 68.3156C67.7156 66.9603 66.8152 65.899 66.8329 64.4139C66.8426 63.3065 67.1807 62.3451 67.6833 61.4658C66.5778 61.7635 65.3761 61.8592 64.3814 61.529C63.804 61.3358 63.5114 60.919 63.3861 60.3399C63.1684 59.3514 63.1087 58.5045 62.4787 57.6568C61.4351 56.25 59.7935 55.7723 58.1096 55.8211C56.5513 55.8603 54.7339 56.1004 53.2929 56.6855C52.3958 57.0423 51.9831 57.7718 51.2071 58.2709C50.6543 58.6252 49.9765 58.6152 49.3469 58.6081C48.0765 58.5902 46.7087 58.5112 45.6037 57.8091C45.0718 57.4706 44.6649 56.6744 44.0398 56.7116C43.5701 56.7422 43.2403 56.9333 42.7487 56.7793C41.87 56.51 41.3546 55.6491 40.8202 54.9663C40.3691 54.3893 39.9386 53.9231 39.1514 54.0077C38.3457 54.0925 37.496 54.6115 36.7721 54.9244C36.1695 55.1834 35.5634 55.4535 34.9612 55.7309C35.4049 55.0787 35.8524 54.4337 36.3149 53.7996C36.5759 53.6912 36.8442 53.579 37.1051 53.4706C38.4022 52.914 39.7695 52.3487 40.9874 53.3562C41.7052 53.9431 42.1149 55.1022 42.9226 55.5394C43.4647 55.8258 44.0336 55.3416 44.6101 55.4793C45.1195 55.596 45.3971 56.0021 45.7443 56.3624C46.3367 56.9775 47.0964 57.2156 47.9204 57.3267C48.5217 57.4047 49.6062 57.5851 50.1913 57.382C51.0045 57.0971 51.5622 56.1983 52.3511 55.7953C52.9712 55.4805 53.6345 55.3019 54.3132 55.1527C56.9945 54.5637 60.2402 54.0535 62.5297 55.9674C63.541 56.8119 64.2405 58.025 64.4713 59.3242C64.554 59.8041 64.496 60.2828 65.0217 60.4844C65.4319 60.6436 65.997 60.5631 66.4224 60.5369C67.177 60.4974 67.9112 60.3472 68.6294 60.1306C69.2883 59.3004 70.0447 58.5313 70.7267 57.7451C72.8233 55.3227 74.1867 52.284 75.6952 49.487C76.4836 48.0287 77.272 46.5703 78.0603 45.112C78.7591 43.8219 79.86 42.4431 79.2477 40.9323C78.6894 39.5426 77.5566 38.3226 76.6723 37.1314C75.7539 35.8927 74.8208 34.6616 73.9534 33.3775C72.4017 32.75 70.6787 32.6885 69.1019 33.3353C67.5211 33.9748 66.2814 35.2487 64.5735 35.609C63.0831 35.921 61.5728 35.5335 60.175 35.0218C59.1015 34.6301 57.9673 34.1581 56.9383 33.5656C57.2123 33.357 57.4974 33.1519 57.7752 32.9507C58.8583 33.4681 59.9415 33.9855 61.1104 34.3273C63.0239 34.8964 64.664 34.6743 66.3558 33.6218C67.652 32.8134 68.8603 32.0511 70.3924 31.8013C71.2712 31.6596 72.1679 31.6952 73.0265 31.8723C72.0345 30.0462 71.4796 28.0196 72.3128 25.968C72.8374 24.6662 73.7118 23.4618 74.487 22.2999C74.7142 21.9663 74.9377 21.6253 75.1688 21.299C76.2268 20.6245 77.2924 19.9647 78.3657 19.3196C77.9015 19.8611 77.4523 20.4136 77.022 20.9842C75.2282 23.3604 72.6368 26.4805 73.8525 29.6283C74.4038 31.0403 75.3736 32.2522 76.2948 33.4427C77.2729 34.7063 78.2402 35.9849 79.2075 37.2634C80.0722 38.3995 81.0225 39.5561 81.3408 40.9871C81.433 41.378 81.4547 41.759 81.4243 42.1298C81.9874 42.7603 82.6666 43.2553 83.4753 43.337C84.1244 43.3994 84.7887 43.2763 85.4484 43.3052C86.2044 43.3397 86.955 43.4891 87.7122 43.3829C88.9905 43.2191 90.0695 42.4776 91.222 41.9125Z" fill="#384769"/>
<path d="M66.4962 76.7616C66.4647 76.8622 66.4332 76.9627 66.4052 77.0521C66.0849 77.9762 65.6228 78.8436 65.1119 79.6711C65.0402 79.802 64.9574 79.9294 64.8745 80.0568C64.7304 80.2816 64.579 80.5102 64.435 80.7349C64.3269 80.9035 64.215 81.0648 64.0997 81.2372C63.7283 81.7956 63.3532 82.3467 63.008 82.9194C62.3464 84.0126 61.7929 85.152 61.568 86.4372C61.3701 87.5776 59.6093 87.2649 59.7999 86.1284C60.2207 83.5918 61.7656 81.5792 63.1314 79.492C63.4774 79.1711 63.8345 78.8536 64.1955 78.5434C64.6551 78.1537 65.1223 77.7788 65.5972 77.4184C65.8966 77.1872 66.1964 76.9744 66.4962 76.7616Z" fill="#384769"/>
<path d="M95.0806 42.9502C93.4519 42.1575 91.7611 43.2655 90.3148 43.9655C89.9183 44.154 89.5396 44.3053 89.1641 44.4269C89.3477 44.1347 89.539 43.8573 89.7414 43.5833C89.926 43.3467 90.1105 43.1101 90.3101 42.8843C90.6003 42.5458 90.9092 42.2255 91.222 41.9125L91.2294 41.9087C91.5707 41.7396 91.9197 41.5852 92.2917 41.4748C93.4405 41.1172 94.6059 41.0591 95.7188 41.5797C96.589 41.9935 95.9585 43.3787 95.0806 42.9502Z" fill="#384769"/>
<path d="M65.7941 75.2042C65.5765 76.0746 65.2091 76.6404 64.73 77.3859C64.3555 77.974 64.1032 78.5636 64.09 79.2711C64.0847 79.797 64.2351 80.3349 64.1742 80.8618C64.113 81.3702 63.8658 81.8264 63.6555 82.282C63.1601 83.3536 62.6721 84.4215 62.1767 85.4931C61.4605 87.0538 60.5511 88.7809 60.7239 90.5589C60.7821 91.117 60.9029 91.8665 61.4017 92.213C61.9978 92.6207 63.1548 92.511 63.8389 92.4616C64.4676 92.4133 64.5456 91.401 63.8926 91.3313C63.4548 91.2799 63.0144 91.2953 62.573 91.2551C62.0018 91.1987 61.9918 91.0545 61.9329 90.4594C61.8515 89.6425 62.0956 88.8049 62.3746 88.0519C63.0172 86.3148 63.8459 84.6299 64.5818 82.9281C64.8449 82.3235 65.1338 81.7147 65.1959 81.0471C65.2759 80.1458 64.9019 79.3231 65.1635 78.4297C65.4672 77.4022 66.3997 76.3449 66.1835 75.2342C66.146 75.0016 65.853 74.9773 65.7941 75.2042Z" fill="#452E61"/>
<path d="M71.1814 83.8127C70.4279 83.3004 69.8283 83.7259 69.1003 84.0131C68.49 84.2574 67.5788 83.6221 66.8378 83.5984C66.6007 83.5916 66.2915 83.6971 66.0761 83.6603C65.7751 83.6027 65.7996 83.5245 65.6522 83.1532C65.4236 82.5908 65.3386 81.9814 65.0953 81.4266C64.9176 81.0151 64.3762 81.1766 64.3615 81.5953C64.3311 82.3772 64.6476 83.9119 65.246 84.4491C65.4229 84.6089 65.5982 84.6761 65.8353 84.6829C66.532 84.7111 66.9993 84.5508 67.6755 84.8793C68.4787 85.2722 68.775 85.4816 69.6334 85.0329C70.0369 84.822 70.1883 84.5934 70.715 84.8505C70.943 84.9649 71.1484 85.2685 71.333 85.4429C71.7552 85.8574 72.1362 86.2468 72.6559 86.5262C72.8727 86.6371 73.146 86.3915 73.0456 86.1637C72.7016 85.3627 71.9311 84.3176 71.1814 83.8127Z" fill="#452E61"/>
<path d="M125.033 35.7193C124.731 36.4653 124.434 37.2371 123.92 37.8611C123.296 38.6166 122.389 39.0069 121.525 39.3928C119.887 40.1184 118.244 40.8183 116.579 41.4741C113.255 42.7818 109.832 43.9174 106.291 44.47C104.729 44.7166 102.72 45.2156 101.332 44.2224C100.259 43.4567 99.4327 42.6088 98.0594 42.4299C96.5524 42.2275 94.9426 42.4898 93.4263 42.5911C92.1058 42.6742 90.1968 42.5605 89.1208 43.4685C89.0624 43.5177 89.0973 43.6023 89.1751 43.6083C90.1086 43.6248 91.0642 43.4335 92.0081 43.4165C92.878 43.4008 93.7552 43.3813 94.6251 43.3657C96.2944 43.3245 98.1482 43.0467 99.5634 44.1098C100.686 44.9524 101.483 45.8156 102.961 45.8741C104.71 45.95 106.54 45.5911 108.248 45.2308C111.793 44.4893 115.212 43.2724 118.56 41.8864C120.151 41.232 121.837 40.6314 123.339 39.7711C124.769 38.9493 125.457 37.6927 126.059 36.2006C126.336 35.5143 125.305 35.0441 125.033 35.7193Z" fill="#452E61"/>
<path d="M106.05 51.0321C105.762 50.8929 105.101 50.7715 105.056 50.365C105.035 50.1988 105.368 49.7632 105.431 49.5991C105.832 48.5959 106.246 47.1368 105.647 46.1331C105.311 45.5615 104.21 44.9222 103.62 45.4364C103.594 45.4591 103.591 45.4888 103.606 45.5181C103.782 45.8371 104 45.7887 104.307 45.9832C105.131 46.4867 105.126 47.2644 104.893 48.1055C104.667 48.9057 103.762 49.8181 103.877 50.664C104.005 51.6244 105.074 51.7384 105.737 52.1856C106.742 52.8563 105.891 54.5342 106.169 55.5845C106.284 56.0009 106.879 55.9605 107.047 55.6205C107.358 54.9818 107.339 54.1786 107.39 53.4704C107.431 52.9068 107.443 52.3401 107.112 51.8498C106.846 51.4658 106.453 51.2322 106.05 51.0321Z" fill="#452E61"/>
<path d="M120.823 32.4551C119.67 32.1982 118.523 32.6669 117.365 32.5248C117.638 32.2422 117.892 31.9414 118.127 31.6409C119.093 31.6124 120.01 31.3108 120.984 31.5302C121.571 31.6529 121.414 32.5852 120.823 32.4551Z" fill="#384769"/>
<path d="M113.775 18.811C113.762 19.948 113.069 21.1787 112.692 22.226C112.244 23.4598 111.098 25.4318 111.689 26.7579C111.959 27.3641 112.59 27.8378 113.061 28.2921C113.603 28.8119 114.142 29.3428 114.685 29.8625C115.57 30.6982 116.575 31.6021 117.864 31.6382C117.949 31.6403 118.035 31.6425 118.127 31.6408C117.888 31.9525 117.631 32.2459 117.366 32.5247C117.236 32.5086 117.102 32.485 116.961 32.4469C115.837 32.1561 114.927 31.3615 114.098 30.5804C113.269 29.7992 112.27 29.0136 111.524 28.1051C111.524 28.1051 111.524 28.1051 111.52 28.0977C111.703 30.0199 110.271 32.3563 109.355 33.6763C108.561 34.82 107.724 35.4349 106.502 36.0457C106.146 36.2225 105.816 36.4135 105.49 36.6305C105.043 36.6681 104.596 36.7058 104.156 36.7397C105.273 35.8938 106.753 35.4191 107.786 34.5525C108.661 33.8147 109.275 32.7187 109.891 31.7707C110.622 30.6504 111.392 28.5666 110.889 27.1575C110.873 27.1096 110.85 27.0656 110.834 27.0177C110.831 27.0104 110.823 26.9957 110.826 26.9846C110.546 26.1972 110.667 25.3396 110.971 24.5269C111.543 22.9577 112.256 21.4452 112.82 19.8798C113.014 19.3579 113.235 18.8503 113.047 18.2761C112.894 17.8233 112.506 17.4749 112.178 17.1512C111.749 16.722 111.316 16.341 110.955 15.8476C110.071 14.6379 109.524 13.0555 109.578 11.5326C109.778 11.5587 109.979 11.5847 110.183 11.618C110.294 13.4749 110.957 15.1366 112.464 16.5536C113.134 17.1747 113.791 17.8405 113.775 18.811Z" fill="#384769"/>
<path d="M105.498 36.6452C105.132 36.8925 104.789 37.1653 104.473 37.4895C104.062 37.9005 103.767 38.3909 103.337 38.7837C103.082 39.0105 102.75 38.661 102.86 38.3887C103.14 37.6912 103.601 37.1793 104.156 36.7583C104.603 36.7206 105.047 36.6756 105.498 36.6452Z" fill="#384769"/>
<path d="M34.491 97.0415C34.5014 97.2043 34.5082 97.3782 34.5147 97.5336C34.5267 97.7889 34.1642 97.8102 34.1229 97.5703C34.0899 97.382 34.0607 97.2011 34.0277 97.0128C34.1757 97.0102 34.3315 97.0222 34.491 97.0415Z" fill="#384769"/>
<path d="M55.1856 88.5777C55.0734 88.7205 54.9611 88.8632 54.8524 88.9948C54.7584 89.1187 54.6531 89.239 54.5591 89.3629C54.1541 88.8741 53.7816 88.3401 53.4174 87.8579C52.8408 87.0944 52.201 86.3172 51.2693 85.9822C50.2482 85.6192 49.126 85.8135 48.1052 85.469C46.3355 84.8714 45.4214 83.0512 44.9982 81.3481C44.6983 80.1131 44.5865 78.845 44.1944 77.6301C43.9199 76.7834 43.3635 76.1121 42.9024 75.3909C42.5891 76.7037 41.8701 77.9016 41.3742 79.151C40.7471 80.7212 40.7383 82.4913 39.8577 83.9698C39.0852 85.2798 37.8695 86.2422 36.6218 87.0719C35.9009 87.5515 35.0754 87.9737 34.5021 88.6283C33.78 89.4449 33.8525 90.3878 33.9557 91.3894C34.1525 93.2669 34.3789 95.1476 34.4723 97.0418C34.3127 97.0225 34.157 97.0105 34.0089 97.0131C33.6617 95.0087 33.4323 92.9615 33.2664 90.9464C33.143 89.4415 33.6202 88.3887 34.8369 87.4818C36.1414 86.5104 37.5685 85.7737 38.6382 84.5139C39.8819 83.0511 39.9204 81.2841 40.474 79.5375C40.9435 78.059 41.8009 76.7327 42.1811 75.2262C42.3538 74.538 42.412 73.8631 41.9425 73.2865C41.6965 72.9947 41.3377 72.8086 41.0337 72.5845C40.497 72.1831 40.0661 71.6984 39.7335 71.1156C38.8966 69.6755 38.6746 67.8392 37.4387 66.6543C36.4551 65.7018 35.0887 65.2858 33.968 64.5358C32.6787 63.6778 32.3114 62.4032 31.4939 61.2145C31.6733 60.8965 31.86 60.5747 32.0506 60.2602C32.5758 61.0506 32.83 62.0013 33.3772 62.7802C33.9168 63.5444 34.7028 64.0116 35.5144 64.4561C36.7298 65.1192 37.9372 65.7492 38.6922 66.9612C39.5692 68.3711 39.7688 70.2004 40.8765 71.4616C41.8896 72.6135 43.2534 72.8814 43.0378 74.6849C43.6316 75.3741 44.1922 76.0712 44.5812 76.9048C45.0783 77.9808 45.284 79.125 45.5453 80.2681C46.0439 82.455 46.9301 84.5793 49.4338 84.8119C51.2586 84.9789 52.4862 85.2901 53.7152 86.7121C54.2448 87.332 54.6937 87.9941 55.1856 88.5777Z" fill="#384769"/>
<path d="M57.0673 91.0692C56.0048 90.8772 55.2295 90.1803 54.5632 89.3702C54.6572 89.2463 54.7624 89.1259 54.8565 89.002C54.9687 88.8593 55.0736 88.7204 55.1896 88.585C55.7611 89.2672 56.416 89.859 57.3509 90.1643C57.8799 90.3362 57.5911 91.1597 57.0673 91.0692Z" fill="#384769"/>
<path d="M87.4077 88.9598C86.8606 89.2178 86.3174 89.4831 85.7738 89.7298C85.3209 89.6676 84.8646 89.6166 84.4082 89.5656C84.1114 89.5339 83.8146 89.5022 83.5216 89.4779C82.561 89.3915 81.3261 89.4952 80.4077 89.0785C80.2956 89.025 80.1836 88.9715 80.0824 88.903C79.9138 88.7949 79.9985 88.5638 80.149 88.4945C80.5787 88.2979 81.1002 88.2588 81.6264 88.2827C82.3342 88.3144 83.0737 88.4603 83.6855 88.5048C84.3751 88.5553 85.083 88.587 85.7841 88.6595C86.311 88.7204 86.8271 88.7962 87.3368 88.9315L87.4077 88.9598Z" fill="#452E61"/>
<path d="M107.424 58.0207C107.165 58.6881 106.828 59.4718 106.937 60.1993C107.118 61.3847 108.283 62.345 107.713 63.5957C107.36 64.3686 106.919 64.9542 106.972 65.8604C107.015 66.5854 107.413 67.3114 108.067 67.6329C108.194 67.6973 108.34 67.5835 108.334 67.4466C108.274 66.5997 108.077 65.7405 108.459 64.9338C108.741 64.3289 109.158 63.84 109.186 63.1433C109.221 62.4058 108.812 61.7318 108.515 61.0744C108.076 60.0899 107.998 59.5137 108.573 58.5406C108.979 57.8519 107.732 57.2523 107.424 58.0207Z" fill="#452E61"/>
<path d="M32.3155 80.4955C32.8554 80.0451 33.1995 79.4168 33.5364 78.7924C34.572 76.8778 39.2336 69.8731 34.1911 69.3049C30.8925 68.9274 29.4165 74.9675 29.2762 77.2547C29.1659 78.9378 29.9077 82.5014 32.3155 80.4955Z" fill="#29E1C2"/>
<path d="M46.772 47.231C46.1572 47.842 45.5208 48.4829 45.21 49.318C44.8992 50.153 45.0075 51.236 45.6925 51.8495C46.1967 52.2958 46.9059 52.4016 47.5332 52.2792C48.1605 52.1568 48.7251 51.843 49.2711 51.5295C50.4552 50.8638 51.6427 50.187 52.8268 49.5214C53.4829 49.1504 54.1537 48.7717 54.6358 48.1928C55.8792 46.7114 55.6297 44.3757 56.5053 42.6196C57.0093 41.6181 58.3204 40.6058 58.414 39.4266C58.4955 38.4031 57.3695 38.179 56.6137 38.3593C55.4558 38.6283 54.4832 39.9307 53.6381 40.7087C52.5526 41.7058 51.4748 42.7176 50.4008 43.7368C49.1699 44.8846 47.969 46.0542 46.772 47.231Z" fill="#29E1C2"/>
<path d="M36.6209 60.1037C36.1717 60.6561 35.7332 61.3898 36.019 62.0438C36.1811 62.4074 36.5447 62.6564 36.9319 62.7716C37.3153 62.8795 37.7263 62.8795 38.1261 62.876C39.0739 62.8663 40.0363 62.849 40.9268 62.533C41.8172 62.217 42.6345 61.5469 42.8735 60.6279C43.1222 59.6385 42.6175 58.5478 41.7813 57.9667C41.0763 57.4758 39.7322 57.0668 38.9377 57.5662C38.0736 58.1113 37.2586 59.322 36.6209 60.1037Z" fill="#29E1C2"/>
<path d="M59.9341 67.0671C58.4682 66.4789 57.7802 68.576 59.0223 69.0757C60.4435 69.65 61.2096 67.5774 59.9341 67.0671Z" fill="#00A89D"/>
<path d="M60.3373 60.8872C58.6718 61.7578 60.8328 63.7295 61.5413 62.1541C61.9262 61.3177 60.9756 60.5535 60.3373 60.8872Z" fill="#00A89D"/>
<path d="M56.3623 62.8436C55.3645 63.3652 55.9941 65.0164 57.0066 64.4872C58.0009 63.9768 57.3674 62.3182 56.3623 62.8436Z" fill="#00A89D"/>
<path d="M29.7377 93.0059C29.5951 93.1084 29.3108 93.5653 29.3249 93.5206C29.2612 93.6847 29.2303 93.8222 29.2408 93.7887C29.0206 94.9221 30.4063 95.1785 29.8851 95.0213C29.941 95.0388 30.1085 95.0913 30.1644 95.1088C30.1421 95.1018 30.1197 95.0948 30.0974 95.0878C31.1092 95.3436 31.9534 94.3138 31.4405 93.3862C31.1187 92.7884 30.3003 92.581 29.7377 93.0059Z" fill="#00A89D"/>
<path d="M24.9512 92.8551C25.4832 93.8193 27.0316 93.0286 26.4765 92.0203C25.9253 91.0194 24.4229 91.8981 24.9512 92.8551Z" fill="#00A89D"/>
<path d="M26.0621 96.3565C25.0717 96.8742 25.6975 98.5182 26.7026 97.9927C27.6857 97.4788 27.0673 95.8311 26.0621 96.3565Z" fill="#00A89D"/>
<path d="M96.1388 33.4479C96.5408 34.1813 97.6365 33.5432 97.2498 32.8392C96.8593 32.1278 95.7406 32.7219 96.1388 33.4479Z" fill="#00A89D"/>
<path d="M101.368 30.584C100.414 31.0826 101.016 32.6639 101.985 32.1577C102.927 31.6556 102.329 30.0816 101.368 30.584Z" fill="#00A89D"/>
<path d="M102.563 21.1311C101.819 20.9038 101.304 21.7426 101.532 22.268C102.246 23.8659 104.165 21.6207 102.563 21.1311Z" fill="#00A89D"/>
<path d="M106.431 23.2757C105.448 23.7896 106.07 25.4262 107.068 24.9046C108.051 24.3907 107.429 22.7542 106.431 23.2757Z" fill="#00A89D"/>
<path d="M102.849 24.8585C101.573 25.5258 102.381 27.6441 103.672 26.9692C104.949 26.3018 104.148 24.1797 102.849 24.8585Z" fill="#00A89D"/>
<path d="M106.51 13.5098C105.512 14.0314 106.139 15.6938 107.158 15.1607C108.156 14.6391 107.523 12.9805 106.51 13.5098Z" fill="#00A89D"/>
<path d="M80.441 57.2258C79.5788 56.8451 78.9837 57.726 79.2382 58.2842C79.6083 59.0996 80.6658 59.0139 80.9039 58.2542C81.0226 57.8559 80.8292 57.3965 80.441 57.2258Z" fill="#00A89D"/>
<path d="M81.8386 52.3756C81.3035 51.6558 80.1139 52.2215 80.4306 53.149C80.6145 53.6974 81.2164 53.8124 81.5903 53.5983C81.9826 53.3839 82.1766 52.8435 81.8386 52.3756Z" fill="#00A89D"/>
<path d="M78.6292 53.2592C77.6461 53.7732 78.268 55.4097 79.2658 54.8882C80.2524 54.3631 79.6343 52.7338 78.6292 53.2592Z" fill="#00A89D"/>
<path d="M80.7374 47.5707C80.4523 48.1868 80.8268 48.8317 81.282 49.0235C82.3226 49.4417 83.081 48.3727 82.7565 47.6268C82.3396 46.6864 81.1292 46.7119 80.7374 47.5707Z" fill="#00A89D"/>
<path d="M83.611 50.0478C82.6719 50.5387 83.2664 52.0869 84.2128 51.5922C85.1484 51.1124 84.5575 49.5531 83.611 50.0478Z" fill="#00A89D"/>
<path d="M75.3104 78.0581C74.2703 77.4621 73.7819 79.3335 75.0367 79.3034C75.7658 79.2866 75.9502 78.4242 75.3104 78.0581Z" fill="#38778A"/>
<path d="M79.59 76.1665C78.8857 76.5347 79.4571 77.6278 80.1614 77.2597C80.8546 76.888 80.287 75.8022 79.59 76.1665Z" fill="#38778A"/>
<path d="M75.9392 74.329C74.758 74.9465 75.7403 76.6469 76.8481 76.0678C78.0366 75.4465 77.047 73.7499 75.9392 74.329Z" fill="#38778A"/>
<path d="M52.8273 94.3412C52.0569 94.7439 52.6782 95.9324 53.4486 95.5297C54.2189 95.127 53.5976 93.9385 52.8273 94.3412Z" fill="#38778A"/>
<path d="M54.634 91.2389C53.9296 91.6071 54.5049 92.7076 55.2092 92.3394C55.9097 91.9639 55.3383 90.8707 54.634 91.2389Z" fill="#38778A"/>
<path d="M113.634 47.1704C112.93 47.5386 113.501 48.6317 114.206 48.2636C114.91 47.8954 114.339 46.8022 113.634 47.1704Z" fill="#38778A"/>
<path d="M118.606 37.2754C118.27 37.7406 118.652 38.3632 119.133 38.3546C119.829 38.3457 120.04 37.731 119.825 37.3201C119.607 36.9019 118.975 36.7652 118.606 37.2754Z" fill="#38778A"/>
<path d="M122.396 32.623C121.105 33.298 122.15 35.2269 123.412 34.5673C124.736 33.8658 123.636 31.9749 122.396 32.623Z" fill="#38778A"/>
<path d="M124.209 26.6213C124.569 27.4886 125.915 26.7201 125.442 25.977C124.905 25.1276 123.834 25.7245 124.209 26.6213Z" fill="#38778A"/>
<path d="M122.738 27.9698C121.931 28.3916 122.583 29.6574 123.398 29.2317C124.212 28.806 123.552 27.5441 122.738 27.9698Z" fill="#38778A"/>
<path d="M118.706 33.3376C117.903 33.8038 118.585 35.0542 119.366 34.5995C120.264 34.0834 119.395 32.94 118.706 33.3376Z" fill="#38778A"/>
<path d="M104.504 40.8733C105.134 41.31 106.143 40.5587 105.711 39.8037C105.027 38.6385 103.398 40.1157 104.504 40.8733Z" fill="#38778A"/>
<path d="M91.4564 66.4325C91.398 67.7147 93.5052 67.7249 93.2571 66.2852C93.099 65.3216 91.5139 65.3095 91.4564 66.4325Z" fill="#38778A"/>
<path d="M41.5697 93.6776C40.7333 94.1148 41.4159 95.4207 42.2523 94.9835C43.0887 94.5463 42.406 93.2404 41.5697 93.6776Z" fill="#384769"/>
<path d="M44.6744 96.8653C45.3394 98.0124 46.9058 96.988 46.3325 95.9986C45.6675 94.8516 44.1011 95.8759 44.6744 96.8653Z" fill="#384769"/>
<path d="M44.044 93.1035C43.457 93.4103 43.9326 94.3201 44.5195 94.0133C45.1064 93.7064 44.6309 92.7967 44.044 93.1035Z" fill="#384769"/>
<path d="M47.0619 74.4124C46.9383 74.7479 47.1594 75.0994 47.4311 75.1722C48.0895 75.3418 48.3925 74.6884 48.1784 74.3145C47.9033 73.8418 47.2561 73.8905 47.0619 74.4124Z" fill="#384769"/>
<path d="M48.2442 77.9607C47.1951 78.5091 48.043 80.149 49.0994 79.5967C50.1447 79.041 49.3007 77.4084 48.2442 77.9607Z" fill="#384769"/>
<path d="M49.703 75.0869C48.6417 74.7542 49.0176 76.7063 49.8961 75.9388C50.1914 75.6817 50.0605 75.1989 49.703 75.0869Z" fill="#384769"/>
<path d="M81.5661 65.6146C81.1772 65.8179 81.0143 66.4355 81.3755 66.7512C81.3867 66.7547 81.3943 66.7693 81.4055 66.7728C81.6313 66.9724 81.9703 67.0848 82.2561 66.9167C82.5419 66.7486 82.6626 66.4613 82.6234 66.1362C82.6269 66.125 82.6192 66.1104 82.6228 66.0992C82.5477 65.634 81.9549 65.4114 81.5661 65.6146Z" fill="#384769"/>
<path d="M114.041 22.287C113.124 22.7664 113.884 24.0783 114.743 23.6296C115.664 23.1576 114.892 21.8421 114.041 22.287Z" fill="#384769"/>
<path d="M65.2461 29.9797C64.417 30.413 65.0881 31.6969 65.9172 31.2636C66.7501 30.8376 66.0751 29.5463 65.2461 29.9797Z" fill="#384769"/>
<path d="M67.8276 30.0219C67.51 30.272 67.8091 30.8443 68.1958 30.7262C68.936 30.4981 68.4374 29.5443 67.8276 30.0219Z" fill="#384769"/>
<path d="M68.0071 27.6488C67.2148 28.063 67.859 29.2956 68.6514 28.8814C69.4438 28.4672 68.7995 27.2346 68.0071 27.6488Z" fill="#384769"/>
<path d="M70.9844 46.9799C70.1774 47.4017 70.8332 48.6563 71.6402 48.2344C72.4473 47.8126 71.7915 46.558 70.9844 46.9799Z" fill="#384769"/>
<path d="M72.6459 40.955C71.6701 41.465 72.464 42.9837 73.4398 42.4737C74.4117 41.9563 73.6217 40.4449 72.6459 40.955Z" fill="#384769"/>
<path d="M67.3629 91.3576C66.4385 91.8408 67.2101 93.1562 68.0685 92.7075C68.993 92.2243 68.2286 90.905 67.3629 91.3576Z" fill="#384769"/>
<path d="M73.5422 88.4358C73.1394 89.0947 73.7643 90.0759 74.7778 89.6021C75.1889 89.4059 75.3784 88.8211 75.1489 88.4179C74.7671 87.7768 73.909 87.833 73.5422 88.4358Z" fill="#384769"/>
<path d="M72.091 90.306C71.3427 90.6972 71.9487 91.8564 72.697 91.4652C73.438 91.0778 72.832 89.9186 72.091 90.306Z" fill="#384769"/>
<path d="M92.7584 75.1775C91.9514 75.5994 92.6037 76.8651 93.4181 76.4394C94.2251 76.0176 93.5728 74.7518 92.7584 75.1775Z" fill="#384769"/>
<path d="M106.324 57.8109C105.523 57.5661 105.299 58.8699 106.132 58.9104C106.725 58.9367 107.024 58.0241 106.324 57.8109Z" fill="#384769"/>
<path d="M118.172 49.3103C117.35 49.7398 118.017 51.0164 118.839 50.5869C119.661 50.1574 118.993 48.8808 118.172 49.3103Z" fill="#384769"/>
<path d="M106.894 74.271C106.087 74.6929 106.743 75.9474 107.55 75.5256C108.357 75.1037 107.701 73.8491 106.894 74.271Z" fill="#384769"/>
<path d="M110.969 67.1622C111.511 68.0559 112.654 67.4021 112.253 66.491C111.852 65.5985 110.492 66.3746 110.969 67.1622Z" fill="#384769"/>
<path d="M112.016 69.5391C111.56 71.1877 114.286 71.0053 113.744 69.5042C113.437 68.6655 112.248 68.698 112.016 69.5391Z" fill="#384769"/>
<path d="M115.92 64.4995C115.701 65.2774 116.706 65.8073 117.224 65.1722C117.993 64.2474 116.243 63.3125 115.92 64.4995Z" fill="#384769"/>
<path d="M90.9343 69.0968C89.855 69.4088 90.6454 70.9387 91.5249 70.2267C92.0907 69.7721 91.5826 68.9074 90.9343 69.0968Z" fill="#452E61"/>
<path d="M91.4653 48.6326C92.0386 49.6221 93.3963 48.7348 92.9033 47.8809C92.33 46.8915 90.9722 47.7787 91.4653 48.6326Z" fill="#452E61"/>
<path d="M94.2758 45.3418C93.1826 45.9133 94.065 47.6192 95.1655 47.044C96.2587 46.4725 95.3689 44.7704 94.2758 45.3418Z" fill="#452E61"/>
<path d="M94.8305 49.2088C94.2733 48.6967 93.5518 49.1393 93.642 49.8301C93.711 50.3732 94.3101 50.5364 94.6696 50.3485C95.0291 50.1606 95.237 49.5755 94.8305 49.2088Z" fill="#452E61"/>
<path d="M96.7345 48.6339C95.9642 49.0366 96.5854 50.2251 97.3558 49.8225C98.1226 49.4309 97.5049 48.2312 96.7345 48.6339Z" fill="#452E61"/>
<path d="M33.6241 99.8861C32.8978 100.266 33.4845 101.388 34.2109 101.009C34.941 100.636 34.3504 99.5065 33.6241 99.8861Z" fill="#452E61"/>
<path d="M32.076 102.339C32.3695 103.008 33.3809 102.423 33.0298 101.841C32.6252 101.174 31.7672 101.641 32.076 102.339Z" fill="#452E61"/>
<path d="M39.4316 63.8004C38.5805 64.2453 39.2673 65.577 40.1257 65.1283C40.9841 64.6796 40.29 63.3517 39.4316 63.8004Z" fill="#29E1C2"/>
<path d="M42.4347 62.7724C41.7744 63.1175 42.3075 64.1373 42.9678 63.7922C43.6207 63.4509 43.095 62.4272 42.4347 62.7724Z" fill="#29E1C2"/>
<path d="M28.1745 82.0808C27.4409 82.4643 28.0353 83.6015 28.769 83.218C29.5026 82.8345 28.9155 81.6934 28.1745 82.0808Z" fill="#29E1C2"/>
<path d="M29.7817 82.4925C29.4466 82.7984 29.7279 83.4081 30.2294 83.2953C31.0223 83.1144 30.423 81.9144 29.7817 82.4925Z" fill="#29E1C2"/>
<path d="M28.6188 84.1279C28.2672 84.5453 28.5678 84.9953 29.0484 84.9496C29.4329 84.9168 29.5398 84.4779 29.4132 84.2358C29.2866 83.9937 28.8691 83.8383 28.6188 84.1279Z" fill="#29E1C2"/>
<path d="M57.2381 43.8246C57.6203 44.4842 58.5169 43.8941 58.1919 43.326C57.8097 42.6664 56.9131 43.2565 57.2381 43.8246Z" fill="#29E1C2"/>
<path d="M59.0503 40.0186C58.0526 40.5402 58.8618 42.0882 59.8596 41.5667C60.8573 41.0451 60.0481 39.497 59.0503 40.0186Z" fill="#29E1C2"/>
<path d="M87.8998 18.2405C86.7993 18.8158 87.6929 20.5252 88.7934 19.95C89.8939 19.3747 89.0003 17.6653 87.8998 18.2405Z" fill="#29E1C2"/>
<path d="M89.3176 20.8812C89.3656 21.4913 89.8788 21.6153 90.2016 21.4466C90.3924 21.3469 90.5148 21.1521 90.5258 20.9408C90.5663 20.107 89.2554 20.101 89.3176 20.8812Z" fill="#29E1C2"/>
<path d="M90.5447 18.9222C90.8962 19.5232 91.7271 18.9861 91.4251 18.462C91.0624 17.8576 90.2354 18.402 90.5447 18.9222Z" fill="#29E1C2"/>
<path d="M61.331 48.4202C60.9605 48.4083 60.701 48.8055 60.8736 49.1357C61.0385 49.4511 61.5061 49.5057 61.7403 49.1497C61.9166 48.8614 61.7385 48.4313 61.331 48.4202Z" fill="#38778A"/>
<path d="M64.0396 42.9688C64.7046 44.1158 66.271 43.0915 65.6977 42.1021C65.0439 40.9586 63.4663 41.9794 64.0396 42.9688Z" fill="#38778A"/>
<path d="M93.0856 26.7674C92.1685 27.2468 93.1478 28.7806 93.9882 27.7435C94.3759 27.2699 93.7606 26.4145 93.0856 26.7674Z" fill="#38778A"/>
<path d="M89.5117 29.8126C88.8294 30.1692 89.3855 31.2331 90.0678 30.8764C90.7501 30.5197 90.194 29.4559 89.5117 29.8126Z" fill="#38778A"/>
<path d="M87.8119 30.4209C87.2616 30.7085 87.7065 31.5596 88.2567 31.2719C88.807 30.9843 88.3621 30.1332 87.8119 30.4209Z" fill="#38778A"/>
<path d="M46.1002 65.8354C46.4902 66.3134 47.3769 65.7939 47.0471 65.1629C46.6559 64.4146 45.5211 65.1386 46.1002 65.8354Z" fill="#38778A"/>
<path d="M46.5966 67.6964C45.996 68.4774 47.3837 69.4522 47.9704 68.5196C48.4817 67.7105 47.342 66.7276 46.5966 67.6964Z" fill="#38778A"/>
<path d="M36.2637 81.3647C35.3269 81.5741 36.0556 82.9681 36.7622 82.3185C37.2141 81.9141 36.8316 81.236 36.2637 81.3647Z" fill="#38778A"/>
<path d="M38.3061 78.1953C38.022 78.0449 37.6688 78.1735 37.628 78.5778C37.59 78.934 38.0088 79.1634 38.3023 79.01C38.5699 78.8608 38.6615 78.3926 38.3061 78.1953Z" fill="#38778A"/>
<path d="M60.215 78.7558C60.8761 79.8954 62.4352 78.875 61.8657 77.8929C61.2046 76.7532 59.6344 77.7701 60.215 78.7558Z" fill="#384769"/>
<path d="M61.4593 76.7042C61.8381 77.1787 62.5746 76.747 62.4131 76.2056C62.1411 75.2922 60.861 75.9707 61.4593 76.7042Z" fill="#384769"/>
</svg>
