<svg width="89" height="72" viewBox="0 0 89 72" fill="none" xmlns="http://www.w3.org/2000/svg">
<path d="M65.1472 21.8424C66.7155 21.4841 68.2579 20.8765 69.4783 19.8378C71.5088 18.1137 72.428 15.2835 72.0021 12.6817C71.5763 10.08 69.9041 7.74307 67.6762 6.26822C70.0651 6.25784 72.5889 6.75638 74.3286 8.35066C75.6529 9.56585 76.3903 11.3107 76.6084 13.0764C76.8265 14.8421 76.5617 16.6337 76.1255 18.363C75.7619 19.8171 75.227 21.3075 74.0846 22.3046C72.7967 23.4263 70.9947 23.7119 69.3692 24.2728C67.9255 24.7713 66.5234 25.5243 64.9914 25.5555C63.6672 25.5814 62.3741 25.0517 61.3458 24.2364C61.0239 23.9819 58.661 21.6243 59.2894 21.3231C59.5023 21.2192 60.6811 21.8735 60.9979 21.9462C61.6315 22.0968 62.291 22.1436 62.9453 22.128C63.6879 22.1124 64.4254 22.0086 65.1472 21.8424Z" fill="#29E1C2"/>
<path d="M8.65117 27.7158C8.92122 27.8197 9.18606 27.9183 9.4613 28.017C10.7648 28.4948 12.0371 29.0089 13.4236 29.1906C14.7167 29.362 16.0462 29.2737 17.3081 28.931C18.2273 28.6817 19.1153 28.3026 19.9254 27.7937C20.6421 27.3419 21.3224 26.7914 22.1481 26.5993C23.1036 26.376 24.1578 26.698 24.8589 27.3834C25.7417 28.2507 25.8871 29.4036 25.7625 30.5772C25.4613 33.4542 24.0851 36.3312 21.6288 37.8632C19.4684 39.2134 16.7784 39.3692 14.2338 39.2497C11.928 39.1459 9.5444 38.8135 7.60737 37.562C5.49896 36.2014 4.22146 33.7346 4.10202 31.2471C4.07086 30.6136 3.94103 29.8138 4.20069 29.2114C4.43438 28.6661 4.5694 28.0793 4.96408 27.6171C5.30163 27.2225 6.01308 26.6356 6.54797 26.8641C7.24385 27.1653 7.94491 27.4458 8.65117 27.7158Z" fill="#452E61"/>
<path d="M88.9422 14.4266C88.8435 13.6373 88.6462 12.9362 88.371 12.3078C88.0853 11.6535 87.7062 11.0771 87.27 10.5578C86.3924 9.51913 85.2551 8.69862 84.0295 7.91446C83.692 7.70154 83.3544 7.48863 83.0065 7.27571C81.111 6.10726 79.4751 4.66876 77.6524 3.44838C76.8163 2.89272 75.9438 2.3786 74.9883 1.95796C71.7374 0.529851 68.1282 -0.145254 64.5709 0.0261191C61.803 0.16114 59.0662 0.81028 56.5527 2.01508C54.2885 3.10564 52.2009 4.59087 49.8173 5.3958C50.1081 7.37438 49.1422 9.50356 47.4856 10.6616C45.5901 11.9859 42.9727 12.0793 40.8643 11.1238C38.7403 10.1579 37.6238 8.10661 38.3145 6.0034C36.0815 5.94627 33.8744 6.03455 31.7556 6.6785C27.7517 7.89888 24.5891 10.968 21.925 14.1929C21.4057 14.8213 20.902 15.4601 20.3983 16.104C21.494 17.2049 22.1328 18.7109 22.3561 20.2533C22.9169 24.0702 20.8449 28.1365 17.4226 29.9229C17.3863 29.9437 17.3499 29.9592 17.3136 29.98C13.9069 31.6989 9.45118 31.0706 6.66248 28.4584C6.24183 28.0638 5.85755 27.6119 5.53038 27.1238C4.78257 27.4665 4.05033 27.8508 3.35965 28.313C0.596909 30.1566 0.238591 32.0728 0.0879906 35.1991C0.0776043 35.386 0.0724176 35.5782 0.0620313 35.7703C-0.192431 41.8151 0.602116 47.9015 2.38335 53.6814C4.35155 53.1932 6.36647 52.8505 8.38659 52.9336C10.6508 53.0271 12.9358 53.6814 14.7014 55.0991C14.7378 55.1251 14.7689 55.1562 14.8053 55.1822C16.3892 56.5013 17.4486 58.4227 17.7602 60.4584C17.7965 60.6817 17.8225 60.9102 17.8381 61.1387C17.8692 61.549 17.864 61.954 17.8329 62.3643C17.6148 65.101 15.9633 67.682 13.5745 69.0322C13.076 69.3127 12.5307 69.5619 12.0062 69.832C12.2087 69.9618 12.4164 70.0864 12.6294 70.2059C15.7141 71.93 19.4168 72.0442 22.9533 71.9767C25.3473 71.93 27.7361 71.8157 30.125 71.634C30.2184 71.6288 30.3119 71.6184 30.4106 71.608C31.6673 71.4938 32.7994 71.2601 33.8692 70.5486C35.3285 69.5827 36.9331 68.7103 38.6884 68.6635C40.2308 68.622 41.6433 68.8349 43.0662 69.4217C44.323 69.941 45.3096 69.8631 46.6027 69.6398C46.6495 69.6294 46.6962 69.6243 46.7429 69.6139C49.0954 69.1984 51.6349 68.5804 53.494 67.0017C55.9451 64.9193 57.3421 60.8012 58.952 58.0852C60.9773 54.6681 63.1947 50.8927 66.7001 48.7947C69.6809 47.0134 72.0646 47.7768 75.2531 48.0001C79.6621 48.3065 82.2587 45.3464 83.8789 41.5866C83.7127 40.9583 83.5517 40.3247 83.3908 39.6963C82.4404 36.03 81.4849 32.2182 82.2067 28.5C82.7935 25.462 84.4709 22.7252 86.5482 20.4299C87.2337 19.6717 87.9607 18.9602 88.7137 18.2747C88.911 17.0024 89.098 15.7093 88.9422 14.4266ZM73.368 16.3896C73.1344 17.2776 72.7449 18.1034 72.2359 18.846C71.7478 19.5574 71.1506 20.1962 70.4703 20.7311C68.9227 21.9566 66.9597 22.6577 64.9448 22.5746C63.8906 22.5279 62.826 22.3254 61.8341 21.9411C61.6731 21.8788 61.5122 21.8112 61.3564 21.7385C60.5099 21.3491 59.7309 20.8194 59.0766 20.1339C58.5573 19.5886 58.1262 19.0121 57.7731 18.4046C57.5758 18.1553 57.3992 17.8904 57.2382 17.6152C55.9815 15.4704 55.8257 12.4117 57.2382 10.2825C58.1262 8.9427 59.2012 7.75867 60.6761 7.04721C61.3771 6.70966 62.1457 6.34095 62.9299 6.16957C63.2778 6.09168 63.5686 6.03455 63.8335 5.99301C64.7475 5.84241 65.2927 5.87876 66.3469 6.01897C66.7728 6.0761 67.1207 6.12284 67.4427 6.18515C68.1022 6.31498 68.6527 6.51751 69.5147 7.01086C70.7299 7.71193 71.6803 8.66227 72.4125 9.85149C73.6017 11.7833 73.9445 14.1981 73.368 16.3896Z" fill="#38778A"/>
<path d="M10.4481 54.4656C12.1151 55.1095 13.5899 56.2261 14.6857 57.6386C15.823 59.103 16.4046 60.9466 16.3267 62.8161C16.2799 63.9015 16.0047 64.9816 15.5062 65.9476C14.7012 67.5055 13.377 68.7207 12.0839 69.9047C13.8911 69.7905 15.6672 69.1829 17.1628 68.165C18.3884 67.3289 19.427 66.2228 20.1852 64.9453C20.5435 64.3429 20.9745 63.808 21.2653 63.1692C21.6081 62.4059 21.8314 61.5905 21.8989 60.7596C22.1741 57.5607 20.4708 54.3773 17.921 52.4299C15.366 50.4825 12.0735 49.6827 8.85899 49.7295C7.38934 49.7502 5.65483 49.9372 4.36694 50.6954C3.80089 51.0277 3.31793 51.5003 2.95961 52.0508C2.78823 52.3208 2.64283 52.6065 2.53896 52.9077C2.513 52.9855 2.33643 53.7905 2.33643 53.7905C3.76453 53.562 5.21861 53.5308 6.6571 53.6918C7.95019 53.8476 9.22251 53.9982 10.4481 54.4656Z" fill="#452E61"/>
<path d="M38.5846 5.98779C38.5068 7.29126 39.1143 8.50126 39.9245 9.48276C40.4905 10.1683 41.2383 10.6876 42.0588 11.0199C42.9001 11.3627 43.7466 11.425 44.6398 11.534C45.289 11.6119 45.9485 11.6379 46.5976 11.5444C46.9767 11.4925 47.4026 11.4094 47.6986 11.6483C47.9167 11.8197 47.9946 12.1157 48.0205 12.3909C48.088 13.0972 47.8855 13.8242 47.4753 14.4006C47.0235 15.0394 46.2289 15.4704 45.559 15.8495C44.2399 16.5921 42.7599 17.0907 41.2435 17.0959C39.7323 17.1011 38.1848 16.5766 37.1202 15.5016C35.9621 14.3331 35.4636 12.635 35.4532 10.9888C35.448 9.68529 35.7128 8.38701 36.0764 7.14586C36.2374 6.59539 36.2478 6.44998 36.7567 6.2838C36.9592 6.2059 38.5795 6.07608 38.5846 5.98779Z" fill="#452E61"/>
<path d="M74.3341 47.9273C72.4178 48.1818 70.5483 48.6128 68.8501 49.5164C66.3418 50.8459 64.4412 53.0841 62.8573 55.4418C61.2786 57.7994 59.9491 60.3233 58.2354 62.5875C56.9942 64.2233 55.5038 65.7397 53.7485 66.7783C56.0387 64.6388 57.3941 60.7128 58.9468 58.1006C60.9722 54.6836 63.1896 50.9082 66.695 48.8102C69.3798 47.1951 71.5869 47.6573 74.3341 47.9273Z" fill="#38778A"/>
<path d="M20.3308 16.535C20.3516 16.8517 20.5074 17.1426 20.6476 17.4282C22.3406 20.9179 22.1848 25.2386 20.2529 28.6038C21.4214 27.6742 22.6106 26.7239 23.4156 25.4671C24.2724 24.1325 24.6411 22.5226 24.6255 20.9387C24.61 19.3548 24.2257 17.7917 23.67 16.3065C23.561 16.0156 23.4311 15.7093 23.1663 15.5431C22.8235 15.3302 22.3769 15.4288 21.9978 15.569C21.3591 15.8027 20.2581 15.5794 20.3308 16.535Z" fill="#29E1C2"/>
<path d="M46.3431 11.6379C46.53 11.6379 46.7222 11.6327 46.9091 11.6275C47.4492 11.6016 48.1866 11.612 48.6852 11.3835C49.6043 10.9628 50.4924 10.2981 51.1571 9.52953C51.692 8.90635 52.1282 8.117 52.0243 7.30687C51.9672 6.84988 51.7543 6.37731 51.4583 6.01898C51.2038 5.70739 50.5703 5.61392 50.1912 5.50486C49.838 5.401 49.6978 5.42177 49.6147 5.79568C49.5057 6.27864 49.3759 6.7616 49.2356 7.23417C48.9344 8.25721 48.5086 9.24391 47.7608 10.0333C47.0493 10.7863 46.125 11.3367 45.1123 11.5652C45.346 11.5133 45.7199 11.6224 45.964 11.6327C46.0886 11.6327 46.2184 11.6379 46.3431 11.6379Z" fill="#29E1C2"/>
<path d="M88.6981 18.28C87.9399 18.9655 87.2128 19.677 86.5325 20.4352C84.4553 22.7305 82.7779 25.4673 82.1911 28.5053C81.4744 32.2235 82.43 36.0353 83.3751 39.7016C83.5361 40.33 83.7023 40.9636 83.8633 41.5919C82.243 45.3517 79.6517 48.3118 75.2375 48.0054C74.9259 47.9846 74.6247 47.9535 74.3235 47.9275C71.5764 47.6575 69.3693 47.1953 66.6844 48.8C63.1791 50.898 60.9616 54.6734 58.9363 58.0904C57.3836 60.7078 56.0282 64.6286 53.738 66.7681C53.6497 66.8512 53.5666 66.9291 53.4784 67.0018C51.6192 68.5805 49.0798 69.1985 46.7273 69.614C46.6806 69.6244 46.6338 69.6296 46.5871 69.6399C45.2888 69.8684 44.3073 69.9463 43.0506 69.4218C41.6277 68.835 40.2151 68.6221 38.6728 68.6636C36.9175 68.7104 35.3128 69.5828 33.8536 70.5487C32.7838 71.2602 31.6517 71.4939 30.395 71.6081C30.3015 71.6185 30.208 71.6237 30.1093 71.6341C27.7205 71.8107 25.3317 71.9301 22.9377 71.9716C19.4063 72.0392 15.6984 71.9249 12.6137 70.2008C12.4008 70.0813 12.1931 69.9567 11.9906 69.8269C12.5151 69.5569 13.0603 69.3076 13.5589 69.0271C15.9477 67.6769 17.5939 65.096 17.8172 62.3592C17.8484 61.9541 17.8536 61.5439 17.8224 61.1336C17.8069 60.9051 17.7809 60.6766 17.7445 60.4533C17.433 58.4228 16.3787 56.4962 14.7897 55.1771C14.7533 55.146 14.7222 55.12 14.6858 55.094C12.9201 53.6763 10.63 53.022 8.37097 52.9337C6.35085 52.8506 4.33592 53.1933 2.36773 53.6815C0.586491 47.8964 -0.208056 41.81 0.0464063 35.7704C0.0515995 35.5783 0.0619793 35.3861 0.0723656 35.1992C0.52936 36.2274 0.877305 37.3076 1.34469 38.3306C1.94189 39.6393 2.78836 40.9012 4.06067 41.5711C5.86269 42.5163 8.05937 42.0593 10.0016 41.4621C12.2866 40.761 14.7845 39.8003 16.9396 41.2699C18.7624 42.5163 20.0555 44.4014 21.9302 45.5906C24.8955 47.4653 28.6916 47.1693 32.1814 46.8058C36.6682 46.3384 41.503 45.7204 44.8007 42.6357C47.1687 40.4235 48.6124 37.0479 51.6244 35.8691C54.626 34.6955 58.0016 36.1703 61.2057 35.8483C63.2622 35.6406 65.1681 34.5916 66.565 33.0752C67.8737 31.6575 68.7357 29.8295 68.8552 27.9029C68.9383 26.5942 68.7202 25.2648 68.9435 23.9717C69.1512 22.7773 69.712 21.7023 70.4547 20.7364C70.974 20.0561 71.5816 19.4329 72.2203 18.8513C72.3657 18.7162 72.5163 18.5864 72.6617 18.4566C74.3703 16.9766 76.2658 15.6419 77.5277 13.762C79.3453 11.0408 78.8623 6.96423 77.6419 3.44849C79.4647 4.66887 81.0953 6.10736 82.996 7.27581C83.344 7.48873 83.6815 7.69645 84.0191 7.91457C85.2446 8.69873 86.3819 9.51924 87.2596 10.5579C87.701 11.0824 88.0749 11.6536 88.3605 12.3079C88.6358 12.9363 88.8331 13.6322 88.9318 14.4267C89.0979 15.7094 88.911 17.0025 88.6981 18.28Z" fill="#384769"/>
<path d="M46.7327 69.619C46.686 69.6294 46.6393 69.6346 46.5925 69.645C45.2994 69.8735 44.3127 69.9514 43.056 69.4269C41.6331 68.84 40.2206 68.6271 38.6782 68.6687C36.9229 68.7154 35.3183 69.5878 33.859 70.5538C32.7892 71.26 31.6571 71.4989 30.4004 71.6132C30.5666 71.4885 30.7276 71.3691 30.8782 71.2444C31.6727 70.5797 32.4465 69.889 33.2618 69.2503C34.9444 67.9312 36.8814 66.7887 39.0106 66.6485C41.8253 66.4564 44.3906 68.0039 46.7327 69.619Z" fill="#452E61"/>
<path d="M64.5655 0.0312043C63.262 1.76051 63.3347 3.94162 63.828 5.98771C63.5632 6.02925 63.2724 6.09157 62.9244 6.16427C62.1403 6.33565 61.3717 6.70436 60.6706 7.04191C59.201 7.75337 58.1208 8.9374 57.2328 10.2772C55.8203 12.4064 55.976 15.4651 57.2328 17.6099C57.3938 17.8851 57.5755 18.15 57.7677 18.3993C58.1208 19.0068 58.5518 19.5885 59.0711 20.1286C59.7255 20.8141 60.5044 21.3438 61.3509 21.7332C61.5067 21.8059 61.6677 21.8735 61.8287 21.9358C57.534 24.0078 52.0293 22.1643 47.558 24.0182C43.9332 25.519 41.5911 29.2061 38.0234 30.8316C35.6086 31.9325 32.8407 31.9896 30.2078 31.6729C27.9176 31.3976 25.6638 30.8627 23.3789 30.546C23.0361 30.4992 22.6934 30.4577 22.3454 30.4213C22.1533 30.4005 21.9611 30.385 21.769 30.3694C20.289 30.2447 18.7674 30.1928 17.3081 29.9695C17.3445 29.9539 17.3808 29.9332 17.4172 29.9124C20.8342 28.126 22.9115 24.0597 22.3506 20.2428C22.1221 18.7056 21.4886 17.1944 20.3928 16.0935C20.8965 15.4496 21.4055 14.8108 21.9196 14.1824C24.5889 10.9575 27.7463 7.88839 31.7502 6.66801C33.8689 6.02406 36.076 5.93578 38.3091 5.9929C37.6184 8.09611 38.7349 10.1474 40.8589 11.1133C42.9673 12.0688 45.5794 11.9754 47.4801 10.6511C49.1419 9.49306 50.1078 7.36388 49.8118 5.38531C52.1903 4.58037 54.2779 3.09514 56.5473 2.00459C59.0608 0.794592 61.7975 0.150646 64.5655 0.015625C64.5707 0.0260112 64.5707 0.0312043 64.5655 0.0312043Z" fill="#00A89D"/>
<path d="M88.371 12.3078C87.9608 12.5466 87.5609 12.7803 87.2078 13.0348C82.4665 16.4363 79.4389 22.1487 79.3558 27.991C79.3039 31.621 80.2126 35.6352 78.125 38.6057C75.9751 41.6593 71.7167 42.0851 68.2633 43.5132C63.4804 45.4866 59.9855 49.6151 56.5113 53.4528C53.0371 57.2905 49.1007 61.1542 44.0426 62.2811C39.3948 63.3145 34.6119 61.8605 29.9173 61.0607C25.9082 60.3752 21.8213 60.1779 17.7654 60.4583C17.4538 58.4226 16.3944 56.5012 14.8105 55.1821C16.8722 55.0627 18.9339 55.0159 20.9955 55.099C23.5817 55.2029 26.1627 55.5249 28.671 56.1584C30.7898 56.6985 32.7579 57.5813 34.8767 58.0331C39.4415 59.0146 43.8297 60.557 48.3373 58.298C53.8108 55.556 55.9244 48.6388 60.9618 45.1646C63.4908 43.4249 66.5444 42.6875 69.4369 41.6593C72.3295 40.631 75.2688 39.1406 76.8163 36.4921C79.335 32.1818 77.2785 26.5577 78.7741 21.7956C79.7608 18.6538 82.1601 16.2805 84.3931 13.9799C85.1617 13.1854 86.1588 11.7365 87.2649 10.5525C87.7063 11.077 88.0802 11.6534 88.371 12.3078Z" fill="#38778A"/>
<path d="M26.6301 10.2669C24.7294 11.5548 23.1299 13.4555 22.7196 15.7145C22.6106 16.3065 22.6262 17.018 23.0988 17.3971C23.7375 17.9112 24.6775 17.4594 25.3266 16.9608C27.3935 15.3666 29.102 13.2737 31.4077 12.0534C32.1244 11.6743 32.893 11.3834 33.5473 10.9057C34.2016 10.4279 34.7417 9.70087 34.7417 8.89074C34.7417 5.36981 27.8297 9.45679 26.6301 10.2669Z" fill="#29E1C2"/>
<path d="M55.7426 3.39657C54.1067 4.08206 52.58 5.16742 51.6815 6.69419C51.1674 7.56144 50.8714 8.54814 50.3054 9.38423C49.7082 10.2619 48.8513 10.9266 48.0412 11.6121C47.231 12.2976 46.4261 13.0506 46.0055 14.0269C45.5848 15.0032 45.6316 16.2547 46.3846 17.0025C47.257 17.8698 48.7838 17.7555 49.7757 17.0233C50.7676 16.2911 51.3076 15.1018 51.6556 13.9178C52.0035 12.739 52.2009 11.503 52.6994 10.3761C53.4264 8.73509 54.7507 7.41604 56.2151 6.38261C57.6848 5.34398 59.305 4.55463 60.8785 3.68738C62.1664 2.97592 61.7666 2.08271 60.4268 2.1658C58.874 2.26447 57.1655 2.79416 55.7426 3.39657Z" fill="#29E1C2"/>
<path d="M24.5267 33.9683C24.5059 34.4513 24.5215 35.0225 24.1735 35.3185C23.8516 35.5886 23.353 35.4588 23.0726 35.1264C22.7974 34.7992 22.6987 34.3318 22.6779 33.88C22.6052 32.4675 23.1453 31.0602 24.0437 30.0527C24.8019 29.2011 25.7938 28.6246 26.8376 28.3338C27.6218 28.1157 28.9045 28.1832 27.8918 29.2062C27.1907 29.9125 26.2819 30.1825 25.6328 31.0031C24.9837 31.8236 24.5682 32.8778 24.5267 33.9683Z" fill="#29E1C2"/>
<path d="M67.4372 6.18513C67.1152 6.12281 66.7673 6.07607 66.3415 6.01895C64.9809 5.83719 64.4667 5.832 62.9244 6.16955C62.1402 6.34092 61.3717 6.70963 60.6706 7.04719C59.2009 7.75864 58.1208 8.94267 57.2327 10.2825C55.8202 12.4117 55.976 15.4704 57.2327 17.6152C57.3937 17.8904 57.5755 18.1553 57.7676 18.4045C58.1208 19.0121 58.5518 19.5938 59.0711 20.1338C59.7254 20.8193 60.5044 21.349 61.3509 21.7385C61.3301 21.7333 61.3093 21.7333 61.2886 21.7281C58.8063 21.3023 56.5057 19.7911 55.2334 17.6152C53.9611 15.4445 53.7741 12.6402 54.8543 10.3656C55.545 8.90632 56.7082 7.70152 58.074 6.84466C60.8368 5.11535 64.446 4.93878 67.4372 6.18513Z" fill="#452E61"/>
<path d="M15.4701 40.543C15.4493 42.7033 13.7148 44.7598 11.274 45.7984C10.1212 46.2866 8.68266 46.567 7.50902 46.1048C7.25455 46.0061 7.02605 45.8763 6.82352 45.7257C6.54829 45.5232 6.31979 45.2791 6.12245 45.0142C5.85241 44.6507 5.65508 44.2509 5.49928 43.8562C4.2062 40.5845 4.1179 33.849 11.004 35.5732C12.0218 35.8276 12.9254 36.3054 13.6421 36.9182C14.042 37.2557 14.3795 37.6348 14.6547 38.0399C15.1896 38.8085 15.4804 39.6757 15.4701 40.543Z" fill="#384769"/>
<path d="M13.647 36.918C12.4993 36.4611 11.1906 36.1339 9.99102 36.326C8.71871 36.5286 7.47754 37.4477 6.71935 38.4552C6.1533 39.2082 5.82613 40.0443 5.68073 40.9219C5.53532 41.7996 5.58206 42.7188 5.76902 43.6224C5.86769 44.0949 5.98713 44.5623 6.12734 45.0245C5.8573 44.661 5.65996 44.2611 5.50416 43.8664C4.21108 40.5948 4.1228 33.8593 11.0089 35.5834C12.0267 35.8275 12.9303 36.3053 13.647 36.918Z" fill="#452E61"/>
<path d="M15.4698 40.5429C15.449 42.7033 13.7145 44.7598 11.2737 45.7984C10.1209 46.2865 8.68238 46.567 7.50874 46.1048C7.25427 46.0061 7.02577 45.8763 6.82324 45.7257C8.50581 46.1671 10.3701 45.8815 11.8398 44.9415C12.3643 44.6092 12.8317 44.1937 13.2367 43.7211C14.0209 42.7968 14.5506 41.6543 14.7168 40.4495C14.8258 39.6445 14.7791 38.8396 14.6597 38.0347C15.1893 38.8084 15.4802 39.6757 15.4698 40.5429Z" fill="#29E1C2"/>
<path d="M40.5372 22.3825C39.1247 23.3224 37.4421 23.6652 35.7284 23.7535C35.3389 23.7742 34.9442 23.7794 34.5495 23.7742C34.1237 23.7691 33.6979 23.7535 33.2772 23.7379C31.6102 23.66 29.8082 23.4523 28.5775 22.3254C26.8066 20.7051 26.7858 17.7554 28.001 15.7872C28.2451 15.3978 28.5307 15.0446 28.8683 14.7486C31.3246 12.5883 34.5755 11.3367 37.8524 11.3315C39.8205 11.3315 41.2954 12.1469 42.2301 13.3569C42.5106 13.7204 42.7443 14.1202 42.926 14.5409C44.0166 17.1011 43.3051 20.5389 40.5372 22.3825Z" fill="#384769"/>
<path d="M42.2195 13.362C40.8329 12.7596 39.3009 12.4947 37.7949 12.609C34.4142 12.8634 30.348 15.2211 30.026 18.9186C29.9533 19.7755 30.1039 20.6687 30.5505 21.4061C31.0127 22.1747 31.7605 22.7356 32.5706 23.1198C33.0588 23.3483 33.5677 23.5249 34.087 23.6703C34.2221 23.7067 34.4038 23.7378 34.5544 23.7794C34.1286 23.7742 33.7027 23.7586 33.2821 23.743C31.6151 23.6651 29.8131 23.4574 28.5823 22.3305C26.8115 20.7102 26.7907 17.7606 28.0059 15.7924C28.25 15.4029 28.5356 15.0497 28.8731 14.7537C31.3295 12.5934 34.5804 11.3419 37.8572 11.3367C39.815 11.3367 41.2847 12.1468 42.2195 13.362Z" fill="#452E61"/>
<path d="M40.5373 22.3824C39.1248 23.3223 37.4422 23.6651 35.7285 23.7534C37.7175 23.1406 39.7584 22.5693 41.1605 20.9283C41.2384 20.84 41.3111 20.7465 41.3786 20.6531C42.7029 18.9186 42.9677 16.6855 42.9158 14.5408C44.0167 17.101 43.3053 20.5388 40.5373 22.3824Z" fill="#29E1C2"/>
<path d="M59.175 33.075C59.0348 34.633 58.0066 36.0143 56.7498 36.9699C55.6229 37.8267 54.2468 38.4032 52.8498 38.5278C52.2838 38.5797 51.7177 38.559 51.1569 38.4551C50.8608 38.398 50.57 38.3201 50.2844 38.2162C48.7109 37.6398 47.397 36.3519 47.0128 34.7264C46.1715 31.1951 49.0381 28.6141 52.2474 28.0117C53.8884 27.7054 55.6593 27.939 57.0355 28.8582C57.7937 29.3671 58.4116 30.0942 58.7907 30.9199C59.0296 31.4392 59.1698 32.0001 59.1906 32.5713C59.1906 32.7427 59.1906 32.9089 59.175 33.075Z" fill="#384769"/>
<path d="M58.7855 30.9251C57.6171 30.4421 56.3396 30.2032 55.1088 30.4525C53.8417 30.7122 52.7252 31.4652 51.7696 32.3376C51.0582 32.9867 50.4142 33.7242 50.0144 34.5966C49.6145 35.4691 49.4847 36.4973 49.8118 37.4009C49.9209 37.6969 50.0819 37.9721 50.2844 38.2162C48.7109 37.6398 47.397 36.3519 47.0128 34.7264C46.1715 31.1951 49.0381 28.6141 52.2474 28.0117C53.8884 27.7054 55.6593 27.939 57.0355 28.8582C57.7937 29.3671 58.4116 30.0942 58.7855 30.9251Z" fill="#452E61"/>
<path d="M59.1748 33.0751C59.0346 34.6331 58.0064 36.0144 56.7496 36.97C55.6227 37.8268 54.2466 38.4033 52.8496 38.5279C54.1012 38.0969 55.3423 37.4529 56.4069 36.5805C57.6481 35.5678 58.6555 34.2384 59.1852 32.5818C59.1904 32.7428 59.1904 32.909 59.1748 33.0751Z" fill="#29E1C2"/>
<path d="M33.2357 34.9343C32.8514 35.8119 31.9841 36.4143 31.0702 36.7259C30.3535 36.97 29.5797 37.0479 28.8371 36.9388C28.5151 36.8921 28.1984 36.8038 27.9024 36.6791C27.7777 36.6272 27.6531 36.5701 27.5336 36.5026C26.4742 35.9158 25.742 34.7317 25.8511 33.5321C26.0484 31.3147 28.2139 30.3747 30.1977 30.6499C31.0442 30.7642 31.8699 31.1225 32.4775 31.7041C32.5969 31.8184 32.7112 31.9378 32.815 32.0728C32.8514 32.1144 32.8774 32.1611 32.9085 32.2027C33.4538 32.992 33.62 34.0514 33.2357 34.9343Z" fill="#384769"/>
<path d="M32.4772 31.699C31.584 31.5848 30.6752 31.6419 29.8391 31.9535C28.7122 32.3689 27.7463 33.2985 27.4658 34.4618C27.2581 35.3238 27.5178 35.9781 27.9072 36.674C27.7826 36.6221 27.658 36.565 27.5385 36.4975C26.4791 35.9106 25.7469 34.7266 25.856 33.527C26.0533 31.3095 28.2188 30.3696 30.2026 30.6448C31.0387 30.7643 31.8644 31.1174 32.4772 31.699Z" fill="#452E61"/>
<path d="M33.2355 34.9341C32.8512 35.8118 31.9839 36.4142 31.0699 36.7258C30.3533 36.9699 29.5795 37.0477 28.8369 36.9387C29.9379 36.7258 31.1323 36.2584 31.9476 35.4742C32.3682 35.0692 32.6902 34.581 32.8512 33.9994C33.0122 33.4178 33.0018 32.805 32.9031 32.2078C33.4536 32.9919 33.6198 34.0513 33.2355 34.9341Z" fill="#29E1C2"/>
<path d="M74.3388 38.0605C73.6481 39.3328 72.5471 40.4182 71.3008 40.844C71.0256 40.9375 70.7399 40.9946 70.4595 41.0206C70.0025 41.0569 69.5559 40.9946 69.156 40.8388C68.6887 40.6623 68.2784 40.3559 67.9876 39.9248C66.7049 38.019 67.863 35.4743 69.6598 34.0306C70.579 33.2932 71.6955 32.8466 72.7289 32.9609C73.4092 33.0336 74.0376 33.3659 74.4686 33.9008C74.6504 34.1293 74.8009 34.3942 74.8944 34.685C74.9152 34.7369 74.9308 34.794 74.9464 34.8512C75.1956 35.8586 74.8841 37.053 74.3388 38.0605Z" fill="#384769"/>
<path d="M74.4637 33.8956C73.3836 33.932 72.319 34.3163 71.4465 34.9602C70.3767 35.7444 69.5978 36.9024 69.1979 38.1748C69.0369 38.6941 68.9486 39.2549 68.9902 39.8002C69.0161 40.117 69.1875 40.5065 69.1512 40.8388C68.6838 40.6623 68.2735 40.3559 67.9827 39.9248C66.7 38.019 67.8581 35.4743 69.6549 34.0306C70.5741 33.2932 71.6906 32.8466 72.724 32.9609C73.4043 33.0284 74.0327 33.3659 74.4637 33.8956Z" fill="#452E61"/>
<path d="M74.9363 34.8512C75.1959 35.8587 74.8843 37.0531 74.3338 38.0658C73.6432 39.3381 72.5422 40.4235 71.2959 40.8493C71.0206 40.9428 70.735 40.9999 70.4546 41.0259C70.9791 40.8649 71.5711 40.4754 71.8879 40.2521C72.5163 39.8107 72.9992 39.2498 73.477 38.6526C73.5964 38.4968 73.7107 38.3306 73.8197 38.1489C74.391 37.1778 74.7493 35.8587 74.8895 34.6851C74.9051 34.737 74.9259 34.7941 74.9363 34.8512Z" fill="#00A89D"/>
<path d="M44.5255 56.1897C43.0039 57.5191 41.1188 58.3189 39.1247 58.7291C38.6157 58.8382 38.0964 58.9161 37.5771 58.9732C36.9643 59.0407 36.3515 59.0771 35.7439 59.0823C33.0176 59.1186 30.1198 58.5682 28.1049 56.7246C24.1633 53.1154 25.768 45.0609 30.6079 42.8849C33.7394 41.4776 38.8286 41.8463 42.5677 43.7003C42.9364 43.882 43.2947 44.0794 43.6375 44.2923C43.6375 44.2923 43.6427 44.2923 43.6427 44.2975C45.0604 45.1855 46.1977 46.3176 46.8105 47.6782C48.1036 50.5448 46.8936 54.1177 44.5255 56.1897Z" fill="#384769"/>
<path d="M42.5677 43.7002C42.4119 43.7054 42.2873 43.7054 42.2198 43.7054C41.5602 43.6794 40.9007 43.6742 40.2412 43.695C38.9637 43.7365 37.5771 43.8196 36.3463 44.1883C34.2379 44.8167 32.249 45.7151 30.878 47.5275C29.642 49.1633 29.0812 51.3185 29.4758 53.3282C29.8238 55.0939 30.904 56.657 32.4203 57.6177C32.5034 57.6697 32.5813 57.7164 32.6696 57.7683C34.16 58.6304 35.8634 58.8641 37.5771 58.9783C36.9643 59.0458 36.3515 59.0822 35.7439 59.0874C33.0176 59.1237 30.1198 58.5733 28.1049 56.7297C24.1633 53.1205 25.768 45.066 30.6079 42.89C33.7394 41.4775 38.8286 41.8462 42.5677 43.7002Z" fill="#452E61"/>
<path d="M44.5253 56.1898C43.0038 57.5192 41.1187 58.319 39.1245 58.7292C40.7707 57.9295 42.365 56.9947 43.6685 55.712C45.4497 53.9671 46.6234 51.4069 46.3585 48.8831C46.2131 47.4705 45.6315 46.1099 44.6084 45.1388C44.302 44.848 43.9541 44.5935 43.6425 44.3027C45.0602 45.1908 46.1975 46.3229 46.8103 47.6835C48.1034 50.5449 46.8934 54.1177 44.5253 56.1898Z" fill="#00A89D"/>
<path d="M40.5837 35.5212C40.267 34.9863 39.1349 34.6799 38.6052 35.2044C38.2053 35.4641 38.117 35.9159 38.0547 36.3832C38.0962 36.7 38.1014 36.9597 38.3611 37.2401C38.5792 37.614 39.2491 37.884 39.6594 37.775C40.1215 37.7542 40.4124 37.4634 40.6928 37.0999C40.7395 36.9856 40.7863 36.8766 40.833 36.7623C40.8486 36.6377 40.8693 36.5131 40.8849 36.3884C40.8434 36.0613 40.8434 35.8068 40.5837 35.5212Z" fill="#00A89D"/>
<path d="M61.2887 26.1111C60.2397 26.1111 60.2345 27.7469 61.2887 27.7469C62.3429 27.7469 62.3429 26.1111 61.2887 26.1111Z" fill="#00A89D"/>
<path d="M16.654 32.3638C14.9662 32.3638 14.9662 34.9863 16.654 34.9863C18.3418 34.9863 18.3418 32.3638 16.654 32.3638Z" fill="#00A89D"/>
<path d="M22.9483 38.1228C21.8733 38.1228 21.8681 39.795 22.9483 39.795C24.0285 39.795 24.0285 38.1228 22.9483 38.1228Z" fill="#00A89D"/>
<path d="M17.3965 48.5609C15.9476 47.4444 14.6857 49.2724 15.6828 50.2747C15.8646 50.4149 16.0827 50.6278 16.5397 50.6278C17.1836 50.6538 17.7756 50.0617 17.7497 49.4178C17.7185 49.1737 17.7185 48.8829 17.3965 48.5609Z" fill="#38778A"/>
<path d="M51.9882 47.3875C51.5416 47.6264 51.4948 48.4573 52.2322 48.6131C52.7879 48.7325 53.0891 48.3067 53.0891 47.9587C53.0891 47.5589 52.7152 47.0759 51.9882 47.3875Z" fill="#38778A"/>
<path d="M58.5937 38.9121C57.7005 38.9536 57.4772 40.0338 57.9705 40.4804C58.3964 40.8751 58.9261 40.7712 59.2169 40.4804C59.7777 39.9196 59.3363 38.8861 58.5937 38.9121Z" fill="#38778A"/>
<path d="M73.5187 26.1372C73.0669 26.5319 73.2175 27.4095 73.7784 27.5913C74.225 27.8249 74.952 27.4926 74.9572 26.8123C75.0403 26.1112 74.1159 25.5504 73.5187 26.1372Z" fill="#38778A"/>
<path d="M23.7687 66.7527C23.5765 66.4255 23.2182 66.2178 22.8391 66.2178C21.7174 66.2178 21.3591 67.7082 22.325 68.2846C23.2753 68.8351 24.2984 67.6718 23.7687 66.7527Z" fill="#38778A"/>
<path d="M27.7832 65.1946C27.1029 65.1946 27.1029 66.2488 27.7832 66.2488C28.4635 66.2488 28.4635 65.1946 27.7832 65.1946Z" fill="#38778A"/>
<path d="M80.7265 8.78172C80.2591 9.08812 80.2591 9.69052 80.7265 9.99691C81.3029 10.376 81.9261 9.95017 81.9261 9.38932C81.9261 8.82846 81.2978 8.40262 80.7265 8.78172Z" fill="#38778A"/>
<path d="M44.1673 19.1888C43.9699 19.5263 43.9595 19.9573 44.1932 20.3157C44.8527 21.3491 46.3432 20.8817 46.3484 19.734C46.3484 18.7525 45.0345 17.9788 44.1673 19.1888Z" fill="#29E1C2"/>
<path d="M25.3111 21.24C24.2101 21.24 24.2049 22.9537 25.3111 22.9537C26.412 22.9485 26.4172 21.24 25.3111 21.24Z" fill="#29E1C2"/>
<path d="M51.2817 19.2043C50.6014 19.2043 50.6014 20.2585 51.2817 20.2585C51.962 20.2585 51.962 19.2043 51.2817 19.2043Z" fill="#29E1C2"/>
<path d="M30.53 27.4717C30.0315 28.0118 30.3067 28.8168 30.8157 28.9829C31.2311 29.201 32.0464 28.9674 32.0464 28.1001C32.0464 27.2692 31.0234 26.9317 30.53 27.4717Z" fill="#29E1C2"/>
</svg>
