<svg width="79" height="78" viewBox="0 0 79 78" fill="none" xmlns="http://www.w3.org/2000/svg">
<path fill-rule="evenodd" clip-rule="evenodd" d="M79 47.8464L78.7143 48.8732C78.7066 48.9196 78.6912 48.9582 78.6757 49.0199C77.8959 51.6914 76.8459 54.2547 75.5565 56.6713C73.4564 60.5935 70.7232 64.1297 67.4882 67.1486C63.7204 70.6538 59.2886 73.4333 54.3936 75.3018C49.9695 76.985 45.1671 77.896 40.1486 77.896C39.4382 77.896 38.7125 77.8806 38.0176 77.842H38.0099C36.9598 77.7879 35.9175 77.6876 34.8906 77.564C28.1503 76.6838 21.935 74.1282 16.6694 70.3141C16.1752 69.959 15.6888 69.5884 15.2178 69.2178C16.1443 68.4225 18.09 68.3453 18.09 68.3453L15.3723 66.1912L8.57017 62.5315C7.26534 60.8869 6.08404 59.1266 5.04945 57.2736C4.80238 56.8335 4.56304 56.3934 4.33141 55.9378C4.33141 55.9224 4.31596 55.9147 4.30824 55.8992C4.06889 55.4128 3.83727 54.9264 3.61336 54.44C3.60564 54.44 3.60565 54.44 3.60565 54.44C2.91077 52.9035 2.30082 51.3208 1.80668 49.6994C1.4438 48.5258 1.11952 47.3291 0.864734 46.1014C0.857013 46.0937 0.857018 46.0783 0.857018 46.0706C0.679438 45.2213 0.532739 44.3488 0.409205 43.4764C0.138975 41.6156 0 39.7163 0 37.7861C0 37.3383 0.00771993 36.8904 0.0231617 36.4504C0.0386034 35.7864 0.0772031 35.1301 0.13897 34.4815C0.185295 33.833 0.254779 33.1921 0.339709 32.559C0.339709 32.5127 0.347433 32.4741 0.355154 32.4123C0.470967 31.5244 0.617665 30.652 0.802966 29.7872C1.05003 28.5365 1.35887 27.3011 1.7372 26.1044C2.23905 24.4135 2.849 22.7844 3.57476 21.2093C4.26964 19.6806 5.05716 18.1982 5.93734 16.7776C8.67825 15.326 10.4232 14.5694 10.4232 14.5694C10.4232 14.5694 57.1422 5.29662 57.868 4.50137C58.586 3.71384 62.1299 4.20797 62.1299 4.20797C64.3149 5.65178 66.3609 7.29632 68.2371 9.12617C68.6772 9.55082 69.0941 9.99091 69.5265 10.4387C69.8044 10.7398 70.0824 11.0564 70.3526 11.3729C70.8159 11.898 71.2714 12.4461 71.7038 12.9943C73.302 15.0326 74.7149 17.2177 75.8885 19.5339C76.3517 20.4218 76.7687 21.3406 77.1624 22.2748C77.1624 22.2825 77.1702 22.2903 77.1702 22.298C80.7758 36.404 76.3286 48.3637 76.3286 48.3637C77.3323 47.9931 78.2279 47.8695 79 47.8464Z" fill="url(#paint0_radial_24_1774)"/>
<path fill-rule="evenodd" clip-rule="evenodd" d="M79 47.8464L78.7143 48.8732C78.7066 48.9196 78.6912 48.9582 78.6757 49.0199C77.8959 51.6914 76.8459 54.2547 75.5565 56.6713C73.4564 60.5935 70.7232 64.1297 67.4882 67.1486C63.7204 70.6538 59.2886 73.4333 54.3936 75.3018C49.9695 76.985 45.1671 77.896 40.1486 77.896C39.4382 77.896 38.7125 77.8806 38.0176 77.842H38.0099C36.9598 77.7879 35.9175 77.6876 34.8906 77.564C28.1503 76.6838 21.935 74.1282 16.6694 70.3141C16.1752 69.959 15.6888 69.5884 15.2178 69.2178C16.1443 68.4225 18.09 68.3453 18.09 68.3453L15.3723 66.1912L8.57017 62.5315C7.26534 60.8869 6.08404 59.1266 5.04945 57.2736C4.80238 56.8335 4.56304 56.3934 4.33141 55.9378C4.33141 55.9224 4.31596 55.9147 4.30824 55.8992C4.06889 55.4128 3.83727 54.9264 3.61336 54.44C3.60564 54.44 3.60565 54.44 3.60565 54.44C2.91077 52.9035 2.30082 51.3208 1.80668 49.6994C1.4438 48.5258 1.11952 47.3291 0.864734 46.1014C0.857013 46.0937 0.857018 46.0783 0.857018 46.0706C0.679438 45.2213 0.532739 44.3488 0.409205 43.4764C0.138975 41.6156 0 39.7163 0 37.7861C0 37.3383 0.00771993 36.8904 0.0231617 36.4504C0.0386034 35.7864 0.0772031 35.1301 0.13897 34.4815C0.185295 33.833 0.254779 33.1921 0.339709 32.559C0.339709 32.5127 0.347433 32.4741 0.355154 32.4123C0.470967 31.5244 0.617665 30.652 0.802966 29.7872C1.05003 28.5365 1.35887 27.3011 1.7372 26.1044C2.23905 24.4135 2.849 22.7844 3.57476 21.2093C4.26964 19.6806 5.05716 18.1982 5.93734 16.7776C8.67825 15.326 10.4232 14.5694 10.4232 14.5694C10.4232 14.5694 57.1422 5.29662 57.868 4.50137C58.586 3.71384 62.1299 4.20797 62.1299 4.20797C64.3149 5.65178 66.3609 7.29632 68.2371 9.12617C68.6772 9.55082 69.0941 9.99091 69.5265 10.4387C69.8044 10.7398 70.0824 11.0564 70.3526 11.3729C70.8159 11.898 71.2714 12.4461 71.7038 12.9943C73.302 15.0326 74.7149 17.2177 75.8885 19.5339C76.3517 20.4218 76.7687 21.3406 77.1624 22.2748C77.1624 22.2825 77.1702 22.2903 77.1702 22.298C80.7758 36.404 76.3286 48.3637 76.3286 48.3637C77.3323 47.9931 78.2279 47.8695 79 47.8464Z" fill="url(#paint1_radial_24_1774)"/>
<path fill-rule="evenodd" clip-rule="evenodd" d="M77.8575 37.755C77.8575 39.1834 77.7803 40.5808 77.6182 41.9551C77.3866 44.0938 76.9696 46.1785 76.3829 48.1936C76.3751 48.2399 76.3597 48.2785 76.3442 48.3326C75.6108 50.8496 74.6225 53.2508 73.418 55.5207C71.4415 59.2036 68.8704 62.5236 65.8361 65.3571C62.3 68.6539 58.1307 71.2713 53.5368 73.0162C49.3752 74.599 44.8662 75.456 40.1488 75.456C39.4771 75.456 38.8054 75.4406 38.1414 75.402H38.1336C37.1454 75.3557 36.1648 75.2553 35.2074 75.1395C28.8686 74.3133 23.0393 71.9044 18.098 68.3297C17.3568 67.8046 16.6387 67.241 15.9516 66.662C15.7585 66.4998 15.5732 66.3454 15.3879 66.1755C13.5967 64.6236 11.9599 62.8864 10.4929 61.018C9.26529 59.4661 8.1612 57.8215 7.18837 56.0766C6.95674 55.6597 6.73284 55.2428 6.50893 54.8181C6.50893 54.8027 6.50121 54.795 6.49349 54.7795C6.26186 54.324 6.04568 53.8685 5.83722 53.4129C5.8295 53.4129 5.82949 53.4129 5.82949 53.4129C5.17322 51.9691 4.60188 50.4867 4.13863 48.958C3.79119 47.8616 3.49007 46.7266 3.25845 45.584C3.25073 45.5762 3.25072 45.5608 3.25072 45.5531C3.08086 44.7501 2.94188 43.9394 2.82607 43.121C2.57128 41.3684 2.44775 39.5848 2.44775 37.7704C2.44775 37.3458 2.45547 36.9289 2.47092 36.5119C2.48636 35.8943 2.52496 35.2689 2.57901 34.6666C2.62533 34.0644 2.6871 33.4545 2.77203 32.86C2.77203 32.8136 2.77975 32.775 2.78747 32.721C2.89557 31.8871 3.03454 31.0687 3.2044 30.2503C3.43602 29.069 3.72942 27.9186 4.07686 26.7913C4.54783 25.2086 5.12689 23.6721 5.80633 22.1897C6.53981 20.576 7.38139 19.0241 8.33106 17.534C8.98733 16.4994 9.68994 15.5034 10.4466 14.546C11.4966 13.1949 12.647 11.9209 13.8669 10.7242C20.6536 4.11514 29.9264 0.0539551 40.1488 0.0539551C40.5503 0.0539551 40.944 0.0616759 41.3378 0.0693968C41.7624 0.0848386 42.1794 0.10028 42.604 0.131164C43.7776 0.208373 44.9357 0.339628 46.0707 0.524929C46.0861 0.524929 46.0939 0.532649 46.1093 0.532649C47.0667 0.679346 48.0009 0.864647 48.9274 1.08855C50.1242 1.37422 51.29 1.70622 52.4404 2.10771C53.2202 2.37022 53.9846 2.66361 54.7412 2.98017C55.3049 3.21951 55.853 3.46658 56.4012 3.72909C56.4939 3.77542 56.5943 3.81402 56.6869 3.86807C60.3466 5.65931 63.6666 8.01418 66.5465 10.84C66.9634 11.2415 67.3572 11.6507 67.7586 12.0754C68.0211 12.361 68.2837 12.6544 68.5384 12.9478C68.9785 13.442 69.3955 13.9593 69.8124 14.4765C71.318 16.3836 72.6382 18.4374 73.7423 20.6224C75.0394 23.1548 76.0586 25.8494 76.7535 28.6752C77.2013 30.4588 77.5101 32.2886 77.6877 34.1571C77.8035 35.3306 77.8575 36.5351 77.8575 37.755Z" fill="url(#paint2_radial_24_1774)"/>
<path fill-rule="evenodd" clip-rule="evenodd" d="M21.7344 22.7226C21.7344 22.7226 20.7307 24.9462 21.5646 27.2007C22.3984 29.4552 24.7378 27.9574 27.5251 27.2007C30.3123 26.4441 33.1768 23.5101 34.9912 21.6957C36.7979 19.8813 38.535 17.3952 38.3806 14.9786C38.2262 12.5619 35.6861 10.9792 35.6861 10.9792C35.6861 10.9792 36.6125 9.79786 35.8327 14.523C35.0529 19.2482 33.9952 20.9391 32.9837 21.688C31.9723 22.4369 28.8917 24.2359 27.2163 25.2396C25.5331 26.2433 23.6646 27.2856 22.5528 27.0386C21.441 26.807 20.8542 24.3054 21.7344 22.7226Z" fill="url(#paint3_radial_24_1774)"/>
<path fill-rule="evenodd" clip-rule="evenodd" d="M26.8458 21.0934C26.8458 21.0934 25.4174 22.3597 25.7957 23.3865C26.174 24.4057 28.8841 23.7571 30.6213 21.5567C32.3585 19.3562 30.9841 17.5804 30.9841 17.5804C30.9841 17.5804 30.351 21.2479 28.6602 21.8964C26.9693 22.545 26.4211 22.267 26.4211 22.267C26.4211 22.267 26.1586 21.9736 26.8458 21.0934Z" fill="url(#paint4_radial_24_1774)"/>
<path fill-rule="evenodd" clip-rule="evenodd" d="M22.522 22.6839C22.522 22.6839 23.9117 21.1088 25.4945 19.6341C27.0773 18.1594 29.8182 17.5881 29.8182 17.5881C29.8182 17.5881 28.22 16.7388 26.1662 17.9355C24.1202 19.1245 22.522 22.6839 22.522 22.6839Z" fill="url(#paint5_radial_24_1774)"/>
<path fill-rule="evenodd" clip-rule="evenodd" d="M16.8394 22.7071C16.8394 22.7071 20.0668 19.1246 23.9812 17.5804C27.9034 16.0363 29.2623 15.5885 30.9918 14.1524C32.729 12.7163 34.6824 11.5736 34.6824 11.5736C34.6824 11.5736 30.8683 11.7666 25.0313 15.4649C19.2097 19.1632 16.824 21.5104 16.8394 22.7071Z" fill="url(#paint6_radial_24_1774)"/>
<path fill-rule="evenodd" clip-rule="evenodd" d="M8.97949 21.9968C8.97949 21.9968 14.5617 16.4224 18.9317 14.2296C23.3017 12.0446 26.2434 10.6085 30.1656 9.62799C34.0878 8.64744 40.1487 6.94113 40.1487 6.94113L41.245 6.39294C41.245 6.39294 28.7758 6.64773 20.5917 11.5737C12.4076 16.5073 8.97949 21.9968 8.97949 21.9968Z" fill="url(#paint7_radial_24_1774)"/>
<path fill-rule="evenodd" clip-rule="evenodd" d="M15.6658 28.4282C15.6658 28.4282 16.5923 36.1337 17.9357 36.4811C19.2792 36.8285 24.0816 36.7899 31.2234 33.138C38.3652 29.486 39.8167 30.3276 43.8161 26.2587C47.8155 22.1898 49.4369 17.5727 50.68 14.5307C51.923 11.4886 52.2782 8.01424 51.8922 6.94104C51.8922 6.94104 53.2433 7.74401 53.2433 10.7629C53.2433 13.7817 52.34 18.8466 51.0583 21.7806C49.7766 24.7145 46.4567 29.3161 42.465 31.5784C38.4656 33.8406 30.4744 38.1874 22.63 38.1257C14.7856 38.0639 16.0287 37.5003 15.218 35.9329C14.4073 34.3656 15.6658 28.4282 15.6658 28.4282Z" fill="url(#paint8_radial_24_1774)"/>
<path opacity="0.5" fill-rule="evenodd" clip-rule="evenodd" d="M3.44336 35.0065C3.44336 35.0065 4.84084 38.1103 5.62837 40.9516C6.4159 43.7928 6.26148 48.6184 9.50425 49.3673C12.747 50.124 17.2715 52.2318 19.0086 51.7067C20.7458 51.1817 27.1465 50.0313 30.6981 50.7262C34.2497 51.4211 40.7275 51.0273 42.9897 49.9001C45.2519 48.7728 50.1238 45.862 52.44 44.9819C54.7563 44.094 57.9527 41.577 60.7091 38.7743C63.4654 35.9716 63.4268 32.7829 64.1063 31.2001C64.7857 29.6173 66.1446 23.2862 65.9902 20.414C65.8358 17.5496 64.1063 12.1913 64.1063 12.1913L62.4926 10.485C62.4926 10.485 64.4846 17.843 63.5813 23.0469C62.6779 28.2507 63.5041 30.3585 59.883 35.3385C56.2619 40.3184 51.2124 44.2329 45.553 46.1245C39.9013 48.0084 36.2725 47.7845 30.3969 48.325C24.9151 48.8346 18.0899 48.4485 15.3798 47.7382C12.9478 47.1051 9.65867 45.4683 7.17254 41.4997C4.6787 37.5312 3.44336 35.0065 3.44336 35.0065Z" fill="#7D72B3"/>
<path opacity="0.4" fill-rule="evenodd" clip-rule="evenodd" d="M15.9129 26.8608C15.9129 26.8608 16.4302 35.2303 17.4957 35.9483C18.5612 36.6663 20.8157 36.9675 22.9235 36.2494C25.0313 35.5314 32.2734 33.1611 33.5165 32.4044C34.7596 31.6478 42.3801 27.8414 43.8856 26.7141C45.3835 25.5869 47.3909 21.5566 48.0703 20.7227C48.7498 19.8889 50.5951 14.9089 51.1278 13.025C51.6528 11.1411 52.0312 8.87891 52.0312 8.87891C52.0312 8.87891 52.1856 7.82115 51.2745 7.48143C50.3712 7.14171 50.2168 7.48143 50.2168 7.48143C50.2168 7.48143 50.0237 8.72449 49.2362 12.307C48.4409 15.8895 37.7784 28.1811 32.3815 31.3853C26.9924 34.5894 21.8657 34.7052 20.0127 34.4736C18.1751 34.2497 15.882 28.2969 15.9129 26.8608Z" fill="#7D72B3"/>
<path opacity="0.4" fill-rule="evenodd" clip-rule="evenodd" d="M15.6657 28.4283C15.6657 28.4283 15.8896 23.2167 17.233 21.4718C18.5765 19.7269 23.0932 16.1212 25.7646 14.7623C28.436 13.4035 32.3196 11.481 33.6708 11.1953C35.0219 10.9096 35.9793 11.1953 35.9793 11.1953C35.9793 11.1953 34.3502 10.3151 30.621 11.2571C26.8918 12.199 22.6685 15.6734 20.6302 16.7466C18.5919 17.8198 15.4264 20.4217 14.6697 21.742C13.9208 23.0546 15.6657 28.4283 15.6657 28.4283Z" fill="#7D72B3"/>
<path opacity="0.4" fill-rule="evenodd" clip-rule="evenodd" d="M6.49316 22.9387L18.059 12.8012L25.224 9.5584C25.224 9.5584 32.3118 7.14949 35.5545 6.39284C38.7973 5.6362 46.0704 5.41229 46.0704 5.41229L49.8845 5.82922C49.8845 5.82922 43.2445 2.20813 33.439 4.84867C23.6335 7.48921 17.1171 10.786 14.2449 13.4883C11.3882 16.1906 7.06451 21.6107 6.49316 22.9387Z" fill="#7D72B3"/>
<path fill-rule="evenodd" clip-rule="evenodd" d="M6.16899 23.3865C6.16899 23.3865 -0.0463191 30.8912 2.97254 35.5083C5.99141 40.1254 7.3194 46.7808 8.19958 48.3327C9.07204 49.8846 19.0783 52.2086 21.1629 51.7299C23.2398 51.2512 28.2275 49.9386 31.4857 51.2049C31.4857 51.2049 37.261 50.7107 38.9209 50.7107C40.5809 50.7107 43.5998 49.3055 44.3024 48.9504C45.005 48.5952 48.9272 47.3444 50.9346 46.5337C52.9421 45.7308 56.1617 43.2138 57.4665 42.21C58.7713 41.2063 62.1917 37.1297 62.8479 35.8789C63.5042 34.6204 65.4576 27.2856 65.9672 23.8112C66.4767 20.3445 64.9789 13.6582 63.8594 11.342C62.7321 9.03343 59.1805 6.87159 59.1805 6.87159L59.389 5.82927L62.1531 4.177C62.1531 4.177 66.9709 10.5004 67.4264 15.9513C67.6889 19.1478 68.4301 25.9808 67.5886 28.907C66.9091 31.2618 64.6083 38.172 62.6009 40.6427C60.5934 43.1134 54.5557 49.4136 51.3438 50.6412C48.1242 51.8611 38.6353 53.5057 33.0454 53.6215C28.9224 53.7064 19.8504 52.9652 15.3877 52.8185C10.925 52.6641 7.73633 49.8691 5.96053 48.4562C4.18473 47.0356 4.78696 43.1829 2.98027 40.1331C1.17359 37.0834 0.169871 33.0299 0.625402 30.8295C1.06549 28.6136 6.16899 23.3865 6.16899 23.3865Z" fill="url(#paint9_radial_24_1774)"/>
<path fill-rule="evenodd" clip-rule="evenodd" d="M17.0864 51.9538C16.129 51.7299 15.272 51.2048 14.3223 50.9655C13.7896 50.8342 13.2646 50.757 12.7396 50.6103C12.2145 50.4559 11.62 50.3556 11.0796 50.3324C9.9832 50.2938 8.84051 50.039 8.14563 49.1048C7.52796 48.2709 7.14192 47.4062 6.85624 46.4102C6.48564 45.0745 6.12276 43.7388 5.71356 42.3953C5.33523 41.16 4.8025 40.0713 4.12306 38.975C3.85283 38.5349 3.6212 38.1025 3.32781 37.6779C3.05758 37.2996 2.67925 36.9289 2.47851 36.4966L2.47079 36.4889C1.94577 35.3771 1.76047 34.1417 1.79135 32.9295C1.80679 32.2733 1.9921 31.6633 2.13107 31.0302C2.32409 30.2272 2.53256 29.5169 2.94177 28.7911C3.32009 28.1272 3.69841 27.4554 4.07674 26.776C4.92603 25.2781 5.82165 23.7803 6.87941 22.4369C8.23828 20.7228 9.75929 19.0937 11.2957 17.5418C12.1836 16.6308 13.1951 15.8355 14.2142 15.0789C15.0713 14.4458 15.8665 13.7432 16.7235 13.0946C18.1905 11.9828 19.8582 11.257 21.5027 10.4618C23.487 9.5044 25.4636 8.58561 27.525 7.82897C29.9648 6.94107 32.4818 6.23075 35.0297 5.71345C37.9328 5.12666 40.998 5.00313 43.9628 5.01857C45.5842 5.02629 47.3213 4.81783 48.8732 5.42778C49.7457 5.76749 50.7649 6.11493 51.5292 6.63995C51.7068 6.75577 51.784 6.78665 51.8921 6.94107C51.9616 7.03372 52.0002 7.16497 52.0465 7.27307C52.1623 7.55102 52.309 8.01427 52.309 8.30766C52.309 8.63194 52.1623 8.91761 52.1623 9.26505C52.1701 9.75147 52.0465 10.1916 52.0234 10.6625C52.0002 11.2107 51.8612 11.6431 51.784 12.1758C51.6219 13.1641 51.4829 14.106 51.0969 15.0403C50.541 16.3837 50.1704 17.8043 49.5604 19.1323C49.3751 19.5415 49.0508 19.8504 48.8655 20.2519C48.6879 20.6147 48.5335 20.9236 48.3251 21.271C47.9313 21.9273 47.6147 22.599 47.1747 23.2244C46.2482 24.4983 45.3139 25.8572 44.094 26.8686C42.6193 28.0963 41.0134 29.0768 39.3302 29.9724C38.2339 30.5515 37.0835 31.0225 35.9717 31.5784C34.9757 32.0725 33.9797 32.5821 32.976 33.0531C30.3972 34.2575 27.6563 35.1454 24.954 35.987C24.1742 36.2341 23.4407 36.4966 22.6377 36.6047C21.9042 36.705 21.0549 36.9444 20.3137 36.929C19.5185 36.9058 18.6846 36.7205 17.9357 36.4657C16.6463 36.0333 16.5151 34.6359 16.4224 33.47C16.3529 32.6284 16.2526 31.7096 16.0904 30.8835C15.9669 30.1886 15.9051 29.5092 15.7507 28.8066C15.5886 28.0963 15.4882 27.3705 15.4805 26.6525C15.465 25.726 15.8202 24.8612 16.0286 23.9656C16.1676 23.3865 16.2294 22.7843 16.4687 22.2284C16.8084 21.4177 17.4647 20.7151 18.1056 20.136C18.7696 19.5493 19.4181 18.9625 20.0744 18.368C20.4682 18.0051 20.9237 17.7349 21.3406 17.3951C22.0664 16.8161 22.8693 16.3605 23.6955 15.9359C24.3517 15.5962 24.8227 15.0557 25.4327 14.6542C26.0503 14.245 26.7607 13.8204 27.4247 13.4806C28.0037 13.195 28.6368 12.9942 29.2391 12.7549C29.7332 12.5619 30.1887 12.2762 30.6906 12.1063C31.1538 11.9442 31.6325 11.8979 32.0803 11.7048C32.5282 11.5195 32.9451 11.3574 33.4083 11.2339C33.9256 11.1103 34.5047 10.8942 35.0297 10.8787C36.0643 10.8633 36.5739 11.3806 36.8364 12.3843C37.1993 13.7509 36.7824 14.909 36.2882 16.1752C35.8867 17.1944 35.4544 18.2058 35.0606 19.2404C34.5433 20.6147 33.3157 21.3405 32.2811 22.2824C31.1924 23.2707 29.849 24.1509 28.5056 24.7531C28.0809 24.9462 27.6331 25.0542 27.2162 25.2318C26.861 25.394 26.5059 25.587 26.1507 25.78C25.9191 25.9035 25.7492 26.0888 25.5408 26.2355C25.3477 26.3591 25.1238 26.4363 24.9308 26.5598C24.4521 26.8764 23.9503 27.1852 23.4252 27.4168C22.9157 27.6485 21.9042 27.7797 21.5722 27.1852C21.3946 26.8841 21.4178 26.4594 21.3406 26.1197C21.248 25.7105 21.2325 25.3476 21.2325 24.923C21.2325 24.4983 21.3097 24.1895 21.3792 23.788C21.441 23.3943 21.6186 23.0854 21.7421 22.7071C22.1204 21.6262 22.8693 20.8232 23.5333 19.9276C23.9503 19.364 24.3054 18.8081 24.7918 18.283C25.5099 17.5187 26.5213 17.1403 27.5327 16.8856C28.4438 16.6616 29.795 16.3914 30.6288 16.9164C31.3391 17.3565 30.845 18.3139 30.6134 18.9084C30.4898 19.2327 30.3509 19.5724 30.2428 19.9044C30.1656 20.1515 30.1347 20.4294 29.988 20.6688C29.6946 21.1629 29.1155 21.5026 28.6754 21.8887C28.4747 22.0585 28.1581 22.2979 27.9188 22.3751C27.6177 22.4677 27.2934 22.46 26.9846 22.5372C26.8302 22.5681 26.7529 22.7611 26.5676 22.6917C26.3978 22.6376 26.3978 22.4446 26.4287 22.267C26.4595 22.1049 26.529 21.9504 26.5676 21.796C26.5754 21.7651 26.5368 21.7111 26.5445 21.6725C26.668 21.2015 27.2702 20.6147 27.5405 20.2133C27.9728 20.3908 27.6794 20.6456 27.5945 20.8309C27.5405 20.9931 27.5482 21.1398 27.5096 21.3096C27.4787 21.4486 27.2702 21.6879 27.4247 21.8346C27.525 21.935 27.8802 21.7574 27.9883 21.7188C28.9148 21.3945 29.5093 20.3831 29.795 19.4643C29.9803 18.8698 29.9494 17.8352 29.2854 17.5727C28.7913 17.3797 28.1967 17.4878 27.6794 17.4801C25.811 17.4492 24.6992 19.4489 23.7109 20.7383C23.0315 21.6107 22.5142 22.6067 22.1359 23.6413C21.8656 24.3594 21.7575 25.1006 21.5645 25.8186C21.4178 26.3514 21.248 27.1698 22.0664 27.0617C22.5451 26.9922 23.0624 26.7374 23.5179 26.583C23.9194 26.444 24.2668 26.305 24.6374 26.1043C25.2242 25.7877 25.8882 25.6951 26.4982 25.4248C26.9768 25.2087 27.4633 24.9462 27.942 24.7145C29.1773 24.12 30.374 22.9001 31.2388 21.8501C31.8101 21.1398 32.6285 20.607 33.2848 19.9662C33.972 19.2867 34.3348 18.4452 34.8058 17.619C35.2768 16.7775 35.5161 15.9668 35.7246 15.0325C35.9176 14.2064 36.4118 13.2645 36.157 12.4074C35.8867 11.5195 34.744 11.4964 34.0028 11.6276C33.3929 11.728 32.7135 11.8361 32.1344 12.0677C31.0535 12.5001 29.988 12.9556 28.9071 13.3957C27.2085 14.0983 25.8033 15.2487 24.2514 16.1984C23.4638 16.6771 22.6146 17.04 21.8811 17.6113C21.3406 18.036 20.8233 18.5301 20.306 18.9856C19.9431 19.3176 19.6266 19.6805 19.2251 19.9662C18.6923 20.3368 18.1596 20.7537 17.7581 21.271C17.4338 21.6957 17.0555 22.1975 16.8779 22.7071C16.739 23.1163 16.8702 23.4946 16.8934 23.9116C16.9243 24.4752 16.7698 25.0002 16.739 25.5561C16.7158 26.1429 16.739 26.7528 16.7467 27.3396C16.7467 28.49 16.5691 29.6173 16.5923 30.7831C16.6077 31.5012 16.7698 32.2578 16.9088 32.9604C17.0169 33.524 17.2485 34.0105 17.2872 34.5895C17.3026 34.9524 17.3644 35.4543 17.6964 35.6936C17.8585 35.8094 18.0592 35.848 18.2445 35.9175C18.4144 35.9793 18.5611 36.0333 18.7232 36.0874C18.8082 36.1183 18.9085 36.1337 19.0012 36.1646C19.0707 36.2032 19.1247 36.3113 19.2019 36.3422C19.3949 36.4194 19.6806 36.373 19.8814 36.3344C20.3446 36.2495 20.8002 36.1337 21.2557 36.0565C22.4061 35.8557 23.5797 35.8789 24.676 35.4697C25.9422 34.991 27.1158 34.3039 28.3666 33.802C30.2351 33.0376 32.2425 32.4817 34.0337 31.5166C34.8367 31.0765 35.6706 30.675 36.5044 30.2967C38.4732 29.4165 40.5347 28.6985 42.2565 27.3705C42.9205 26.8609 43.4223 26.2819 43.9859 25.6796C44.3025 25.3399 44.6499 25.0311 44.9356 24.6605C45.7772 23.5641 46.5879 22.3674 47.2364 21.1398C47.5144 20.6225 47.6842 20.0588 47.9699 19.5415C48.4177 18.7386 48.9582 18.0282 49.3674 17.2021C49.7766 16.3914 50.0159 15.5807 50.2862 14.716C50.456 14.191 50.5718 13.7586 50.5564 13.2027C50.541 12.0909 50.6568 11.1258 51.1046 10.1066C51.3516 9.55072 51.6991 8.72459 51.5215 8.09148C51.4289 7.78264 50.981 7.69771 50.7108 7.61278C50.0777 7.3966 49.4137 7.24218 48.8038 6.96423C48.2401 6.70944 47.8309 6.41605 47.2133 6.30023C46.9739 6.25391 46.7577 6.22303 46.5184 6.23075C45.9239 6.26163 45.4066 6.67856 44.8044 6.65539C44.6036 6.64767 44.4723 6.58591 44.2639 6.5473C43.955 6.49326 43.6153 6.53186 43.3142 6.52414C42.6271 6.50098 41.9708 6.36972 41.2759 6.37744C40.4652 6.38516 39.67 6.45465 38.8593 6.50098C38.1026 6.53958 37.3383 6.47781 36.5816 6.50098C36.0952 6.51642 35.7941 6.74032 35.3617 6.93335C34.9679 7.11093 34.5356 7.18041 34.1264 7.33483C33.7712 7.48153 33.4315 7.60506 33.0532 7.6205C32.5204 7.62823 31.9877 7.55102 31.4704 7.65911C30.8527 7.80581 30.1733 8.06831 29.5942 8.31538C27.8956 9.04115 26.2511 9.94449 24.4907 10.5004C23.6414 10.7629 22.7612 10.8787 21.9351 11.2184C21.6263 11.342 21.356 11.5659 21.0781 11.7512C20.5222 12.1218 19.9431 12.4692 19.3641 12.8244C18.0824 13.6351 16.8625 14.5307 15.6503 15.434C14.2142 16.4995 12.8477 17.565 11.6664 18.9239C9.59716 21.3019 7.44303 23.7108 5.65179 26.3127C4.80249 27.5404 3.84511 28.8606 3.24288 30.2272C3.22744 30.2581 3.21971 30.2813 3.20427 30.3122C2.87228 31.0997 2.69469 31.9258 2.80278 32.7828C2.80278 32.7983 2.80279 32.8137 2.81051 32.8292C2.90316 33.5318 3.21199 34.3579 3.48994 34.991C3.76789 35.6241 3.99953 36.3036 4.35469 36.9058C4.74845 37.5698 5.28891 38.118 5.57459 38.8283C5.91431 39.7085 6.23085 40.6581 6.49336 41.5769C6.83308 42.7273 7.0956 43.9241 7.31178 45.1054C7.45848 45.8388 7.57429 46.58 7.91401 47.244C8.40043 48.186 9.43502 48.5334 10.2766 49.0816C10.7244 49.375 11.0332 49.4754 11.5737 49.4985C12.3303 49.5371 13.0484 49.7224 13.7742 49.9386C15.3183 50.4173 16.8625 50.7648 18.4839 50.7416C19.449 50.7339 20.3601 50.4714 21.3097 50.3478C22.1899 50.2397 23.0778 50.1471 23.9503 50.0081C24.7455 49.8846 25.5253 49.6607 26.336 49.6607C27.1004 49.6607 27.9728 49.7842 28.714 49.9927C30.042 50.3556 31.3391 50.6567 32.7289 50.5949C33.5705 50.5717 34.3966 50.3787 35.2382 50.3247C36.0257 50.2783 36.7746 50.3942 37.5545 50.4482C38.9365 50.5331 40.2722 50.1934 41.5616 49.7688C42.4418 49.4831 43.1752 49.0584 43.9628 48.5875C44.5959 48.2169 45.2136 48.1011 45.9162 47.9158C47.2828 47.5529 48.6494 47.051 49.8847 46.3484C51.5061 45.4219 52.8418 44.063 54.4246 43.0748C55.3125 42.5189 56.3162 42.1483 57.1886 41.5538C57.9067 41.0673 58.5784 40.5037 59.1883 39.8938C59.8987 39.1757 60.5627 38.4268 61.273 37.7165C61.8134 37.1683 62.0296 36.4811 62.3462 35.8017C62.8249 34.7903 62.9947 33.7479 63.1646 32.6516C63.3499 31.5707 63.8286 30.6133 64.2918 29.6096C64.8863 28.3279 65.3959 27.1234 65.5272 25.6951C65.6275 24.6219 65.7742 23.541 65.7742 22.4523C65.7742 21.7574 65.6584 21.0857 65.5658 20.3986C65.4809 19.7654 65.3496 19.1478 65.2183 18.5224C65.0408 17.7503 65.0639 16.955 64.9249 16.1752C64.8014 15.5035 64.593 14.8009 64.4077 14.1369C64.2764 13.666 64.1065 13.1795 63.9135 12.7394C63.5661 11.9519 63.1028 11.1335 62.5392 10.4695C62.2999 10.1916 61.9987 10.1066 61.7285 9.90588C61.52 9.74375 61.4737 9.61249 61.2344 9.48896C60.9024 9.3191 60.5626 9.15696 60.2384 8.97166C59.7134 8.67054 59.1189 8.57789 58.5938 8.29222C58.092 8.02199 57.6364 7.66683 57.1578 7.35799C56.6173 7.01828 56.0691 6.78665 55.5981 6.33884C55.1349 5.89103 54.8338 5.3274 54.3859 4.87959C53.9304 4.41634 53.2819 4.11523 52.7646 3.71374C51.8689 3.01114 50.8035 2.9571 49.792 2.52473C49.2747 2.30082 48.7806 2.26994 48.2401 2.16185C47.6302 2.03831 47.2133 1.65999 46.557 1.5905C45.9779 1.52873 45.4066 1.52101 44.8352 1.35887C44.4955 1.27394 44.1712 1.18901 43.8315 1.15813C43.1521 1.09636 42.5035 1.18901 41.8318 1.2585C41.245 1.32027 40.6428 1.28939 40.056 1.28939C39.5619 1.28939 39.0446 1.33571 38.5504 1.2585C37.153 1.04232 35.6165 1.06548 34.1959 1.16585C32.8447 1.2585 31.5244 1.35887 30.2428 1.79896C29.1541 2.16957 28.0809 2.49384 27.0077 2.92621C26.2743 3.21961 25.6411 3.62881 24.954 4.00713C23.3094 4.93364 21.7961 6.06089 20.2288 7.11093C18.4762 8.27678 16.8316 9.56616 15.1408 10.8247C14.0444 11.6508 12.9249 12.4692 11.8439 13.3262C11.373 13.6968 10.9174 14.0906 10.4773 14.4921C11.5274 13.1409 12.6778 11.867 13.8977 10.6703C20.6843 4.06118 29.9571 0 40.1795 0C40.581 0 40.9748 0.00772086 41.3686 0.0154417C41.7932 0.0308835 42.2101 0.0463252 42.6348 0.0772087C43.8084 0.154417 44.9665 0.285672 46.1015 0.470973C46.1169 0.470973 46.1246 0.478694 46.1401 0.478694C47.4372 0.826134 48.7266 1.20446 50.0159 1.5905C51.0891 1.91478 52.1701 2.20817 53.2278 2.57877C53.9304 2.81812 54.6099 3.12695 55.2893 3.40491C55.8992 3.66742 56.5787 3.89132 57.15 4.2156C58.0842 4.74062 58.949 5.44322 59.806 6.07633C60.3773 6.5087 60.9101 7.00283 61.4274 7.50469C62.1532 8.21501 62.8017 9.00254 63.3499 9.84412C64.6393 11.8438 65.6661 14.106 66.1526 16.43C66.5695 18.3911 66.5077 20.5144 66.4305 22.5141C66.3919 23.5796 66.1989 24.7531 65.9827 25.8032C65.7434 26.9536 65.3342 28.0345 65.2183 29.2235C65.1643 29.8026 65.2569 30.4048 65.1643 30.9762C65.0871 31.4471 64.9095 31.9027 64.8169 32.3659C64.6161 33.3619 64.3227 34.327 63.8595 35.2381C63.2418 36.4889 62.3925 37.5235 61.4969 38.5967C60.4854 39.8011 59.4045 40.9515 58.3545 42.1328C57.2967 43.3218 56.0228 44.2715 54.6639 45.0822C53.6061 45.7153 52.5252 46.4797 51.3671 46.9275C50.2862 47.3599 49.0586 47.9698 47.8927 48.1011C47.0048 48.186 46.2945 48.5257 45.5687 49.0662C45.1286 49.3827 44.8044 49.8151 44.3951 50.1548C44.0323 50.4636 43.5999 50.564 43.1598 50.7107C42.1175 51.0582 41.0983 50.9809 40.0097 50.9809C38.4578 50.9809 36.9291 51.1354 35.3849 51.2898C34.6051 51.367 33.833 51.4365 33.0532 51.3824C32.3506 51.3438 31.6634 51.1585 30.9685 51.0736C30.1965 50.9809 29.4244 50.9655 28.66 50.842C28.0578 50.7416 27.5791 50.7339 26.9614 50.8111C26.4673 50.8651 25.9731 50.8111 25.479 50.8497C24.9694 50.896 24.4676 51.0118 23.958 51.0813C21.6263 51.4442 19.449 52.5097 17.0864 51.9538Z" fill="#00C4FF"/>
<path fill-rule="evenodd" clip-rule="evenodd" d="M15.2178 69.2022C15.2178 69.2022 24.0427 70.7541 28.0576 70.6383C34.1262 70.4607 41.1136 71.2173 46.5414 71.364C51.9691 71.5184 61.4581 67.0635 63.1953 66.2451C64.9325 65.4267 69.1172 63.0409 72.7692 58.9875C76.4212 54.934 77.865 48.3326 77.865 48.3326H76.3439C76.3439 48.3326 75.7649 51.1894 73.5644 54.4013C72.2442 56.3237 70.2985 58.0146 67.6425 60.3077C63.8284 63.6045 58.8562 66.1447 53.8453 67.3955C47.1745 69.0555 41.2448 68.5999 37.1528 69.2099C31.2309 70.0901 18.0899 67.9977 18.0899 67.9977L15.2178 69.2022Z" fill="url(#paint10_radial_24_1774)"/>
<path fill-rule="evenodd" clip-rule="evenodd" d="M12.8862 64.8245C12.8862 64.8245 14.2914 68.4842 15.2179 69.1945C15.2179 69.1945 17.1559 69.3103 18.0901 68.322L15.3724 66.1679L12.8862 64.8245Z" fill="url(#paint11_radial_24_1774)"/>
<path fill-rule="evenodd" clip-rule="evenodd" d="M77.9811 41.5074C77.9811 41.5074 78.923 45.6458 79.0002 47.8463C79.0002 47.8463 77.5255 48.7728 76.3442 48.3327C76.3442 48.3327 77.734 43.2678 77.9811 41.5074Z" fill="url(#paint12_radial_24_1774)"/>
<path fill-rule="evenodd" clip-rule="evenodd" d="M52.4321 2.09229C52.4321 2.09229 60.2997 2.87981 62.145 4.1692C62.145 4.1692 60.8402 5.62845 59.3809 5.82147C59.3809 5.82147 52.9958 2.28531 52.4321 2.09229Z" fill="#FF61C7"/>
<path fill-rule="evenodd" clip-rule="evenodd" d="M5.95264 16.7388L9.17997 16.2292L10.4462 14.5306C10.4385 14.5384 8.12992 15.5498 5.95264 16.7388Z" fill="#FF61C7"/>
<path opacity="0.5" fill-rule="evenodd" clip-rule="evenodd" d="M8.57031 62.5082C8.57031 62.5082 23.8345 66.94 35.7478 67.1639C47.6611 67.3878 52.1392 64.7396 57.289 62.7476C62.4389 60.7556 70.9009 56.1848 73.4488 52.8185C75.9967 49.4445 77.981 41.5074 77.981 41.5074C77.981 41.5074 75.5335 53.413 73.418 55.5208C71.3024 57.6286 61.8444 63.9984 60.1844 64.8322C58.5244 65.6583 54.0154 69.0864 45.8621 68.129C45.8621 68.129 40.3803 68.9011 38.3961 68.7467C36.4118 68.5923 33.3312 70.592 27.6795 68.7699C27.6795 68.7699 19.8119 68.3761 18.0902 67.9978C16.3684 67.6194 8.57031 62.5082 8.57031 62.5082Z" fill="#54469B"/>
<path fill-rule="evenodd" clip-rule="evenodd" d="M12.2764 46.4874C12.2764 46.4874 24.9309 48.6801 34.0956 47.7459C43.2602 46.8117 48.217 44.5186 50.8267 42.8123C53.4441 41.106 58.563 35.6319 60.4778 33.138C62.3926 30.6442 63.3577 24.4211 63.3577 24.4211C63.3577 24.4211 63.7051 30.5052 62.1378 33.138C60.5704 35.7708 55.1967 40.7817 53.004 42.2409C50.8113 43.7002 44.5187 47.1514 41.2374 47.7459C37.956 48.3404 32.5359 50.0004 28.606 49.2824C24.6915 48.5566 15.1717 48.6801 12.2764 46.4874Z" fill="#B04FE2"/>
<path fill-rule="evenodd" clip-rule="evenodd" d="M29.8179 66.7393C29.8179 66.7393 42.9897 65.8359 47.5141 64.8245C52.0385 63.8208 57.9836 61.3733 62.1452 59.8445C66.3067 58.3158 69.4491 55.2969 71.7422 53.6215C74.0353 51.9461 76.977 44.9741 76.977 44.9741C76.977 44.9741 75.1008 51.8843 72.2209 54.1388C69.341 56.3933 61.9676 60.524 53.6368 64.2223C44.3794 68.3298 37.1836 67.1639 29.8179 66.7393Z" fill="#8B40E0"/>
<path fill-rule="evenodd" clip-rule="evenodd" d="M75.7031 50.2011C75.9115 49.5757 76.1355 48.9503 76.3362 48.3326C75.6027 50.8496 74.6144 53.2508 73.41 55.5208L73.3868 55.5439C73.0394 55.8837 72.607 56.1539 72.2827 56.5322C71.9507 56.9028 71.6573 57.2811 71.2945 57.6286C69.5727 59.3349 67.6116 60.7941 65.581 62.1144C63.4964 63.4733 61.4117 64.7627 59.1264 65.7587C57.3737 66.523 55.5825 67.1716 53.7295 67.6426C52.2393 68.0209 50.6488 68.1907 49.1124 68.2602C48.3326 68.2988 47.5682 68.4301 46.7961 68.4996C45.831 68.5999 44.8427 68.5845 43.9008 68.7544C42.264 69.0555 40.5731 69.2717 38.9131 69.3566C37.4847 69.4338 36.0718 69.6345 34.6435 69.6345C32.8136 69.6268 30.9992 69.3411 29.1694 69.3489C27.3936 69.3643 25.6023 69.2871 23.8342 69.125C22.7765 69.0246 21.7419 68.8238 20.6996 68.7003C19.8194 68.5999 18.9624 68.4069 18.0899 68.3065C17.3487 67.7815 16.6307 67.2179 15.9435 66.6388C15.7505 66.4767 15.5652 66.3223 15.3799 66.1524C16.3836 66.469 17.3796 66.8164 18.391 67.133C19.8039 67.5808 21.4022 67.8433 22.8768 68.0209C24.089 68.1753 25.5405 68.2834 26.7373 67.9823C27.9803 67.6734 28.8991 68.0672 30.0341 68.5305C30.5591 68.7466 31.0919 68.847 31.64 69.0091C32.4121 69.2331 32.9835 69.1867 33.771 69.0786C34.4659 68.9937 35.1839 68.8702 35.8788 68.7235C36.4656 68.5999 37.0292 68.3606 37.6314 68.2757C38.666 68.1521 39.7624 67.9977 40.797 68.183C41.9937 68.3915 43.175 68.5073 44.3795 68.322C45.6303 68.1135 46.7884 67.9977 48.0546 67.99C48.487 67.99 48.8344 68.0286 49.2514 68.0981C49.7146 68.1753 50.1393 68.0518 50.5948 68.0054C51.4209 67.9205 52.1467 67.797 52.9497 67.5499C53.6831 67.3183 54.3857 66.994 55.0961 66.7238C56.4935 66.1987 57.7598 65.6815 59.0028 64.8399C60.0451 64.1373 61.2033 63.6431 62.261 62.9714C63.2725 62.3151 64.1681 61.4967 65.2027 60.8791C66.2913 60.2151 67.2873 59.4044 68.3297 58.6632C68.9936 58.1922 69.5804 57.6363 70.2367 57.1576C70.8081 56.7407 71.4412 56.4164 71.9739 55.9454C72.8927 55.1656 73.742 54.324 74.3365 53.2663C74.9001 52.2935 75.3634 51.2666 75.7031 50.2011Z" fill="#00C4FF"/>
<path fill-rule="evenodd" clip-rule="evenodd" d="M35.2998 29.2389C35.2998 29.2389 44.395 21.7883 48.2245 14.5306C48.2245 14.5384 37.6161 25.4248 35.2998 29.2389Z" fill="#FF77F4"/>
<path fill-rule="evenodd" clip-rule="evenodd" d="M25.7334 38.118C25.7334 38.118 31.4855 38.1566 37.8397 35.5083C44.194 32.8601 47.3827 27.386 47.3827 27.386C47.3827 27.386 43.0822 31.4935 38.3956 33.7943C33.7091 36.0951 30.1652 36.6588 25.7334 38.118Z" fill="#EA9CF4"/>
<path fill-rule="evenodd" clip-rule="evenodd" d="M48.4482 26.0734C48.4482 26.0734 49.0891 24.4289 50.3012 21.5567C51.5057 18.6768 52.4554 17.1404 52.4554 17.1404C52.4554 17.1404 52.0693 21.5258 48.4482 26.0734Z" fill="#EA9CF4"/>
<path fill-rule="evenodd" clip-rule="evenodd" d="M23.7646 53.2741C23.7646 53.2741 31.7557 55.2121 42.1558 53.2741C52.5635 51.3362 53.0113 50.7031 55.8758 48.4563C58.7402 46.2095 60.7785 43.3296 61.9058 42.241C63.033 41.1523 64.4614 37.3768 64.4614 37.3768C64.4614 37.3768 61.5197 42.6656 57.3041 46.2095C53.0885 49.7534 49.6219 51.4829 42.5341 52.5406C35.4463 53.5907 27.3008 53.4826 23.7646 53.2741Z" fill="#D374F4"/>
<path fill-rule="evenodd" clip-rule="evenodd" d="M30.7754 70.6151C30.7754 70.6151 38.0098 71.2405 40.9515 71.8427C43.8932 72.445 49.5448 72.4218 52.7876 71.2251C56.0304 70.0283 62.4541 66.5925 62.4541 66.5925C62.4541 66.5925 56.4627 69.9588 49.3209 70.7078C42.1791 71.4644 37.8323 70.2599 30.7754 70.6151Z" fill="#D374F4"/>
<path fill-rule="evenodd" clip-rule="evenodd" d="M64.5542 65.5348C64.5542 65.5348 69.1481 62.4464 71.4026 60.4004C71.4103 60.4004 69.0014 63.6972 64.5542 65.5348Z" fill="#D374F4"/>
<path fill-rule="evenodd" clip-rule="evenodd" d="M29.6479 26.2587C29.6479 26.2587 34.8904 22.3133 36.5581 19.4566C38.2258 16.6076 38.388 14.9785 38.388 14.9785C38.388 14.9785 39.1292 17.7503 35.9791 21.2788C32.8289 24.8149 29.6479 26.2587 29.6479 26.2587Z" fill="#F2C4F8"/>
<path opacity="0.5" fill-rule="evenodd" clip-rule="evenodd" d="M17.4029 23.5024C16.9782 25.4249 16.5459 27.386 17.2021 29.239C17.8584 31.092 18.8621 32.3042 19.8195 32.4045C20.7769 32.5049 22.1821 30.2427 22.128 29.5864C22.074 28.9301 20.5684 27.2238 20.4681 25.5175C20.3677 23.8112 22.2284 21.2942 22.128 20.3368C22.0277 19.3871 18.0977 20.3368 17.4029 23.5024Z" fill="url(#paint13_linear_24_1774)"/>
<path opacity="0.5" fill-rule="evenodd" clip-rule="evenodd" d="M18.2523 15.6348C17.6192 14.9554 13.3805 18.9239 10.4388 21.9968C7.49715 25.062 4.57866 29.0846 4.32387 31.6479C4.06908 34.2112 6.1846 38.0871 10.0064 41.4997C13.8283 44.9201 23.7728 48.0316 26.1662 46.6264C28.5597 45.2212 27.6795 40.8435 25.7261 39.7934C23.7805 38.7357 17.4416 40.8666 14.4768 37.7474C11.512 34.6281 12.8477 30.4434 13.2183 26.9227C13.6739 22.6145 15.025 18.9779 16.2835 17.8738C17.5497 16.7698 18.2523 15.6348 18.2523 15.6348Z" fill="url(#paint14_linear_24_1774)"/>
<path fill-rule="evenodd" clip-rule="evenodd" d="M5.25779 28.907C4.43938 31.6865 4.339 34.659 6.05304 36.9444C7.76707 39.2298 9.05646 37.5157 9.65869 31.949C10.2609 26.3745 9.91348 22.5681 9.91348 22.5681C9.91348 22.5681 6.29239 25.4094 5.25779 28.907Z" fill="#FFFFF8"/>
<path fill-rule="evenodd" clip-rule="evenodd" d="M8.05273 38.5657C6.8946 39.6389 9.65868 41.7621 10.1065 40.743C10.5543 39.7161 8.80166 37.8708 8.05273 38.5657Z" fill="#F5CEFA"/>
<path fill-rule="evenodd" clip-rule="evenodd" d="M4.98775 46.9738C4.87966 48.7418 5.88338 50.7493 8.97173 51.8997C12.0601 53.0578 14.4767 52.7412 14.4767 52.7412C14.4767 52.7412 10.8633 52.0232 8.87135 50.6334C6.89481 49.2437 4.98775 46.9738 4.98775 46.9738Z" fill="#F5CEFA"/>
<path fill-rule="evenodd" clip-rule="evenodd" d="M17.6579 23.7802C16.6387 22.4291 17.9667 20.5838 19.8352 19.4488C21.7036 18.3138 21.9275 18.6536 21.526 19.6496C21.1245 20.6378 20.5146 22.7379 19.6421 23.7802C18.762 24.8303 18.2601 24.5755 17.6579 23.7802Z" fill="#FFFFF8"/>
<path fill-rule="evenodd" clip-rule="evenodd" d="M24.3747 21.4331C23.9887 20.7691 24.7685 18.8389 25.834 19.0165C26.8994 19.1941 26.6369 19.6187 26.1428 20.3213C25.7645 20.8541 24.7376 22.0585 24.3747 21.4331Z" fill="#FFFFF8"/>
<path fill-rule="evenodd" clip-rule="evenodd" d="M32.0956 24.7377C31.7327 23.9888 34.7052 21.6957 35.1067 21.935C35.5082 22.1744 35.2457 23.3865 34.5508 23.8421C33.8637 24.2976 32.2191 25.0002 32.0956 24.7377Z" fill="#FFFFF8"/>
<defs>
<radialGradient id="paint0_radial_24_1774" cx="0" cy="0" r="1" gradientUnits="userSpaceOnUse" gradientTransform="translate(15.0475 23.6792) scale(61.6197 61.6197)">
<stop offset="0.00558659" stop-color="#FF9AFF"/>
<stop offset="0.093" stop-color="#FB94FF"/>
<stop offset="0.2093" stop-color="#F183FF"/>
<stop offset="0.3418" stop-color="#E068FF"/>
<stop offset="0.4864" stop-color="#C841FF"/>
<stop offset="0.639" stop-color="#A910FF"/>
<stop offset="0.6844" stop-color="#9F00FF"/>
<stop offset="0.7432" stop-color="#9900F8"/>
<stop offset="0.8282" stop-color="#8700E5"/>
<stop offset="0.9287" stop-color="#6A00C6"/>
<stop offset="1" stop-color="#5200AB"/>
</radialGradient>
<radialGradient id="paint1_radial_24_1774" cx="0" cy="0" r="1" gradientUnits="userSpaceOnUse" gradientTransform="translate(15.0475 23.6792) scale(61.6197 61.6197)">
<stop offset="0.00558659" stop-color="#FF9AFF"/>
<stop offset="0.093" stop-color="#FB94FF"/>
<stop offset="0.2093" stop-color="#F183FF"/>
<stop offset="0.3418" stop-color="#E068FF"/>
<stop offset="0.4864" stop-color="#C841FF"/>
<stop offset="0.639" stop-color="#A910FF"/>
<stop offset="0.6844" stop-color="#9F00FF"/>
<stop offset="0.7432" stop-color="#9900F8"/>
<stop offset="0.8282" stop-color="#8700E5"/>
<stop offset="0.9287" stop-color="#6A00C6"/>
<stop offset="1" stop-color="#5200AB"/>
</radialGradient>
<radialGradient id="paint2_radial_24_1774" cx="0" cy="0" r="1" gradientUnits="userSpaceOnUse" gradientTransform="translate(16.7951 20.1135) scale(60.5715 60.5715)">
<stop offset="0.00558659" stop-color="#FF9AFF"/>
<stop offset="0.093" stop-color="#FB94FF"/>
<stop offset="0.2093" stop-color="#F183FF"/>
<stop offset="0.3418" stop-color="#E068FF"/>
<stop offset="0.4864" stop-color="#C841FF"/>
<stop offset="0.639" stop-color="#A910FF"/>
<stop offset="0.6844" stop-color="#9F00FF"/>
<stop offset="0.7432" stop-color="#9900F8"/>
<stop offset="0.8282" stop-color="#8700E5"/>
<stop offset="0.9287" stop-color="#6A00C6"/>
<stop offset="1" stop-color="#5200AB"/>
</radialGradient>
<radialGradient id="paint3_radial_24_1774" cx="0" cy="0" r="1" gradientUnits="userSpaceOnUse" gradientTransform="translate(24.7605 13.7076) scale(13.544)">
<stop stop-color="white"/>
<stop offset="1" stop-color="#623964"/>
</radialGradient>
<radialGradient id="paint4_radial_24_1774" cx="0" cy="0" r="1" gradientUnits="userSpaceOnUse" gradientTransform="translate(26.9154 18.6035) scale(4.71182)">
<stop stop-color="white"/>
<stop offset="1" stop-color="#623964"/>
</radialGradient>
<radialGradient id="paint5_radial_24_1774" cx="0" cy="0" r="1" gradientUnits="userSpaceOnUse" gradientTransform="translate(24.0176 18.1673) scale(4.96498 4.96499)">
<stop stop-color="white"/>
<stop offset="1" stop-color="#623964"/>
</radialGradient>
<radialGradient id="paint6_radial_24_1774" cx="0" cy="0" r="1" gradientUnits="userSpaceOnUse" gradientTransform="translate(20.5058 13.3856) scale(11.4689 11.4689)">
<stop stop-color="white"/>
<stop offset="1" stop-color="#623964"/>
</radialGradient>
<radialGradient id="paint7_radial_24_1774" cx="0" cy="0" r="1" gradientUnits="userSpaceOnUse" gradientTransform="translate(15.6035 8.92786) scale(19.4451 19.4451)">
<stop stop-color="white"/>
<stop offset="1" stop-color="#623964"/>
</radialGradient>
<radialGradient id="paint8_radial_24_1774" cx="0" cy="0" r="1" gradientUnits="userSpaceOnUse" gradientTransform="translate(22.8106 12.0077) scale(27.0943 27.0943)">
<stop stop-color="white"/>
<stop offset="1" stop-color="#623964"/>
</radialGradient>
<radialGradient id="paint9_radial_24_1774" cx="0" cy="0" r="1" gradientUnits="userSpaceOnUse" gradientTransform="translate(14.362 12.2071) scale(45.7748 45.7748)">
<stop stop-color="white"/>
<stop offset="1" stop-color="#623964"/>
</radialGradient>
<radialGradient id="paint10_radial_24_1774" cx="0" cy="0" r="1" gradientUnits="userSpaceOnUse" gradientTransform="translate(28.083 52.073) scale(36.0771 36.0771)">
<stop stop-color="#FFFF4A"/>
<stop offset="1" stop-color="#360038"/>
</radialGradient>
<radialGradient id="paint11_radial_24_1774" cx="0" cy="0" r="1" gradientUnits="userSpaceOnUse" gradientTransform="translate(13.8766 65.9923) scale(3.89372 3.89372)">
<stop stop-color="#6D00C2"/>
<stop offset="0.3995" stop-color="#6600BC"/>
<stop offset="0.976" stop-color="#5300AC"/>
<stop offset="1" stop-color="#5200AB"/>
</radialGradient>
<radialGradient id="paint12_radial_24_1774" cx="0" cy="0" r="1" gradientUnits="userSpaceOnUse" gradientTransform="translate(76.8498 43.3525) scale(4.0669 4.06689)">
<stop stop-color="#1F0081"/>
<stop offset="0.73" stop-color="#260087"/>
<stop offset="1" stop-color="#2A008B"/>
</radialGradient>
<linearGradient id="paint13_linear_24_1774" x1="16.8625" y1="26.1964" x2="22.1298" y2="26.1964" gradientUnits="userSpaceOnUse">
<stop stop-color="#BDFFE8"/>
<stop offset="0.2005" stop-color="#8BBBAA"/>
<stop offset="0.4155" stop-color="#5A796E"/>
<stop offset="0.6108" stop-color="#33453F"/>
<stop offset="0.7795" stop-color="#171F1D"/>
<stop offset="0.9148" stop-color="#060808"/>
<stop offset="1"/>
</linearGradient>
<linearGradient id="paint14_linear_24_1774" x1="4.30912" y1="31.2686" x2="27.613" y2="31.2686" gradientUnits="userSpaceOnUse">
<stop stop-color="#BDFFE8"/>
<stop offset="0.2005" stop-color="#8BBBAA"/>
<stop offset="0.4155" stop-color="#5A796E"/>
<stop offset="0.6108" stop-color="#33453F"/>
<stop offset="0.7795" stop-color="#171F1D"/>
<stop offset="0.9148" stop-color="#060808"/>
<stop offset="1"/>
</linearGradient>
</defs>
</svg>
