<svg width="108" height="118" viewBox="0 0 108 118" fill="none" xmlns="http://www.w3.org/2000/svg">
<path opacity="0.92" fill-rule="evenodd" clip-rule="evenodd" d="M102.993 59.4283C102.993 73.4689 97.0404 86.1126 87.5045 94.9804C82.9492 99.2219 77.584 102.583 71.6721 104.84C66.3069 106.875 60.5064 107.988 54.4326 107.988C52.2764 107.988 50.1506 107.847 48.0652 107.573C46.152 107.33 44.259 106.956 42.4166 106.49C38.0434 105.377 33.9132 103.666 30.0968 101.449C27.6774 100.042 25.3896 98.4424 23.2638 96.6507C18.2428 92.4496 14.0822 87.2363 11.0858 81.3446C9.21304 77.6295 7.79582 73.6613 6.92524 69.4906C6.91512 69.4805 6.91512 69.4602 6.91512 69.4501C6.23687 66.2107 5.88257 62.86 5.88257 59.4283C5.88257 49.8418 8.65628 40.9032 13.4546 33.3716C15.4792 30.1728 17.8784 27.2371 20.5913 24.6051C29.3376 16.1018 41.2727 10.858 54.4427 10.858C55.5056 10.858 56.5584 10.8884 57.6011 10.9593C63.1182 11.3136 68.372 12.5891 73.2311 14.6339C74.0814 14.9882 74.9115 15.3729 75.7416 15.7677C79.2644 17.4886 82.5442 19.6246 85.5305 22.125C86.5327 22.955 87.5045 23.8357 88.446 24.7468C88.78 25.0708 89.1141 25.4149 89.438 25.749C97.8199 34.4852 102.993 46.3494 102.993 59.4283Z" fill="url(#paint0_radial_24_1772)"/>
<path fill-rule="evenodd" clip-rule="evenodd" d="M99.6827 59.4282C99.6827 72.5173 94.1353 84.2904 85.2473 92.5508C81.0057 96.5089 76.0049 99.6369 70.4879 101.742C65.4972 103.646 60.0814 104.678 54.4227 104.678C52.4183 104.678 50.4342 104.547 48.4906 104.293C46.7089 104.061 44.9475 103.716 43.2266 103.281C39.147 102.239 35.3003 100.649 31.7471 98.5841C29.4896 97.2782 27.3638 95.7901 25.3797 94.1097C20.7029 90.1921 16.8257 85.3432 14.0318 79.8464C12.2805 76.3843 10.9645 72.6793 10.1547 68.8022C10.1445 68.792 10.1445 68.7718 10.1445 68.7617C9.51692 65.745 9.18286 62.617 9.18286 59.4181C9.18286 50.4896 11.7744 42.1584 16.2386 35.133C18.1316 32.1568 20.3688 29.4236 22.8894 26.9637C31.0385 19.0374 42.1637 14.1581 54.4328 14.1581C55.4248 14.1581 56.3966 14.1885 57.3786 14.2492C62.5211 14.5832 67.4206 15.7676 71.9456 17.6708C72.7352 18.0048 73.5147 18.3591 74.284 18.7337C77.574 20.3432 80.6312 22.3274 83.4049 24.6557C84.3362 25.425 85.2473 26.2551 86.1178 27.1054C86.4317 27.4091 86.7354 27.7229 87.0492 28.0367C94.8641 36.1757 99.6827 47.2401 99.6827 59.4282Z" fill="url(#paint1_radial_24_1772)"/>
<path opacity="0.4" fill-rule="evenodd" clip-rule="evenodd" d="M99.6825 59.4283C99.6825 72.5173 94.1351 84.2904 85.247 92.5508C81.0055 96.5089 76.0047 99.6369 70.4877 101.742C65.497 103.646 60.0812 104.678 54.4224 104.678C52.4181 104.678 50.434 104.547 48.4903 104.294C42.4469 103.504 36.7881 101.51 31.7469 98.5841C33.2451 98.1994 34.7129 97.6832 36.2314 97.3086C39.8352 96.3773 43.2669 95.3346 46.9719 94.9196C48.4499 94.7475 50.7579 94.1604 50.8186 92.3787C50.8389 91.8725 50.7377 91.741 51.0515 91.4575C51.3957 91.1538 51.8107 91.2955 52.2359 91.2044C53.2887 90.9716 54.1289 89.8884 54.797 89.1191C55.8903 87.8537 57.0747 86.6592 58.3198 85.5558C60.7493 83.43 63.9583 82.4379 65.5173 79.3807C65.9424 78.5405 65.9728 77.6801 66.1854 76.7791C66.4283 75.7668 67.1775 75.0785 68.0582 74.5723C69.1514 73.9548 70.3257 73.7321 71.3076 72.8818C72.2288 72.0922 72.6742 70.8673 73.0387 69.7537C73.6359 67.9012 73.5347 66.0285 73.7979 64.1355C73.9295 63.1839 74.2129 62.2526 74.2433 61.2808C74.2939 60.3495 73.9093 59.6307 73.6056 58.7601C73.0893 57.2923 72.4009 55.7738 71.7733 54.3465C71.5303 53.81 71.176 53.3646 70.7407 52.9698C70.1131 52.3826 69.5564 51.7246 68.9186 51.1578C68.4732 50.7528 67.9063 50.4998 67.471 50.0847C67.1268 49.7608 66.8434 49.3255 66.5296 48.9813C65.9424 48.3638 65.3553 47.7159 64.6062 47.3009C62.8144 46.3088 61.7515 44.5069 59.6459 44.1425C57.0848 43.7072 54.9995 40.974 52.2865 41.9357C50.5352 42.5532 48.8143 43.2213 46.982 43.6971C45.8077 43.9906 44.4715 43.9603 43.358 44.4057C42.6595 44.679 41.9205 45.2763 41.4144 45.833C40.6551 46.6732 40.3514 47.807 39.7137 48.7282C39.2379 49.4166 38.9241 50.0847 38.509 50.8237C37.7093 52.2915 37.7903 53.648 37.7903 55.2981C37.7903 56.1686 37.6992 57.0898 37.8004 57.9604C37.9017 59.0233 38.4179 59.7724 39.0658 60.5924C39.4505 61.0783 39.7137 61.9185 40.1895 62.3133C40.4425 62.5158 40.6652 62.455 40.9386 62.5664C41.3941 62.7689 41.5561 62.9511 41.9509 63.2446C43.1353 64.1355 44.3197 64.9757 45.7774 65.2996C46.5467 65.4616 47.225 65.5831 47.9235 65.8969C48.4802 66.15 49.2091 66.322 49.8468 66.3828C51.3653 66.5346 52.6914 66.0082 53.8353 65.0769C54.554 64.4999 55.1108 64.0342 55.6676 63.275C55.9713 62.8498 56.1636 62.5968 56.5989 62.3437C56.8925 62.1716 57.2164 61.9793 57.5707 62.0198C57.8643 62.0602 58.168 62.4449 58.4919 62.2526C58.7551 62.0906 58.9171 61.2403 59.0183 60.9872C59.2005 60.5317 59.322 59.9648 59.5346 59.5295C59.899 58.7601 60.5064 58.9322 61.2454 58.9221C61.7616 58.9221 62.3994 58.8715 62.7334 58.4261C63.0371 58.0009 62.9663 57.0493 62.7334 56.6242C62.3893 55.9966 61.4883 55.3791 60.9923 54.8628C60.5975 54.4579 60.2837 54.0226 59.98 53.5569C59.3928 52.6458 59.1499 51.016 57.9048 50.7427C57.4087 50.6314 56.7507 50.7225 56.2446 50.7225C55.6574 50.7326 55.2525 50.5807 54.6856 50.4593C53.8151 50.2568 53.0255 49.9936 52.1144 49.9835C50.9907 49.9632 50.029 50.3074 48.9965 50.7427C48.5612 50.9249 48.1968 50.8338 47.7919 50.9755C47.2857 51.1476 46.5366 52.17 46.4657 52.6458C46.2936 53.6784 46.6783 54.6806 47.6704 55.0956C47.9943 55.2272 48.7535 55.2879 48.9864 55.5511C49.3002 55.9054 49.037 56.361 48.875 56.7659C48.4701 57.7883 48.6827 59.0132 49.9582 59.2056C50.8186 59.327 51.6588 58.7804 52.3776 58.4463C52.985 58.1426 53.977 58.0616 53.977 57.2721C53.9264 57.6466 53.2988 57.5049 52.9951 57.5049C52.3675 57.5049 51.9828 57.4948 51.4868 57.0898C51.011 56.695 50.9604 56.3711 50.768 55.8143C50.687 55.5815 50.5352 55.2879 50.3935 55.0754C50.2922 54.9235 49.9582 54.7109 49.8974 54.549C49.5533 53.6379 52.3371 53.2127 52.8635 53.152C54.0276 53.0204 54.8274 53.8505 55.4955 54.7312C55.789 55.1361 56.3762 55.6827 56.3458 56.1686C56.3256 56.6242 55.9409 57.4239 55.7587 57.8592C55.5663 58.3147 55.4246 58.7601 55.2728 59.1853C55.0804 59.7421 54.797 59.8433 54.3111 60.1369C53.8353 60.4304 53.481 60.8455 53.066 61.2099C52.6205 61.6148 52.0536 61.6452 51.4766 61.7869C50.6162 61.9995 49.857 61.5339 48.9864 61.5946C48.2676 61.6351 47.6501 62.04 46.9415 62.0906C45.4534 62.1817 44.1273 62.0096 43.611 60.3899C43.3782 59.7016 43.5706 59.3878 43.9957 58.9525C44.4411 58.4868 44.2893 58.0617 44.0666 57.515C43.8034 56.8773 43.4997 56.2598 43.3782 55.5714C43.2669 54.883 43.6718 54.1035 43.7933 53.4051C43.8945 52.8179 43.611 52.0081 43.8034 51.4614C43.9755 50.9755 44.9777 50.4795 45.3927 50.1454C45.9292 49.7203 46.6682 49.5381 47.2958 49.2141C48.0551 48.8092 48.5916 48.9408 49.3812 48.7991C50.0189 48.6877 50.3631 48.1917 50.9401 47.9589C51.5677 47.7058 52.4383 47.8374 53.1166 47.8475C53.8758 47.8678 54.2706 48.1006 54.9286 48.4347C55.5562 48.7485 56.113 49.2344 56.852 49.3255C57.7023 49.4166 58.583 49.2546 59.4232 49.2951C60.2735 49.3457 60.557 49.781 61.2049 50.2264C61.9135 50.7123 62.3893 50.9958 62.9055 51.7246C63.1586 52.0688 63.2801 52.4839 63.523 52.8179C63.7964 53.1925 63.9988 53.3949 64.1709 53.8404C64.4139 54.4579 64.7277 54.9944 64.8896 55.6321C64.9807 56.0168 65.1225 56.3306 65.0921 56.7355C65.0415 57.2417 64.839 57.6669 64.8289 58.1933C64.8087 59.3574 64.3936 60.2179 63.8773 61.2605C63.3611 62.283 62.9359 63.3661 62.45 64.3987C62.1261 65.1073 62.0552 66.5144 61.1036 66.6865C60.6076 66.7776 60.1217 66.6865 59.6459 66.9395C59.1499 67.1926 59.079 67.7696 58.6944 68.1341C58.3198 68.4782 57.8541 68.3669 57.3581 68.3669C56.5989 68.3669 55.9409 68.4782 55.2424 68.7921C54.4123 69.1464 53.8454 69.9866 53.0153 70.4016C52.3573 70.7357 51.5475 71.0394 50.8389 71.2115C50.3125 71.3431 49.7962 71.2115 49.2597 71.3734C48.0348 71.7379 47.0124 72.5376 45.828 72.983C44.9068 73.3171 43.7426 73.5398 42.7506 73.4487C42.3355 73.4082 42.0116 73.2462 41.6269 73.1247C41.0196 72.9425 40.3717 72.9425 39.744 72.7805C39.248 72.6591 38.7722 72.4768 38.2965 72.3047C37.8106 72.1225 37.4967 71.7581 37.0311 71.5455C35.9682 71.0394 34.9457 71.1001 33.9739 70.3105C32.7592 69.3185 31.6962 68.1948 30.3803 67.3445C29.8336 66.98 29.4692 66.5245 29.1149 65.9981C28.8011 65.5324 28.4265 65.249 28.0722 64.8542C27.5458 64.2569 27.1915 63.5483 26.8979 62.8195C26.4019 61.625 25.8046 60.5519 25.3896 59.327C24.8025 57.5757 24.0331 55.9763 23.6991 54.144C23.4359 52.6256 23.7699 51.2893 23.8205 49.8114C23.8307 49.4672 23.8813 49.0522 23.8104 48.708C23.7092 48.1411 23.2233 47.7767 22.8588 47.3616C21.6745 46.0153 20.6419 44.6689 19.994 42.9783C19.336 41.2574 19.0121 39.162 19.5689 37.3702C20.0851 35.7505 21.0873 34.8496 22.4134 33.8676C23.6991 32.9059 25.177 32.1771 26.5942 31.4482C27.2421 31.1142 27.8596 30.6485 28.5379 30.3954C29.2465 30.1423 30.0766 30.0108 30.8155 29.8083C31.4634 29.6362 31.9999 29.5653 32.5668 29.1705C33.154 28.7454 33.8018 28.2898 34.3384 27.8141C34.9964 27.2168 35.5228 26.6094 36.3933 26.3766C37.5878 26.0628 38.8431 25.6983 40.0477 25.4453C41.5459 25.1315 43.3883 25.5364 44.8764 25.6983C46.3746 25.8603 47.8323 25.8806 49.3508 25.8806C50.6162 25.8806 51.8006 25.6781 53.0558 25.6275C53.5114 25.6072 53.9871 25.6781 54.4528 25.6477C55.212 25.6072 55.9206 25.2732 56.6495 25.091C58.0465 24.7265 59.3524 24.0483 60.719 23.6029C61.7819 23.2486 62.7942 23.2891 63.8773 23.1068C65.0212 22.9246 66.1955 22.5298 67.3597 22.4893C68.3821 22.4489 69.4652 22.0642 70.3763 22.6108C72.077 23.6636 73.1703 25.4554 74.8608 26.4778C76.6425 27.561 78.657 28.3202 80.5702 29.0896C81.2282 29.3426 81.9773 29.0389 82.5746 29.2718C82.8783 29.3831 83.1921 29.869 83.4148 30.1221C83.7286 29.8994 83.6375 29.5856 83.6476 29.2515C83.678 28.7757 83.9007 28.4113 83.9007 27.9153C83.9108 27.3281 83.9715 26.6904 83.8703 26.1235C83.8197 25.8401 83.435 25.1315 83.4249 24.7265C84.3562 25.4959 85.2673 26.326 86.1379 27.1763C94.4792 35.3253 99.6825 46.7644 99.6825 59.4283Z" fill="url(#paint2_radial_24_1772)"/>
<path opacity="0.3" fill-rule="evenodd" clip-rule="evenodd" d="M24.266 73.1247C24.0028 74.1167 23.8409 75.129 23.8004 76.1514C24.0636 76.0907 24.4584 76.6981 24.7418 76.8196C25.2783 77.0524 25.7946 76.9815 26.2906 77.3358C26.7259 77.6496 27.2523 78.2672 27.7686 78.419C28.0925 78.5202 28.5582 78.4291 28.9024 78.4291C29.6414 78.4291 30.2892 78.4595 31.0282 78.6113C31.7672 78.7632 32.7491 79.0163 33.5083 78.9353C34.0347 78.8847 34.8345 78.6012 35.2394 78.2773C35.6544 77.9331 35.8366 76.9107 35.867 76.3843C35.9581 74.7342 34.7434 73.1753 33.4982 72.2035C32.8605 71.6973 32.1215 71.6973 31.4129 71.3228C30.5625 70.8774 29.8134 70.6344 28.872 70.3712C28.3254 70.2194 27.556 69.946 26.979 69.9663C26.4222 69.9865 25.7744 70.3307 25.2378 70.4724C24.6811 70.6141 24.1446 70.7053 23.77 71.1912C23.355 71.7074 23.5372 72.4768 24.266 73.1247Z" fill="url(#paint3_linear_24_1772)"/>
<path opacity="0.3" fill-rule="evenodd" clip-rule="evenodd" d="M37.0514 78.915C36.768 79.2592 34.0955 81.5774 35.4115 82.4986C35.5026 82.5593 36.0391 82.701 36.1403 82.7213C36.5453 82.8225 36.6161 82.7618 36.9502 82.5492C37.5879 82.1443 37.6689 81.466 37.5069 80.7473C37.4766 80.6056 37.3349 80.1602 37.264 80.0184C37.1425 79.7654 36.8692 79.6945 36.7983 79.3908L37.0514 78.915Z" fill="url(#paint4_linear_24_1772)"/>
<path opacity="0.3" fill-rule="evenodd" clip-rule="evenodd" d="M52.4993 20.2724C52.9852 20.0294 54.5239 19.0981 55.3844 19.007C55.6577 18.9766 56.0525 19.0678 56.3562 19.0678C57.004 19.0576 57.5709 18.9463 58.0568 19.4828C58.4213 19.8776 58.5934 20.2926 58.3302 20.7482C57.9556 21.3859 56.9737 21.8516 56.3562 22.2059C54.9187 23.036 52.9953 23.8357 51.2744 23.6737C49.9078 23.5421 48.6627 22.5197 47.4884 21.9022C46.6077 21.4365 44.9981 20.5558 46.0712 19.4929C46.9519 18.6223 48.278 18.1466 49.4826 18.1061C50.0293 18.0858 51.3554 17.8935 51.7806 18.2174C52.2563 18.5818 51.7401 20.1205 52.7321 20.0396L52.4993 20.2724Z" fill="url(#paint5_linear_24_1772)"/>
<path fill-rule="evenodd" clip-rule="evenodd" d="M8.48436 50.2061C9.17273 59.4282 30.7753 44.4967 51.6692 37.856C76.2074 30.0613 94.8034 47.0781 97.5164 46.1569C101.768 44.7093 84.3058 10.949 56.346 11.3843C24.8432 11.8702 7.38095 35.3151 8.48436 50.2061Z" fill="url(#paint6_linear_24_1772)"/>
<path fill-rule="evenodd" clip-rule="evenodd" d="M33.2249 101.003C33.2249 101.003 54.7059 108.484 75.2152 97.1466C95.7244 85.8088 99.1055 60.2178 99.1055 60.2178C99.1055 60.2178 96.5849 90.3034 76.7842 99.9102C56.9735 109.507 42.1534 106.551 33.2249 101.003Z" fill="url(#paint7_radial_24_1772)"/>
<path opacity="0.5" fill-rule="evenodd" clip-rule="evenodd" d="M6.33813 66.2207L7.85659 73.2562C7.85659 73.2562 16.2891 78.1963 35.8468 76.3741C55.4044 74.5621 60.0509 64.9958 67.6837 59.4181C75.3164 53.8403 90.1264 49.4671 93.9833 45.1243C97.8401 40.7816 94.5603 32.1163 94.5603 32.1163L93.0722 30.0613C93.0722 30.0613 95.8155 37.4612 92.5256 42.958C89.2457 48.4447 74.6686 50.9754 66.7017 57.9198C58.7349 64.8642 42.5988 70.2699 28.8315 70.3712C15.0946 70.4623 6.33813 66.2207 6.33813 66.2207Z" fill="url(#paint8_linear_24_1772)"/>
<path opacity="0.5" fill-rule="evenodd" clip-rule="evenodd" d="M12.8372 84.5131L15.9348 89.0279C15.9348 89.0279 29.9957 93.148 51.1123 89.0279C72.2289 84.9079 88.1423 73.0133 95.5625 66.2208C102.983 59.4282 102.061 49.9429 102.061 49.9429L101.404 47.0883C101.404 47.0883 100.077 56.9683 91.8271 66.2309C83.587 75.4833 69.85 83.8855 50.0798 87.3576C30.3095 90.8298 12.8372 84.5131 12.8372 84.5131Z" fill="url(#paint9_linear_24_1772)"/>
<path opacity="0.5" fill-rule="evenodd" clip-rule="evenodd" d="M9.17261 41.7939C9.17261 41.7939 36.7578 51.1982 58.0769 47.0781C79.396 42.9581 85.1054 29.1705 85.5103 22.1249L81.6029 19.1791C81.6029 19.1791 81.694 33.3209 68.1898 41.8648C54.6857 50.4086 20.1156 45.3268 10.853 37.9877L9.17261 41.7939Z" fill="url(#paint10_linear_24_1772)"/>
<path fill-rule="evenodd" clip-rule="evenodd" d="M12.1995 58.4564C12.5133 60.1571 16.35 57.7782 19.2249 52.0182C22.0998 46.2582 22.6566 34.3839 21.1584 33.3513C19.6602 32.3188 10.0636 46.6934 12.1995 58.4564Z" fill="white"/>
<path fill-rule="evenodd" clip-rule="evenodd" d="M64.8492 103.079C64.252 103.757 66.4689 104.567 69.7589 103.899C73.059 103.231 78.1205 99.6267 78.0699 98.6752C78.0091 97.7337 68.9997 98.412 64.8492 103.079Z" fill="white"/>
<path fill-rule="evenodd" clip-rule="evenodd" d="M12.4626 60.9366C10.4684 61.3111 10.519 65.1984 11.7945 66.8585C13.07 68.5288 14.6795 67.7291 14.7808 64.3278C14.8415 62.2323 14.1126 60.6227 12.4626 60.9366Z" fill="white"/>
<path fill-rule="evenodd" clip-rule="evenodd" d="M91.2603 89.2001C91.2603 89.2001 99.5814 78.4292 101.393 64.9453C101.393 64.9453 102.335 77.7914 91.2603 89.2001Z" fill="#FF9AFF"/>
<path opacity="0.92" fill-rule="evenodd" clip-rule="evenodd" d="M68.1899 12.8521C68.1899 12.8521 80.7931 2.64813 91.2603 9.89621C102.993 18.025 97.2531 36.5096 97.2531 36.5096C97.2531 36.5096 73.0186 23.7749 68.1899 12.8521Z" fill="url(#paint11_radial_24_1772)"/>
<path opacity="0.92" fill-rule="evenodd" clip-rule="evenodd" d="M21.9683 95.527C21.9683 95.527 23.5576 109.79 34.2779 114.983C44.2895 119.822 53.2687 107.968 53.2687 107.968C53.2687 107.968 51.1125 89.028 21.9683 95.527Z" fill="url(#paint12_radial_24_1772)"/>
<path fill-rule="evenodd" clip-rule="evenodd" d="M70.5891 12.427C72.6036 15.0084 79.1532 15.6866 87.2415 16.5268C95.3298 17.367 96.4433 19.665 96.4433 19.665C96.4433 19.665 93.8721 10.1291 86.0368 8.56C78.1915 7.00105 70.5891 12.427 70.5891 12.427Z" fill="url(#paint13_linear_24_1772)"/>
<path fill-rule="evenodd" clip-rule="evenodd" d="M22.8589 96.5291C22.8589 96.5291 24.1445 105.215 27.6471 106.784C31.1496 108.353 33.2249 100.325 41.88 100.143C46.7087 100.042 52.0132 105.69 52.0132 105.69C52.0132 105.69 46.8201 90.2528 22.8589 96.5291Z" fill="url(#paint14_linear_24_1772)"/>
<path fill-rule="evenodd" clip-rule="evenodd" d="M36.3125 114.508C36.3125 114.508 41.9409 115.348 47.3466 111.977C47.3466 111.967 43.7934 118.091 36.3125 114.508Z" fill="#FF9AFF"/>
<path fill-rule="evenodd" clip-rule="evenodd" d="M95.8762 33.3007C95.8762 33.3007 97.7793 28.5328 97.1315 22.2666C97.1416 22.2666 100.502 29.0693 95.8762 33.3007Z" fill="#FF9AFF"/>
<path fill-rule="evenodd" clip-rule="evenodd" d="M71.0042 12.1639C70.1235 12.9434 76.8148 12.7915 78.9204 11.3743C81.0361 9.95708 81.8865 9.14724 81.3297 8.28679C80.783 7.42633 74.1828 9.3497 71.0042 12.1639Z" fill="white"/>
<path fill-rule="evenodd" clip-rule="evenodd" d="M82.109 8.36771C82.0281 7.84132 84.0628 7.98304 84.0223 8.48919C83.9818 8.99534 82.2609 9.34965 82.109 8.36771Z" fill="white"/>
<path fill-rule="evenodd" clip-rule="evenodd" d="M23.6789 98.3309C22.3629 97.9361 24.2964 104.253 27.1208 106.369C27.1106 106.358 27.5257 99.4647 23.6789 98.3309Z" fill="white"/>
<path opacity="0.92" fill-rule="evenodd" clip-rule="evenodd" d="M96.504 37.1272C96.504 37.1272 102.649 33.5234 105.817 37.7751C110.322 43.8186 102.375 50.1556 102.375 50.1556C102.375 50.1556 95.7751 46.0355 96.504 37.1272Z" fill="url(#paint15_radial_24_1772)"/>
<path fill-rule="evenodd" clip-rule="evenodd" d="M97.0506 37.1677C94.6211 37.8966 101.636 39.3442 104.046 40.5488C106.455 41.7535 106.222 43.2011 106.222 43.2011C106.222 43.2011 107.548 34.0296 97.0506 37.1677Z" fill="url(#paint16_linear_24_1772)"/>
<path fill-rule="evenodd" clip-rule="evenodd" d="M101.819 48.7991C101.819 48.7991 103.975 47.7868 105.554 44.3146C105.554 44.3146 106.141 48.0398 101.819 48.7991Z" fill="#FF9AFF"/>
<path fill-rule="evenodd" clip-rule="evenodd" d="M98.0223 37.2994C97.3745 38.1295 101.069 38.008 101.393 37.1374C101.717 36.2669 98.8018 36.2972 98.0223 37.2994Z" fill="white"/>
<path fill-rule="evenodd" clip-rule="evenodd" d="M96.4431 39.2328C96.4431 39.2328 96.5039 44.9219 99.9457 48.1208C99.9457 48.1309 96.9796 42.6847 96.4431 39.2328Z" fill="white"/>
<path fill-rule="evenodd" clip-rule="evenodd" d="M100.604 48.7991C100.604 48.7991 101.403 50.0139 102.072 49.9329C102.061 49.9329 101.231 48.6068 100.604 48.7991Z" fill="white"/>
<path opacity="0.92" fill-rule="evenodd" clip-rule="evenodd" d="M60.1016 11.3743C60.1016 11.3743 61.8022 8.32726 64.2925 8.29689C67.8356 8.25639 68.0481 13.0345 68.0481 13.0345C68.0481 13.0345 64.2925 14.4821 60.1016 11.3743Z" fill="url(#paint17_radial_24_1772)"/>
<path fill-rule="evenodd" clip-rule="evenodd" d="M61.2454 10.5037C60.5469 11.4654 63.5737 10.0077 64.8289 9.76476C66.0741 9.5218 66.398 10.1393 66.398 10.1393C66.398 10.1393 64.2621 6.33305 61.2454 10.5037Z" fill="url(#paint18_linear_24_1772)"/>
<path fill-rule="evenodd" clip-rule="evenodd" d="M67.3902 12.8623C67.3902 12.8623 67.6027 11.7589 66.7119 10.2C66.722 10.2 68.3012 11.0098 67.3902 12.8623Z" fill="#FF9AFF"/>
<path fill-rule="evenodd" clip-rule="evenodd" d="M61.6401 10.2809C61.6401 10.777 62.9764 9.67355 62.8549 9.25851C62.7233 8.83334 61.6401 9.68367 61.6401 10.2809Z" fill="white"/>
<path fill-rule="evenodd" clip-rule="evenodd" d="M61.5999 12.3157C61.5999 12.3157 64.4444 13.8139 66.6108 13.3887C66.6209 13.3887 63.0576 13.0648 61.5999 12.3157Z" fill="white"/>
<path fill-rule="evenodd" clip-rule="evenodd" d="M67.0562 13.3281C67.0562 13.3281 67.7445 13.3584 67.8964 13.0851C67.8964 13.0851 67.1574 13.0345 67.0562 13.3281Z" fill="white"/>
<path fill-rule="evenodd" clip-rule="evenodd" d="M69.7791 15.6157C69.7791 15.6157 71.6923 16.051 72.2592 18.7032C72.2491 18.7032 70.2852 18.1364 69.7791 15.6157Z" fill="white"/>
<path fill-rule="evenodd" clip-rule="evenodd" d="M21.9683 95.5269C21.9683 95.5269 24.4282 94.707 28.5685 94.1705C32.7088 93.6339 35.0472 94.1705 35.0472 94.1705C35.0472 94.1705 25.9466 94.8993 21.9683 95.5269Z" fill="white"/>
<path fill-rule="evenodd" clip-rule="evenodd" d="M44.6943 96.6202C44.6943 96.6202 49.8773 100.659 51.6691 103.393C51.6691 103.403 51.1326 99.8495 44.6943 96.6202Z" fill="white"/>
<path fill-rule="evenodd" clip-rule="evenodd" d="M34.551 16.4255C34.551 16.4255 35.9581 14.6844 38.8331 13.915C41.1614 13.2975 42.4672 13.3988 42.9228 13.338C42.9228 13.3481 38.0131 16.7596 34.551 16.4255Z" fill="white"/>
<path fill-rule="evenodd" clip-rule="evenodd" d="M36.3125 94.3223C36.3125 94.3223 37.9423 93.6036 38.5294 94.6159C38.5294 94.6159 36.7579 95.1929 36.3125 94.3223Z" fill="white"/>
<path fill-rule="evenodd" clip-rule="evenodd" d="M48.1868 111.552C48.1868 111.552 48.1969 110.246 50.3531 109.557C50.3531 109.557 50.5454 111.278 48.1868 111.552Z" fill="#FF9AFF"/>
<path opacity="0.92" d="M12.0678 23.9369C18.4133 23.9369 23.5574 18.7928 23.5574 12.4473C23.5574 6.10173 18.4133 0.957642 12.0678 0.957642C5.72221 0.957642 0.578125 6.10173 0.578125 12.4473C0.578125 18.7928 5.72221 23.9369 12.0678 23.9369Z" fill="url(#paint19_radial_24_1772)"/>
<path fill-rule="evenodd" clip-rule="evenodd" d="M1.43854 12.6295C1.43854 12.6295 3.37204 15.9195 9.4661 11.5362C15.5602 7.15294 18.3642 4.8044 21.0165 5.9483C21.0165 5.9483 15.1654 -0.864492 7.59334 2.49635C0.183286 5.77621 1.43854 12.6295 1.43854 12.6295Z" fill="url(#paint20_linear_24_1772)"/>
<path fill-rule="evenodd" clip-rule="evenodd" d="M16.0967 22.2667C16.0967 22.2667 21.3404 19.746 22.4337 14.1784C22.4236 14.1682 23.5169 20.5457 16.0967 22.2667Z" fill="#FF9AFF"/>
<path fill-rule="evenodd" clip-rule="evenodd" d="M1.41846 10.1999C1.41846 10.1999 2.0967 4.88536 7.38092 3.04297C7.38092 3.05309 5.11336 10.2708 1.41846 10.1999Z" fill="white"/>
<path fill-rule="evenodd" clip-rule="evenodd" d="M7.59335 2.80002C7.03659 2.51658 9.35476 1.69661 10.6505 1.75735C10.6505 1.75735 8.3627 3.1847 7.59335 2.80002Z" fill="white"/>
<path fill-rule="evenodd" clip-rule="evenodd" d="M10.6606 23.1676C10.6606 23.1676 13.3736 20.9912 16.0866 22.2667C16.0967 22.2667 14.3758 23.937 10.6606 23.1676Z" fill="white"/>
<path opacity="0.92" fill-rule="evenodd" clip-rule="evenodd" d="M83.4148 112.655C83.4148 115.611 81.0156 118 78.0698 118C75.1139 118 72.7249 115.601 72.7249 112.655C72.7249 109.699 75.124 107.31 78.0698 107.31C81.0257 107.3 83.4148 109.699 83.4148 112.655Z" fill="url(#paint21_radial_24_1772)"/>
<path fill-rule="evenodd" clip-rule="evenodd" d="M73.1196 112.736C73.1196 112.736 74.0206 114.265 76.855 112.23C79.6895 110.185 80.9953 109.092 82.2304 109.628C82.2304 109.628 79.5073 106.45 75.9844 108.019C72.5426 109.547 73.1196 112.736 73.1196 112.736Z" fill="url(#paint22_linear_24_1772)"/>
<path fill-rule="evenodd" clip-rule="evenodd" d="M79.9426 117.221C79.9426 117.221 82.3823 116.046 82.8884 113.455C82.8985 113.455 83.4047 116.421 79.9426 117.221Z" fill="#FF9AFF"/>
<path fill-rule="evenodd" clip-rule="evenodd" d="M73.1096 111.602C73.1096 111.602 73.4234 109.132 75.8833 108.272C75.8833 108.272 74.8305 111.633 73.1096 111.602Z" fill="white"/>
<path fill-rule="evenodd" clip-rule="evenodd" d="M75.9845 108.15C75.7314 108.019 76.8045 107.634 77.4118 107.665C77.4118 107.675 76.3489 108.343 75.9845 108.15Z" fill="white"/>
<path fill-rule="evenodd" clip-rule="evenodd" d="M77.4219 117.646C77.4219 117.646 78.6873 116.633 79.9526 117.221C79.9425 117.221 79.1428 118 77.4219 117.646Z" fill="white"/>
<defs>
<radialGradient id="paint0_radial_24_1772" cx="0" cy="0" r="1" gradientUnits="userSpaceOnUse" gradientTransform="translate(54.4279 59.4247) scale(48.561 48.561)">
<stop offset="0.8855"/>
<stop offset="0.8993" stop-color="#000506"/>
<stop offset="0.9177" stop-color="#001217"/>
<stop offset="0.9385" stop-color="#002932"/>
<stop offset="0.9611" stop-color="#004858"/>
<stop offset="0.985" stop-color="#006F89"/>
<stop offset="1" stop-color="#008BAB"/>
</radialGradient>
<radialGradient id="paint1_radial_24_1772" cx="0" cy="0" r="1" gradientUnits="userSpaceOnUse" gradientTransform="translate(41.6042 46.587) scale(66.3785)">
<stop offset="0.00558659" stop-color="#00CEC0"/>
<stop offset="0.2576" stop-color="#00CCC0"/>
<stop offset="0.3833" stop-color="#00C4C1"/>
<stop offset="0.4811" stop-color="#00B7C2"/>
<stop offset="0.5645" stop-color="#00A4C4"/>
<stop offset="0.6387" stop-color="#008CC6"/>
<stop offset="0.7054" stop-color="#006EC8"/>
<stop offset="0.7179" stop-color="#0068C9"/>
<stop offset="0.7438" stop-color="#0767CB"/>
<stop offset="0.7813" stop-color="#1A66CF"/>
<stop offset="0.8259" stop-color="#3A63D6"/>
<stop offset="0.8759" stop-color="#6660E0"/>
<stop offset="0.9304" stop-color="#9E5BEC"/>
<stop offset="0.9879" stop-color="#E255FC"/>
<stop offset="1" stop-color="#F154FF"/>
</radialGradient>
<radialGradient id="paint2_radial_24_1772" cx="0" cy="0" r="1" gradientUnits="userSpaceOnUse" gradientTransform="translate(59.464 63.4709) scale(40.7137 40.7137)">
<stop stop-color="#1372B3"/>
<stop offset="1" stop-color="white"/>
</radialGradient>
<linearGradient id="paint3_linear_24_1772" x1="23.55" y1="74.4546" x2="35.8605" y2="74.4546" gradientUnits="userSpaceOnUse">
<stop stop-color="#B8C2FF"/>
<stop offset="1" stop-color="#7D72B3"/>
</linearGradient>
<linearGradient id="paint4_linear_24_1772" x1="35.0467" y1="80.8394" x2="37.583" y2="80.8394" gradientUnits="userSpaceOnUse">
<stop stop-color="#B8C2FF"/>
<stop offset="1" stop-color="#7D72B3"/>
</linearGradient>
<linearGradient id="paint5_linear_24_1772" x1="45.7089" y1="20.8579" x2="58.4569" y2="20.8579" gradientUnits="userSpaceOnUse">
<stop stop-color="#B8C2FF"/>
<stop offset="1" stop-color="#7D72B3"/>
</linearGradient>
<linearGradient id="paint6_linear_24_1772" x1="26.5812" y1="18.5565" x2="77.8" y2="67.0918" gradientUnits="userSpaceOnUse">
<stop offset="0.0168" stop-color="#B3FFE8"/>
<stop offset="0.2139" stop-color="#83BBAA"/>
<stop offset="0.4253" stop-color="#55796E"/>
<stop offset="0.6174" stop-color="#30453F"/>
<stop offset="0.7832" stop-color="#161F1D"/>
<stop offset="0.9163" stop-color="#060808"/>
<stop offset="1"/>
</linearGradient>
<radialGradient id="paint7_radial_24_1772" cx="0" cy="0" r="1" gradientUnits="userSpaceOnUse" gradientTransform="translate(74.6051 97.5643) scale(28.5438)">
<stop stop-color="#97E5D9"/>
<stop offset="0.3566" stop-color="#61938C"/>
<stop offset="1"/>
</radialGradient>
<linearGradient id="paint8_linear_24_1772" x1="51.1117" y1="76.7796" x2="51.1117" y2="30.0651" gradientUnits="userSpaceOnUse">
<stop stop-color="#BDFFE8"/>
<stop offset="0.2005" stop-color="#8BBBAA"/>
<stop offset="0.4155" stop-color="#5A796E"/>
<stop offset="0.6108" stop-color="#33453F"/>
<stop offset="0.7795" stop-color="#171F1D"/>
<stop offset="0.9148" stop-color="#060808"/>
<stop offset="1"/>
</linearGradient>
<linearGradient id="paint9_linear_24_1772" x1="57.4671" y1="90.8624" x2="57.4671" y2="47.0809" gradientUnits="userSpaceOnUse">
<stop stop-color="#BDFFE8"/>
<stop offset="0.2005" stop-color="#8BBBAA"/>
<stop offset="0.4155" stop-color="#5A796E"/>
<stop offset="0.6108" stop-color="#33453F"/>
<stop offset="0.7795" stop-color="#171F1D"/>
<stop offset="0.9148" stop-color="#060808"/>
<stop offset="1"/>
</linearGradient>
<linearGradient id="paint10_linear_24_1772" x1="47.3442" y1="48.1262" x2="47.3442" y2="19.1831" gradientUnits="userSpaceOnUse">
<stop stop-color="#BDFFE8"/>
<stop offset="0.2005" stop-color="#8BBBAA"/>
<stop offset="0.4155" stop-color="#5A796E"/>
<stop offset="0.6108" stop-color="#33453F"/>
<stop offset="0.7795" stop-color="#171F1D"/>
<stop offset="0.9148" stop-color="#060808"/>
<stop offset="1"/>
</linearGradient>
<radialGradient id="paint11_radial_24_1772" cx="0" cy="0" r="1" gradientUnits="userSpaceOnUse" gradientTransform="translate(83.4199 21.9053) scale(14.9235)">
<stop offset="0.7741"/>
<stop offset="0.7867" stop-color="#060106"/>
<stop offset="0.8034" stop-color="#170416"/>
<stop offset="0.8224" stop-color="#320A31"/>
<stop offset="0.843" stop-color="#581157"/>
<stop offset="0.865" stop-color="#8A1B88"/>
<stop offset="0.8878" stop-color="#C527C2"/>
<stop offset="0.9078" stop-color="#FF32FC"/>
<stop offset="0.9188" stop-color="#FB33FB"/>
<stop offset="0.9303" stop-color="#EE38F7"/>
<stop offset="0.942" stop-color="#D93FF0"/>
<stop offset="0.954" stop-color="#BC49E7"/>
<stop offset="0.966" stop-color="#9657DB"/>
<stop offset="0.9781" stop-color="#6867CC"/>
<stop offset="0.9902" stop-color="#327ABB"/>
<stop offset="1" stop-color="#008BAB"/>
</radialGradient>
<radialGradient id="paint12_radial_24_1772" cx="0" cy="0" r="1" gradientUnits="userSpaceOnUse" gradientTransform="translate(38.3648 101.516) scale(14.1898 14.1898)">
<stop offset="0.7741"/>
<stop offset="0.7867" stop-color="#060106"/>
<stop offset="0.8034" stop-color="#170416"/>
<stop offset="0.8224" stop-color="#320A31"/>
<stop offset="0.843" stop-color="#581157"/>
<stop offset="0.865" stop-color="#8A1B88"/>
<stop offset="0.8878" stop-color="#C527C2"/>
<stop offset="0.9078" stop-color="#FF32FC"/>
<stop offset="0.9188" stop-color="#FB33FB"/>
<stop offset="0.9303" stop-color="#EE38F7"/>
<stop offset="0.942" stop-color="#D93FF0"/>
<stop offset="0.954" stop-color="#BC49E7"/>
<stop offset="0.966" stop-color="#9657DB"/>
<stop offset="0.9781" stop-color="#6867CC"/>
<stop offset="0.9902" stop-color="#327ABB"/>
<stop offset="1" stop-color="#008BAB"/>
</radialGradient>
<linearGradient id="paint13_linear_24_1772" x1="75.7755" y1="6.96238" x2="93.0135" y2="23.2957" gradientUnits="userSpaceOnUse">
<stop offset="0.0168" stop-color="#54FFE8"/>
<stop offset="0.2139" stop-color="#3EBBAA"/>
<stop offset="0.4253" stop-color="#28796E"/>
<stop offset="0.6174" stop-color="#17453F"/>
<stop offset="0.7832" stop-color="#0A1F1D"/>
<stop offset="0.9163" stop-color="#030808"/>
<stop offset="1"/>
</linearGradient>
<linearGradient id="paint14_linear_24_1772" x1="26.433" y1="92.7499" x2="46.376" y2="111.646" gradientUnits="userSpaceOnUse">
<stop offset="0.0168" stop-color="#54FFE8"/>
<stop offset="0.2139" stop-color="#3EBBAA"/>
<stop offset="0.4253" stop-color="#28796E"/>
<stop offset="0.6174" stop-color="#17453F"/>
<stop offset="0.7832" stop-color="#0A1F1D"/>
<stop offset="0.9163" stop-color="#030808"/>
<stop offset="1"/>
</linearGradient>
<radialGradient id="paint15_radial_24_1772" cx="0" cy="0" r="1" gradientUnits="userSpaceOnUse" gradientTransform="translate(102.287 42.7625) rotate(-12.0881) scale(5.61673 6.72878)">
<stop offset="0.7741"/>
<stop offset="0.7867" stop-color="#060106"/>
<stop offset="0.8034" stop-color="#170416"/>
<stop offset="0.8224" stop-color="#320A31"/>
<stop offset="0.843" stop-color="#581157"/>
<stop offset="0.865" stop-color="#8A1B88"/>
<stop offset="0.8878" stop-color="#C527C2"/>
<stop offset="0.9078" stop-color="#FF32FC"/>
<stop offset="0.9188" stop-color="#FB33FB"/>
<stop offset="0.9303" stop-color="#EE38F7"/>
<stop offset="0.942" stop-color="#D93FF0"/>
<stop offset="0.954" stop-color="#BC49E7"/>
<stop offset="0.966" stop-color="#9657DB"/>
<stop offset="0.9781" stop-color="#6867CC"/>
<stop offset="0.9902" stop-color="#327ABB"/>
<stop offset="1" stop-color="#008BAB"/>
</radialGradient>
<linearGradient id="paint16_linear_24_1772" x1="98.3393" y1="35.5583" x2="106.307" y2="43.1078" gradientUnits="userSpaceOnUse">
<stop offset="0.0168" stop-color="#54FFE8"/>
<stop offset="0.2139" stop-color="#3EBBAA"/>
<stop offset="0.4253" stop-color="#28796E"/>
<stop offset="0.6174" stop-color="#17453F"/>
<stop offset="0.7832" stop-color="#0A1F1D"/>
<stop offset="0.9163" stop-color="#030808"/>
<stop offset="1"/>
</linearGradient>
<radialGradient id="paint17_radial_24_1772" cx="0" cy="0" r="1" gradientUnits="userSpaceOnUse" gradientTransform="translate(64.0903 11.5048) rotate(-66.0758) scale(2.92787 3.50764)">
<stop offset="0.4247"/>
<stop offset="0.4943" stop-color="#000506"/>
<stop offset="0.5864" stop-color="#001217"/>
<stop offset="0.691" stop-color="#002932"/>
<stop offset="0.8048" stop-color="#004858"/>
<stop offset="0.9248" stop-color="#006F89"/>
<stop offset="1" stop-color="#008BAB"/>
</radialGradient>
<linearGradient id="paint18_linear_24_1772" x1="61.262" y1="9.53661" x2="66.3962" y2="10.0786" gradientUnits="userSpaceOnUse">
<stop offset="0.0168" stop-color="#54FFE8"/>
<stop offset="0.2139" stop-color="#3EBBAA"/>
<stop offset="0.4253" stop-color="#28796E"/>
<stop offset="0.6174" stop-color="#17453F"/>
<stop offset="0.7832" stop-color="#0A1F1D"/>
<stop offset="0.9163" stop-color="#030808"/>
<stop offset="1"/>
</linearGradient>
<radialGradient id="paint19_radial_24_1772" cx="0" cy="0" r="1" gradientUnits="userSpaceOnUse" gradientTransform="translate(11.1064 11.594) scale(12.2866)">
<stop offset="0.7741"/>
<stop offset="0.7863" stop-color="#000506"/>
<stop offset="0.8024" stop-color="#001217"/>
<stop offset="0.8207" stop-color="#002932"/>
<stop offset="0.8406" stop-color="#004858"/>
<stop offset="0.8616" stop-color="#006F89"/>
<stop offset="0.8748" stop-color="#008BAB"/>
<stop offset="0.9828" stop-color="#FF32FC"/>
</radialGradient>
<linearGradient id="paint20_linear_24_1772" x1="1.35432" y1="7.68541" x2="21.0099" y2="7.68541" gradientUnits="userSpaceOnUse">
<stop offset="0.0168" stop-color="#54FFE8"/>
<stop offset="0.2139" stop-color="#3EBBAA"/>
<stop offset="0.4253" stop-color="#28796E"/>
<stop offset="0.6174" stop-color="#17453F"/>
<stop offset="0.7832" stop-color="#0A1F1D"/>
<stop offset="0.9163" stop-color="#030808"/>
<stop offset="1"/>
</linearGradient>
<radialGradient id="paint21_radial_24_1772" cx="0" cy="0" r="1" gradientUnits="userSpaceOnUse" gradientTransform="translate(77.6236 112.253) scale(5.72164 5.72163)">
<stop offset="0.7741"/>
<stop offset="0.7863" stop-color="#000506"/>
<stop offset="0.8024" stop-color="#001217"/>
<stop offset="0.8207" stop-color="#002932"/>
<stop offset="0.8406" stop-color="#004858"/>
<stop offset="0.8616" stop-color="#006F89"/>
<stop offset="0.8748" stop-color="#008BAB"/>
<stop offset="0.9828" stop-color="#FF32FC"/>
</radialGradient>
<linearGradient id="paint22_linear_24_1772" x1="73.0823" y1="110.433" x2="82.2355" y2="110.433" gradientUnits="userSpaceOnUse">
<stop offset="0.0168" stop-color="#54FFE8"/>
<stop offset="0.2139" stop-color="#3EBBAA"/>
<stop offset="0.4253" stop-color="#28796E"/>
<stop offset="0.6174" stop-color="#17453F"/>
<stop offset="0.7832" stop-color="#0A1F1D"/>
<stop offset="0.9163" stop-color="#030808"/>
<stop offset="1"/>
</linearGradient>
</defs>
</svg>
