<svg width="167" height="191" viewBox="0 0 167 191" fill="none" xmlns="http://www.w3.org/2000/svg">
<path fill-rule="evenodd" clip-rule="evenodd" d="M12.1663 63.7388C12.1663 63.7388 13.1175 55.5278 13.735 51.0218C13.735 51.0218 19.3425 43.178 28.2877 36.7361L40.2037 37.3536C40.2037 37.3536 16.1883 56.6126 12.1663 63.7388Z" fill="url(#paint0_linear_24_3753)"/>
<path fill-rule="evenodd" clip-rule="evenodd" d="M28.2877 36.7361C28.2877 36.7361 28.2878 43.3449 22.2631 48.5686C16.2383 53.7922 13.6182 51.9564 13.6182 51.9564L12.1663 62.4871L40.2037 37.3703L28.2877 36.7361Z" fill="url(#paint1_linear_24_3753)"/>
<path fill-rule="evenodd" clip-rule="evenodd" d="M155.975 105.578C155.975 113.071 154.924 120.331 152.938 127.173C148.982 140.958 141.339 153.141 131.108 162.671C123.799 169.48 115.17 174.904 105.674 178.509C97.0629 181.78 87.7505 183.565 77.9874 183.565C76.6023 183.565 75.2004 183.532 73.8319 183.449H73.8152C71.7792 183.348 69.7431 183.148 67.7571 182.898C52.687 180.929 39.0187 174.67 27.9206 165.358C23.7483 161.886 19.9766 157.965 16.6221 153.692C14.0854 150.488 11.7991 147.067 9.79641 143.462C9.31243 142.611 8.86178 141.726 8.39449 140.858C8.39449 140.825 8.37777 140.808 8.36108 140.775C7.8771 139.84 7.44319 138.906 7.00928 137.938C6.99259 137.938 6.99267 137.938 6.99267 137.938C5.64087 134.95 4.45591 131.88 3.50464 128.725C2.78701 126.456 2.16948 124.119 1.6855 121.749C1.66881 121.733 1.66889 121.699 1.66889 121.683C1.31843 120.014 1.03468 118.345 0.801035 116.643C0.266989 113.021 0.0166016 109.333 0.0166016 105.578C0.0166016 103.425 0.10012 101.272 0.300387 99.1527C0.400521 97.8008 0.550738 96.4657 0.734316 95.1306C1.73565 87.4537 3.87182 80.1439 6.97597 73.3515C8.49466 70.0137 10.2303 66.7928 12.1996 63.722C15.454 58.5818 19.3091 53.8755 23.6482 49.6532C37.6836 35.985 56.8592 27.5737 78.0041 27.5737C78.8219 27.5737 79.6563 27.5904 80.4574 27.6071C81.3252 27.6405 82.2097 27.6739 83.0776 27.7406C87.5502 28.041 91.9394 28.6919 96.1617 29.7099C98.6317 30.3107 101.052 30.995 103.421 31.8127C105.04 32.3635 106.609 32.9643 108.178 33.6151C109.346 34.1158 110.481 34.6165 111.616 35.1672C111.816 35.2673 112.016 35.3508 112.216 35.4509C119.793 39.1559 126.652 44.029 132.61 49.8702C133.461 50.6879 134.296 51.5558 135.114 52.4236C135.664 53.0244 136.198 53.6252 136.732 54.226C137.634 55.244 138.518 56.3121 139.369 57.3802C142.474 61.3355 145.211 65.5745 147.497 70.0805C150.184 75.3208 152.287 80.8949 153.722 86.7361C155.191 92.8109 155.975 99.1026 155.975 105.578Z" fill="url(#paint2_radial_24_3753)"/>
<path fill-rule="evenodd" clip-rule="evenodd" d="M112.183 35.4842C111.933 35.5176 111.666 35.5343 111.415 35.5843C110.531 35.7512 109.847 35.6678 108.979 35.4174C108.361 35.2339 107.911 34.9835 107.243 34.8834C106.292 34.7332 105.424 34.3327 104.473 34.1992C103.471 34.0656 102.604 33.6651 101.652 33.3313C100.901 33.0643 100.518 33.1478 99.7999 33.3313C99.0823 33.5149 98.5817 33.2312 97.9475 32.9475C97.2298 32.6304 96.5122 32.5803 95.7612 32.4301C93.7919 32.0296 91.8226 31.3954 89.87 30.8947C88.6517 30.5777 87.5335 30.5777 86.2818 30.5777C85.3138 30.561 84.4293 30.8447 83.4614 30.8447C82.8105 30.8447 82.2598 30.7445 81.6089 30.6444C80.9414 30.5276 80.2738 30.6611 79.6062 30.561C78.6216 30.4108 78.0876 30.2606 77.0863 30.5777C76.3353 30.828 75.7678 30.7946 75.0168 30.828C74.199 30.8614 73.2645 31.0783 72.4467 31.2786C70.9781 31.6124 69.3927 31.8794 67.8907 31.8627C66.9728 31.8627 65.6209 31.6124 64.7364 31.9128C64.169 32.113 63.8853 32.7305 63.4847 33.1311C62.7337 33.9154 61.7991 34.6164 61.165 35.5009C60.5308 36.3854 59.8132 37.2866 59.8633 38.3881C59.9133 39.356 60.3639 40.4742 60.7811 41.342C61.2151 42.2766 61.3653 43.1277 60.3973 43.7452C59.1957 44.5463 57.7938 45.2806 56.4253 45.6645C55.5075 45.9315 54.673 46.0984 53.9053 45.4308C53.6216 45.1805 53.438 44.7132 53.0876 44.5296C52.7204 44.346 52.3366 44.5296 51.9527 44.6464C50.9848 44.9302 50.0334 45.2472 49.0488 45.4141C48.448 45.5143 47.9139 45.8314 47.3131 45.9482C46.5955 46.0817 46.0782 45.5476 45.3439 45.7312C44.3091 45.9816 43.2577 46.4155 42.1729 46.4655C41.4052 46.4989 40.4206 46.1651 39.7864 45.7813C39.4026 45.5643 39.3192 45.3474 38.8852 45.4642C38.5348 45.5476 38.0007 45.9816 37.8171 46.2486C37.5668 46.6157 37.4667 47.083 37.2163 47.4669C36.9493 47.8841 36.6823 48.2846 36.4486 48.7352C35.998 49.6031 35.4807 50.4208 34.9133 51.1885C34.5127 51.7226 34.229 52.4569 33.7784 52.9575C33.5448 53.2246 33.0441 53.4248 32.7437 53.6251C31.926 54.1925 31.0748 54.7099 30.2904 55.3107C28.7717 56.4956 27.3364 57.814 25.8011 58.9656C24.6161 59.8501 22.9806 60.3507 21.6288 60.9182C20.7944 61.2519 19.9266 61.5023 19.0922 61.8528C18.8251 61.9529 18.3244 62.0864 18.0908 62.2867C17.7904 62.537 17.6235 63.021 17.3565 63.3714C16.6221 64.2727 15.8545 65.1572 15.3037 66.1919C14.97 66.7927 14.7697 67.3935 14.5527 68.0444C14.2523 68.9289 13.785 69.7299 13.4846 70.6145C12.8838 72.4502 12.7503 74.3695 12.0828 76.2052C11.6823 77.2733 11.1148 78.2413 10.6309 79.226C9.79641 80.8782 9.66284 82.8308 9.4292 84.6665C9.29569 85.7346 9.34575 86.9696 9.52933 88.0043C9.72959 89.1225 9.67956 90.2907 9.66287 91.4423C9.64618 92.6606 8.8785 93.8455 8.11081 94.7634C7.40987 95.6145 6.34173 95.9483 5.55735 96.6993C4.88979 97.3501 4.08874 98.0845 3.80503 99.0191C3.68821 99.4196 3.78836 99.8869 3.7216 100.321C3.53803 101.289 3.30435 102.19 3.17084 103.158C3.02064 104.36 2.98729 105.494 2.98729 106.713C2.98729 107.313 2.95389 107.948 2.97058 108.548C3.00396 109.133 3.22089 109.667 3.25426 110.251C3.28764 110.651 3.2042 111.068 3.25426 111.469C3.33771 111.936 3.50465 112.404 3.62147 112.854C3.8885 113.939 4.08872 114.99 4.30568 116.075C4.48926 117.077 4.88984 118.061 5.19024 119.046C5.62415 120.364 5.90789 121.733 6.15823 123.118C6.3585 124.153 6.34172 125.221 6.49193 126.255C6.60875 127.09 6.80905 127.941 6.84243 128.792C6.87581 130.06 6.57544 131.329 6.55875 132.614C6.54206 134.783 7.40988 136.936 7.91055 139.022C8.06075 139.607 8.2109 140.207 8.37779 140.775C3.02063 130.194 0 118.245 0 105.578C0 90.1906 4.45591 75.8381 12.1662 63.7386C15.4372 58.5984 19.2757 53.8921 23.6315 49.6698C37.6836 36.0016 56.8592 27.5903 78.0042 27.5903C79.7064 27.5903 81.392 27.6404 83.0609 27.7572C93.4581 28.4248 103.305 31.1284 112.183 35.4842Z" fill="url(#paint3_linear_24_3753)"/>
<path fill-rule="evenodd" clip-rule="evenodd" d="M82.9607 142.227C82.9607 142.227 90.2371 152.975 99.8833 161.703C109.513 170.414 110.931 176.272 110.931 176.272C110.931 176.272 129.139 168.662 142.14 150.621C155.124 132.581 82.9607 142.227 82.9607 142.227Z" fill="url(#paint4_linear_24_3753)"/>
<path fill-rule="evenodd" clip-rule="evenodd" d="M31.7423 166.492C23.6816 159.75 16.9894 151.389 12.1996 141.91C9.17892 135.952 6.90921 129.577 5.50733 122.884C5.49065 122.868 5.49063 122.851 5.49063 122.817C4.40585 117.627 3.82173 112.237 3.82173 106.713C3.82173 91.3254 8.27765 76.9729 15.9879 64.8735C19.259 59.7333 23.0974 55.027 27.4532 50.8047C41.5053 37.1364 60.681 28.7252 81.8259 28.7252C83.5282 28.7252 85.2138 28.7752 86.8827 28.8921C92.1731 29.2258 97.3132 30.1104 102.253 31.4455C96.1617 29.4428 89.7197 28.1911 83.0609 27.7572C81.3753 27.6571 79.7064 27.5903 78.0042 27.5903C56.8592 27.5903 37.7003 36.0016 23.6315 49.6698C19.2924 53.8921 15.4539 58.5984 12.1662 63.7386C4.4726 75.8381 0 90.1906 0 105.578C0 111.102 0.584113 116.476 1.6689 121.683C1.6689 121.716 1.66881 121.733 1.6855 121.749C3.08737 128.442 5.35708 134.834 8.37779 140.775C13.1842 150.237 19.8598 158.599 27.9206 165.358C36.4653 172.534 46.5454 177.874 57.6102 180.862C48.0474 177.741 39.3024 172.818 31.7423 166.492Z" fill="url(#paint5_radial_24_3753)"/>
<path opacity="0.4" fill-rule="evenodd" clip-rule="evenodd" d="M96.1451 29.7266C91.9228 28.7086 87.5335 28.041 83.0609 27.7573C82.193 27.6905 81.3085 27.6572 80.4407 27.6238C82.2932 28.6585 84.0289 30.4943 84.4628 32.3634C85.1637 35.5677 86.2151 38.555 86.7992 41.7593C87.4 44.9135 87.2833 48.8354 85.848 51.7059C84.9468 53.5083 83.8786 55.0604 82.4434 56.5457C81.4254 57.5805 80.5575 58.1646 79.8232 59.4496C79.1056 60.7013 78.4047 61.9196 77.5869 63.1045C76.3687 64.8902 75.0836 66.7761 73.6817 68.4116C73.181 69.0124 72.6469 69.4129 72.1963 70.1139C71.6289 70.965 71.3786 71.7828 70.7611 72.4503C69.3593 74.0191 67.1897 74.8869 65.2705 75.5878C62.7672 76.5224 60.6477 77.5738 58.2945 78.8255C54.9901 80.5778 52.2698 82.8142 48.398 82.9143C47.1129 82.9477 45.7778 82.7641 44.4927 82.8809C42.8906 83.0144 41.422 83.7821 39.8365 84.0825C38.4514 84.3495 37.0662 84.6332 35.681 84.8502C33.4113 85.2007 31.5254 85.9684 29.3391 86.5024C26.4853 87.2033 23.5147 87.0365 20.6442 87.4203C18.0575 87.7708 15.8212 88.0712 13.2511 87.4537C9.27908 86.469 7.15954 84.5832 7.99399 80.3776C8.56142 77.6072 8.36114 75.5044 6.94258 73.3849C3.85512 80.1773 1.70226 87.4871 0.700928 95.164C2.57009 95.9484 4.7229 96.3656 6.37511 96.5325C12.1495 97.1333 18.3745 94.5465 23.6649 92.5605C26.3686 91.5425 29.1056 90.0572 32.0261 89.7234C35.0802 89.3896 37.7838 89.7734 40.8545 89.0224C51.402 86.419 61.8159 82.7307 71.2285 77.1566C75.1337 74.8535 76.8526 71.5658 79.5729 68.2113C81.9595 65.2907 84.6464 62.8708 87.4835 60.4343C90.2872 58.0477 92.7571 55.6779 94.4093 52.3401C96.1784 48.8188 97.6637 44.9469 98.4815 41.0751C99.3493 36.9863 98.2979 33.0477 96.1451 29.7266ZM95.611 40.3241C95.4441 41.1919 95.3273 42.1265 95.0602 42.9609C94.3927 45.047 93.1411 47.1999 91.1718 48.3181C90.2706 48.8354 89.0689 48.5184 88.5349 47.6171C88.2512 47.1165 88.2511 46.499 88.151 45.9483C87.9507 44.8802 87.8173 43.8288 87.834 42.7273C87.8674 40.0737 87.7672 37.5203 87.5169 34.8835C87.8006 36.3855 87.4501 32.6638 89.7866 31.6458C90.888 31.1451 92.5569 31.5958 93.3913 32.4469C94.4427 33.515 94.6931 35.3341 95.0936 36.7193C95.4608 37.9542 95.8446 39.0056 95.611 40.3241Z" fill="url(#paint6_linear_24_3753)"/>
<path opacity="0.4" fill-rule="evenodd" clip-rule="evenodd" d="M84.3293 164.824C84.0956 164.857 83.8786 164.907 83.6784 164.924L85.2304 165.074C85.0135 165.024 84.6797 164.907 84.3293 164.824ZM84.3293 164.824C84.0956 164.857 83.8786 164.907 83.6784 164.924L85.2304 165.074C85.0135 165.024 84.6797 164.907 84.3293 164.824ZM153.689 86.7861C153.655 88.8222 153.088 90.8582 153.038 92.911C152.988 95.648 152.52 97.7675 151.819 100.404C151.319 102.207 150.401 103.542 149.8 105.294C149.116 107.297 148.115 109.016 147.097 110.852C145.077 114.54 143.041 118.228 142.173 122.4C141.389 126.172 141.222 129.343 139.336 132.798C137.534 136.119 134.83 138.889 132.894 142.11C131.993 143.662 131.359 143.579 129.99 144.547C128.455 145.631 127.053 147.35 125.584 148.552C122.397 151.105 119.476 152.858 115.604 154.31C113.184 155.228 110.831 155.962 108.261 156.346C106.576 156.613 104.94 156.346 103.271 156.629C100.634 157.063 98.131 157.848 95.5943 158.665C91.4221 160.017 87.1831 160.785 83.0276 162.07C80.1237 162.955 77.3033 163.489 74.3493 164.106C72.5469 164.49 71.1117 165.458 69.2425 165.074C67.3733 164.673 65.6544 164.056 63.8019 163.472C61.4487 162.754 59.5128 162.704 56.9761 162.704C53.6049 162.704 49.683 163.222 46.3619 162.571C42.6069 161.853 38.8686 160.835 35.1136 160.067C32.8439 159.583 31.1082 158.649 29.0388 157.681C27.1028 156.78 25 156.513 22.9807 155.862C20.8445 155.194 18.7751 154.176 16.5889 153.642C19.9267 157.914 23.715 161.836 27.8872 165.308C38.9854 174.62 52.6536 180.878 67.7237 182.848C69.7097 183.098 71.7458 183.298 73.7818 183.398H73.7985C78.2044 182.397 82.5269 181.095 86.9662 179.727C94.3594 177.424 100.751 172.968 108.128 170.782C110.881 169.964 113.351 169.063 115.921 167.794C117.807 166.86 119.827 166.609 121.729 165.792C128.588 162.871 133.762 156.212 136.816 149.67C138.201 146.699 139.536 143.345 142.023 141.125C143.041 140.207 144.259 139.39 145.144 138.355C146.145 137.22 146.829 135.802 147.714 134.567C149.283 132.364 150.785 130.144 152.353 127.924C152.554 127.657 152.737 127.39 152.888 127.123C154.874 120.281 155.925 113.021 155.925 105.528C155.975 99.1026 155.191 92.8108 153.689 86.7861ZM82.143 165.391C82.4267 165.208 82.8773 164.824 83.1777 164.757C83.4781 164.657 83.912 164.74 84.3126 164.84C84.8967 164.757 85.4641 164.69 86.0149 164.924C86.332 165.074 86.9161 165.358 87.0496 165.708C87.1998 166.059 86.9995 166.276 86.7659 166.493C86.4655 166.793 86.2319 166.793 85.8313 166.876C84.9802 167.043 84.1291 167.194 83.2446 167.11C82.7105 167.06 81.926 167.027 81.5923 166.526C81.2919 166.042 81.7592 165.641 82.143 165.391ZM87.2665 175.555C86.7826 176.155 86.3153 176.79 85.6811 177.257C85.0803 177.724 84.4294 177.991 83.7952 178.358C82.2098 179.243 80.591 180.194 78.8052 180.661C78.1043 180.845 77.3867 180.812 76.6524 180.862C75.7679 180.945 74.8833 180.962 73.9988 180.979C72.9474 180.995 71.9294 181.212 70.878 181.279C69.8266 181.329 68.7919 181.362 67.7404 181.429C65.9881 181.546 64.4528 181.246 62.8006 180.661C61.3153 180.111 59.7798 179.427 58.4614 178.542C57.5268 177.925 56.7091 177.023 55.908 176.239C55.157 175.538 54.5395 174.77 54.1056 173.819C53.9554 173.469 53.7885 173.118 53.8719 172.734C53.9053 172.551 53.9888 172.4 53.9888 172.35C54.2892 172.117 54.5896 171.9 54.8566 171.783C55.4241 171.533 56.0416 171.416 56.6424 171.349C58.0776 171.149 59.6463 171.399 61.0649 171.516C61.916 171.583 62.6837 171.633 63.5182 171.499C64.6364 171.332 65.7545 170.982 66.8393 170.698C69.4761 169.997 72.0629 169.43 74.7665 169.129C77.4701 168.829 80.2906 168.529 83.0109 168.996C84.0289 169.163 85.2639 169.463 86.1484 170.047C86.7993 170.498 87.3333 171.199 87.7005 171.9C88.3347 173.101 88.0676 174.52 87.2665 175.555ZM107.927 168.796C107.443 169.363 106.759 169.68 106.158 170.097C105.341 170.681 104.456 171.132 103.605 171.633C102.887 172.067 102.186 172.4 101.435 172.751C100.701 173.101 99.9335 173.435 99.1992 173.819C98.3981 174.236 97.5136 174.503 96.6624 174.804C96.0449 175.037 95.3607 175.321 94.6931 175.204C94.1424 175.087 93.5416 174.87 93.1411 174.47C92.5403 173.852 92.6404 173.168 92.8407 172.884C92.8407 172.3 92.6737 171.483 92.8573 170.932C92.9741 170.598 93.3747 170.114 93.5416 169.78C94.2259 168.529 95.2272 167.627 96.2619 166.643C97.1631 165.775 98.0476 165.107 99.2659 164.69C100.634 164.223 102.203 164.106 103.605 163.939C105.157 163.756 107.777 163.639 108.462 165.424C108.946 166.626 108.779 167.761 107.927 168.796ZM85.2138 165.074C85.0136 165.024 84.6797 164.907 84.3293 164.824C84.0956 164.857 83.8786 164.907 83.6784 164.924L85.2138 165.074Z" fill="url(#paint7_linear_24_3753)"/>
<path opacity="0.4" fill-rule="evenodd" clip-rule="evenodd" d="M147.464 70.1308V70.4479C147.363 72.6008 146.496 74.0861 145.711 76.0387C145.094 77.6241 144.359 79.0427 143.558 80.528C142.19 83.0314 141.556 85.3845 140.538 88.0714C138.969 92.277 138.184 96.5661 135.731 100.388C133.528 103.792 133.011 107.981 131.225 111.62C129.206 115.692 126.102 118.596 122.781 121.566C121.295 122.901 120.06 124.503 118.725 125.939C117.307 127.474 116.205 129.443 114.503 130.662C110.831 133.332 106.809 135.635 103.221 138.455C101.068 140.141 99.5329 142.377 97.163 143.779C94.7932 145.198 92.2231 146.182 89.87 147.618C87.7505 148.919 85.6477 150.321 83.3446 151.256C80.7078 152.307 78.5215 151.99 75.8179 152.124C72.8139 152.257 69.7264 153.042 66.906 154.009C64.5695 154.827 62.6169 155.678 60.2304 154.827C58.6449 154.26 57.2264 153.225 55.5575 152.891C51.6857 152.107 47.2798 152.891 43.3412 152.791C40.2704 152.708 36.8659 152.007 33.8619 151.389C30.8912 150.805 28.4713 148.736 25.6175 147.901C22.0794 146.867 17.9405 147.751 14.5193 146.399C13.1174 145.849 11.7823 144.73 10.5473 143.963C10.2803 143.796 10.0133 143.629 9.763 143.462C9.27902 142.611 8.82837 141.726 8.36108 140.859C9.19553 141.209 10.0467 141.576 10.8978 141.993C15.3705 144.13 20.9612 143.813 25.7844 144.647C31.2083 145.598 36.6489 147.017 42.1229 147.651C44.3425 147.901 46.5788 147.885 48.7818 147.634C51.8692 147.284 55.0902 147.334 58.1276 146.817C63.4346 145.882 68.5915 143.379 74.0989 144.08C75.1169 144.213 76.2518 144.747 77.2865 144.73C78.8219 144.68 79.8733 143.345 81.1083 142.578C83.2778 141.209 85.5642 141.476 87.4835 139.674C89.3526 137.905 91.4387 136.77 93.7251 135.618C99.6831 132.598 104.506 127.674 109.179 122.985C113.101 119.08 116.906 114.957 119.576 110.084C122.213 105.294 121.679 99.6035 123.665 94.6302C125.1 91.0754 126.302 87.7376 128.622 84.6001C129.74 83.0981 131.108 81.8131 132.293 80.3778C133.562 78.8424 134.329 77.1902 135.297 75.4713C136.365 73.5687 137.717 71.7997 138.568 69.7803C139.37 67.8444 139.303 66.1254 139.269 64.1061C139.236 61.8865 139.269 59.6334 139.269 57.4138C142.44 61.3691 145.177 65.6081 147.464 70.1308Z" fill="url(#paint8_linear_24_3753)"/>
<path opacity="0.4" fill-rule="evenodd" clip-rule="evenodd" d="M135.08 52.4402C134.263 51.5724 133.428 50.7046 132.577 49.8868C126.619 44.0457 119.76 39.1725 112.183 35.4675C111.983 35.3674 111.783 35.284 111.582 35.1838C110.447 34.6331 109.313 34.1324 108.144 33.6318C106.576 32.9809 105.007 32.3634 103.388 31.8293C103.905 32.1631 104.49 32.4135 104.69 32.5136C105.658 33.0143 106.459 33.3314 107.126 34.2159C107.777 35.067 108.078 35.7179 108.128 36.8027C108.161 37.8207 108.311 38.8721 108.495 39.8901C108.662 40.8247 109.112 41.7092 109.313 42.6605C109.413 43.2279 109.496 43.7119 109.68 44.2793C110.097 45.581 110.514 46.8661 110.798 48.2179C111.299 50.6211 110.014 52.6071 109.146 54.81C107.794 58.2813 106.943 61.8027 105.941 65.3908C105.157 68.228 103.605 71.015 101.469 73.0677C99.3827 75.0871 96.2785 75.5544 94.4093 77.7407C92.7571 79.6599 90.7378 81.4957 88.418 82.5804C85.7311 83.8655 82.9107 84.8501 80.0569 85.718C78.0208 86.3188 75.868 86.3688 73.8152 86.9196C71.2618 87.5538 68.9254 88.8388 66.5221 89.8902C63.9687 90.9917 61.5822 92.4102 59.0121 93.5117C56.4253 94.5965 54.0221 96.0818 51.452 97.1332C50.2003 97.6506 48.8819 97.8842 47.6135 98.3348C44.9767 99.2527 42.4233 100.938 39.6363 101.272C38.6683 101.389 37.6837 101.623 36.7157 101.623C35.948 101.639 35.2471 101.723 34.5127 102.006C32.0762 102.958 30.5741 105.711 27.787 105.728C25.2169 105.728 22.6803 105.628 20.1269 105.928C18.8919 106.078 17.6569 105.995 16.4219 106.012C16.0547 106.012 15.5875 106.095 15.2203 105.945C14.8031 105.778 14.3525 105.378 13.9352 105.161C13.0173 104.643 12.1161 103.992 11.2984 103.358C9.67952 102.107 7.54336 102.791 5.69089 102.424C5.12346 102.307 4.30571 102.374 3.82173 102.09C2.6702 101.406 1.21827 99.987 0.283684 99.186C0.0834163 101.289 0 103.442 0 105.611C0 109.366 0.266974 113.054 0.784332 116.676C1.01798 118.378 1.31841 120.047 1.65219 121.716C1.65219 121.733 1.65221 121.766 1.6689 121.783C2.16956 124.153 2.77031 126.489 3.48793 128.759C4.4392 131.913 5.62417 135 6.97597 137.971C6.97597 137.971 6.97599 137.971 6.99268 137.971C9.11217 138.322 11.2984 138.589 13.4513 138.288C16.4887 137.838 19.5261 137.37 22.6135 137.487C25.5174 137.621 28.2043 138.605 31.0414 139.089C34.2123 139.623 37.5334 140.041 40.7544 140.257C43.7083 140.441 46.6289 140.691 49.5661 141.008C51.7691 141.275 53.972 141.693 56.1917 141.843C61.916 142.243 67.5234 140.741 73.1476 140.141C75.968 139.84 78.7551 139.139 81.5255 138.539C83.2278 138.171 84.8633 137.737 86.3653 136.803C88.3346 135.568 89.5863 133.682 91.3553 132.18C93.2912 130.511 95.3272 128.909 97.3466 127.357C99.0822 126.038 100.701 124.603 102.52 123.435C103.905 122.534 105.291 121.666 106.592 120.648C109.146 118.645 111.165 116.326 113.268 113.889C116.222 110.468 117.44 105.711 118.625 101.456C119.693 97.5504 120.444 93.6452 122.58 90.1405C123.632 88.4216 124.416 86.4523 124.917 84.5164C125.234 83.2981 125.351 81.9296 125.901 80.778C126.786 78.9089 128.538 77.5571 129.606 75.7714C130.441 74.3695 131.392 73.0677 131.976 71.5324C133.128 68.495 133.996 65.5243 134.496 62.2867C134.863 59.9002 135.631 57.7139 136.365 55.4275C136.482 55.0437 136.599 54.6765 136.699 54.276C136.182 53.6418 135.631 53.041 135.08 52.4402ZM33.6115 105.728C33.7784 105.311 36.6823 104.176 37.1329 104.042C37.1162 104.059 37.0829 104.076 37.0328 104.093L35.1302 104.91C37.233 104.209 41.0381 106.346 39.2023 108.765C38.6516 109.466 37.2497 109.817 36.3986 109.95C35.5642 110.101 35.0301 109.817 34.5294 109.099C34.0955 108.482 33.7951 107.38 33.6783 106.646C33.6115 106.396 33.4947 105.995 33.6115 105.728ZM10.3805 126.739C8.11078 126.122 6.59211 125.271 5.19024 123.368C4.28904 122.133 3.48791 120.898 3.25426 119.38C3.054 118.128 2.57003 117.01 2.85375 115.758C3.08739 114.773 3.47128 113.689 3.93857 112.754C4.45593 111.719 5.20691 110.651 5.27366 110.301C7.54336 110.101 9.66284 110.017 11.9325 110C14.4693 109.984 17.006 110.317 19.5594 110.334C20.7109 110.351 21.8625 110.401 22.9973 110.151C24.0988 109.934 25.1669 109.633 26.2851 109.466C28.221 109.133 30.0401 108.899 31.8592 109.884C33.2443 110.618 33.8786 112.153 34.5294 113.538C34.8966 114.323 35.1135 114.89 35.1135 115.775C35.1302 116.843 35.0635 117.894 34.93 118.962C34.8799 119.363 34.8298 119.763 34.763 120.164C33.1609 123.652 28.7717 124.804 25.5007 126.022C20.7109 127.791 15.3037 128.075 10.3805 126.739ZM45.444 134.216C44.426 136.786 40.1202 137.704 37.6503 137.804C36.432 137.854 34.9634 137.604 33.8953 136.97C33.2945 136.603 32.677 135.918 32.3265 135.301C32.0428 134.834 31.4252 133.982 30.1568 134.366C30.4239 132.948 30.8578 131.596 31.4586 130.294C32.0261 129.677 32.6102 129.076 33.2277 128.508C34.3792 127.474 35.6642 126.573 37.0494 125.855C39.2023 124.77 41.4553 125.571 43.5414 126.522C44.9433 127.157 46.028 128.125 46.3284 129.643C46.6622 131.412 46.0782 132.647 45.444 134.216ZM74.3159 133.715C73.5315 135.601 72.43 136.035 70.6777 136.92C68.6416 137.954 66.1549 138.722 63.8519 138.739C62.6669 138.755 61.5655 138.188 60.4975 137.771C59.7965 137.487 59.0121 137.304 58.4614 136.786C56.9093 135.368 56.6589 133.298 57.6269 133.732C57.0261 132.464 56.659 131.162 56.5088 129.793C56.7758 129.577 56.9427 129.293 57.0261 128.959C57.8439 127.407 59.3793 126.122 60.898 125.271C63.6016 123.719 67.0395 123.535 69.9267 124.737C71.195 125.271 71.9961 125.905 72.9474 126.873C73.398 127.34 74.0155 127.757 74.366 128.325C75.1837 129.76 74.9167 132.263 74.3159 133.715ZM83.1944 133.415C82.7438 133.782 81.8927 134.483 81.3252 134.366C80.8413 134.266 79.9401 133.298 80.0903 132.781L79.7732 132.464C80.4574 131.396 81.1583 130.311 81.8259 129.209C82.8773 129.677 83.8119 129.61 84.4628 130.761C85.0469 131.846 83.9788 132.781 83.1944 133.415ZM105.257 81.6459C104.389 82.8141 103.238 83.9156 101.886 84.483C100.184 85.1839 97.9141 85.718 97.8306 83.1646C97.7639 81.6626 98.0142 80.5778 98.6818 79.1926C99.6498 77.24 100.568 76.7393 102.453 75.7714C103.138 75.8548 103.872 76.0217 104.389 76.2053C105.441 76.5557 106.442 77.4903 106.592 78.6085C106.776 79.7767 105.941 80.778 105.257 81.6459ZM125.851 70.5477C125.034 73.1178 123.932 75.6045 122.797 78.0411C121.412 81.0451 121.245 84.1158 120.561 87.27C120.16 89.0558 119.326 91.0084 117.574 91.6926C116.823 91.993 116.072 91.9263 115.237 91.9263C114.486 91.9263 113.084 92.21 113.134 92.8608C112.684 91.6259 111.933 89.957 111.632 88.5718C111.315 87.0197 111.182 85.3675 110.948 83.8154C110.681 82.1799 110.564 80.5611 110.397 78.9089C110.264 77.3735 109.947 75.7714 109.963 74.2193C110.03 69.1125 112.851 62.754 117.64 60.4008C119.109 59.6999 120.561 59.3661 122.163 59.6331C124.032 59.9169 125.117 60.4175 125.951 62.2199C127.086 64.6899 126.636 68.011 125.851 70.5477Z" fill="url(#paint9_linear_24_3753)"/>
<path opacity="0.4" fill-rule="evenodd" clip-rule="evenodd" d="M103.154 75.4043C102.904 75.5378 102.67 75.6546 102.47 75.7715C102.036 75.7047 101.636 75.688 101.285 75.7214L103.154 75.4043Z" fill="url(#paint10_linear_24_3753)"/>
<path opacity="0.4" fill-rule="evenodd" clip-rule="evenodd" d="M5.27371 110.301C5.15688 110.318 5.0234 110.318 4.88989 110.334C5.20698 110.134 5.32377 110.134 5.27371 110.301Z" fill="url(#paint11_linear_24_3753)"/>
<path fill-rule="evenodd" clip-rule="evenodd" d="M92.9407 29.0255L106.626 23.635C106.626 23.635 128.405 32.0963 142.123 50.6377L142.974 62.4702C142.991 62.4702 117.04 52.5236 92.9407 29.0255Z" fill="url(#paint12_linear_24_3753)"/>
<path fill-rule="evenodd" clip-rule="evenodd" d="M142.691 149.453C142.691 149.453 131.225 161.903 122.547 164.674L115.421 166.843C115.421 166.843 82.9441 155.161 81.175 134.834C79.673 117.761 108.879 91.5592 116.789 88.4384C124.683 85.3175 133.946 87.0866 133.946 87.0866L142.691 149.453Z" fill="url(#paint13_linear_24_3753)"/>
<path fill-rule="evenodd" clip-rule="evenodd" d="M133.946 87.0865C127.103 84.917 97.4968 98.5518 89.5529 129.126C87.934 135.334 102.954 158.899 120.895 164.673C126.853 166.593 154.139 142.744 155.274 126.589C156.409 110.434 144.126 90.3242 133.946 87.0865Z" fill="url(#paint14_linear_24_3753)"/>
<path fill-rule="evenodd" clip-rule="evenodd" d="M91.4556 132.714C95.6779 98.0847 127.17 86.803 134.029 88.9725C138.969 90.5413 146.245 97.801 150.418 104.977C146.129 96.1321 139.703 88.9225 133.962 87.1034C127.12 84.9338 97.5137 98.5687 89.5697 129.143C89.0023 131.296 90.4543 135.551 93.3415 140.425C91.756 137.087 91.2553 134.35 91.4556 132.714Z" fill="url(#paint15_linear_24_3753)"/>
<path fill-rule="evenodd" clip-rule="evenodd" d="M33.5616 169.814C33.5616 169.814 40.621 172.401 45.7612 170.999C45.7612 170.999 47.7304 154.31 41.4387 143.629C35.147 132.948 24.4828 149.086 24.4828 149.086L22.0461 159.3C22.0628 159.3 27.9875 166.443 33.5616 169.814Z" fill="url(#paint16_linear_24_3753)"/>
<path fill-rule="evenodd" clip-rule="evenodd" d="M39.6695 167.127L44.1923 165.909C44.1923 165.909 46.3785 156.663 42.5901 146.232C38.2843 134.383 22.5133 125.538 20.1768 125.338C17.8404 125.154 15.5374 130.478 15.5374 130.478L39.6695 167.127Z" fill="url(#paint17_linear_24_3753)"/>
<path fill-rule="evenodd" clip-rule="evenodd" d="M110.932 176.272L103.422 186.052C103.422 186.052 90.3708 192.361 77.2699 189.307L67.7739 182.898L110.932 176.272Z" fill="url(#paint18_linear_24_3753)"/>
<path fill-rule="evenodd" clip-rule="evenodd" d="M12.1496 137.804C12.934 134.216 16.1049 128.242 18.942 127.658C21.7791 127.073 35.1804 139.807 38.2846 148.001C41.3887 156.196 39.8199 165.274 39.6697 167.127C39.5195 168.979 24.2991 163.823 16.6222 157.514C8.962 151.189 12.1496 137.804 12.1496 137.804Z" fill="url(#paint19_linear_24_3753)"/>
<path fill-rule="evenodd" clip-rule="evenodd" d="M38.2845 148.001C35.1804 139.807 21.7791 127.073 18.942 127.658C17.8405 127.875 16.7056 128.909 15.6709 130.294C16.3051 129.71 16.956 129.31 17.5902 129.176C20.4273 128.592 34.0789 138.722 37.133 146.933C40.8713 157.013 38.8185 164.29 38.4514 167.477C39.1857 167.527 39.6529 167.427 39.6696 167.127C39.8365 165.274 41.3887 156.179 38.2845 148.001Z" fill="url(#paint20_linear_24_3753)"/>
<path fill-rule="evenodd" clip-rule="evenodd" d="M80.6409 113.205C77.2697 111.636 81.0915 96.8496 84.4126 93.6453C87.7337 90.4244 96.3452 97.9511 97.4968 104.093C98.6316 110.234 88.3512 116.81 80.6409 113.205Z" fill="url(#paint21_linear_24_3753)"/>
<path fill-rule="evenodd" clip-rule="evenodd" d="M84.0121 112.087C81.3085 110.785 84.3792 98.5186 87.0328 95.8483C89.6863 93.1781 96.5956 99.4198 97.5135 104.51C98.4147 109.617 90.187 115.074 84.0121 112.087Z" fill="url(#paint22_linear_24_3753)"/>
<path fill-rule="evenodd" clip-rule="evenodd" d="M106.626 23.635C106.626 23.635 107.31 31.9461 116.656 42.1264C126.018 52.3233 142.123 50.621 142.123 50.621L142.974 62.4535C142.974 62.4535 108.712 47.2999 92.9241 29.0089L106.626 23.635Z" fill="url(#paint23_linear_24_3753)"/>
<path fill-rule="evenodd" clip-rule="evenodd" d="M133.512 97.2834C133.128 97.6005 132.277 98.218 132.944 98.6853C133.128 98.8188 133.278 98.7521 133.478 98.8021C133.628 98.8522 133.662 98.969 133.845 98.9023C134.396 98.6853 134.179 97.1499 133.562 97.4503L133.512 97.2834Z" fill="#0EDBFF"/>
<path fill-rule="evenodd" clip-rule="evenodd" d="M165.821 83.365C165.438 83.6821 164.587 84.2996 165.254 84.7669C165.438 84.9004 165.588 84.8336 165.788 84.8837C165.938 84.9338 165.972 85.0506 166.155 84.9838C166.706 84.7669 166.489 83.2315 165.872 83.5319L165.821 83.365Z" fill="#0EDBFF"/>
<path fill-rule="evenodd" clip-rule="evenodd" d="M151.636 140.758C151.252 141.075 150.401 141.693 151.069 142.16C151.252 142.294 151.402 142.227 151.602 142.277C151.753 142.327 151.786 142.444 151.97 142.377C152.52 142.177 152.304 140.625 151.686 140.925L151.636 140.758Z" fill="#0EDBFF"/>
<path fill-rule="evenodd" clip-rule="evenodd" d="M136.332 102.924C136.582 102.791 136.833 102.707 137.1 102.707C137.167 103.041 137.467 103.709 136.983 103.959C136.582 104.176 136.699 103.458 136.516 103.291L136.332 102.924Z" fill="#0EDBFF"/>
<path fill-rule="evenodd" clip-rule="evenodd" d="M85.0302 106.396C85.5476 106.596 86.0483 106.813 86.5657 107.03C86.7326 106.88 86.9829 106.913 87.1665 106.779C87.4168 106.613 87.6337 106.262 87.7338 105.978C87.884 105.544 87.6504 105.194 87.4502 104.86C87.3166 104.643 87.1832 104.31 86.9829 104.159C86.7493 103.976 86.282 104.059 86.0316 104.176C85.7312 104.326 85.4976 104.643 85.2973 104.91C85.1137 105.177 84.8801 105.611 84.8801 105.945C84.8634 106.296 85.1471 106.679 85.4142 106.863L85.0302 106.396Z" fill="#0EDBFF"/>
<path fill-rule="evenodd" clip-rule="evenodd" d="M12.3163 145.264C12.8337 145.465 13.3343 145.682 13.8517 145.898C14.0186 145.748 14.2689 145.782 14.4525 145.648C14.7028 145.481 14.9198 145.131 15.0199 144.847C15.1701 144.413 14.9364 144.063 14.7362 143.729C14.6026 143.512 14.4692 143.178 14.2689 143.028C14.0353 142.844 13.568 142.928 13.3176 143.045C13.0172 143.195 12.7836 143.512 12.5833 143.779C12.3997 144.046 12.1661 144.48 12.1494 144.814C12.1327 145.164 12.4164 145.548 12.6834 145.732L12.3163 145.264Z" fill="#0EDBFF"/>
<path fill-rule="evenodd" clip-rule="evenodd" d="M154.056 165.541C154.573 165.742 155.074 165.959 155.591 166.176C155.758 166.025 156.008 166.059 156.192 165.925C156.442 165.758 156.659 165.408 156.759 165.124C156.909 164.69 156.676 164.34 156.476 164.006C156.342 163.789 156.209 163.455 156.008 163.305C155.775 163.121 155.307 163.205 155.057 163.322C154.757 163.472 154.523 163.789 154.323 164.056C154.139 164.323 153.905 164.757 153.905 165.091C153.889 165.441 154.172 165.825 154.439 166.009L154.056 165.541Z" fill="#0EDBFF"/>
<path fill-rule="evenodd" clip-rule="evenodd" d="M143.859 151.473C144.376 151.673 144.877 151.89 145.394 152.107C145.561 151.957 145.811 151.99 145.995 151.856C146.245 151.689 146.462 151.339 146.562 151.055C146.713 150.621 146.479 150.271 146.279 149.937C146.145 149.72 146.012 149.386 145.811 149.236C145.578 149.053 145.11 149.136 144.86 149.253C144.56 149.403 144.326 149.72 144.126 149.987C143.942 150.254 143.709 150.688 143.692 151.022C143.675 151.372 143.959 151.756 144.226 151.94L143.859 151.473Z" fill="#0EDBFF"/>
<path fill-rule="evenodd" clip-rule="evenodd" d="M2.40318 53.2247C3.70492 53.7421 4.98988 54.2761 6.27493 54.8436C6.69215 54.4764 7.30972 54.5432 7.81039 54.2261C8.44457 53.8088 8.99528 52.941 9.24561 52.2067C9.61277 51.1052 9.04537 50.204 8.54471 49.3529C8.21093 48.7855 7.87711 47.9677 7.35975 47.5839C6.75895 47.1333 5.59072 47.3168 4.95654 47.6172C4.17216 47.9844 3.60474 48.7855 3.08738 49.5031C2.60341 50.1707 2.03594 51.2721 2.00256 52.1233C1.96918 53.0245 2.70349 53.9757 3.35436 54.443L2.40318 53.2247Z" fill="#0EDBFF"/>
<path fill-rule="evenodd" clip-rule="evenodd" d="M88.3345 5.9115C89.6362 6.42886 90.9213 6.9629 92.2063 7.53033C92.6236 7.16317 93.241 7.22992 93.7417 6.91283C94.3759 6.49561 94.9266 5.62779 95.1769 4.89347C95.5441 3.792 94.9767 2.8908 94.476 2.03966C94.1422 1.47224 93.8084 0.654477 93.291 0.270631C92.6902 -0.17997 91.522 0.00360814 90.8878 0.304009C90.1035 0.671166 89.536 1.47224 89.0187 2.18986C88.5347 2.85742 87.9673 3.95889 87.934 4.81003C87.9006 5.71123 88.6349 6.6625 89.2858 7.12979L88.3345 5.9115Z" fill="#0EDBFF"/>
<path fill-rule="evenodd" clip-rule="evenodd" d="M99.7665 119.313C99.5495 119.463 99.3659 119.663 99.2324 119.897C99.4494 120.164 99.5496 120.414 99.9 120.514C100.05 120.548 100.2 120.565 100.317 120.448C100.467 120.298 100.384 120.147 100.434 119.997C100.534 119.647 100.634 119.563 100.434 119.229C100.317 119.029 100.234 118.962 100.017 118.962C99.8667 118.962 99.5496 118.996 99.4828 119.163L99.7665 119.313Z" fill="#0EDBFF"/>
<path fill-rule="evenodd" clip-rule="evenodd" d="M100.935 127.474C100.901 127.557 100.501 128.575 101.018 128.275C101.268 128.125 101.185 127.724 101.001 127.624C101.018 127.591 101.018 127.557 101.035 127.524L100.935 127.474Z" fill="#0EDBFF"/>
<path fill-rule="evenodd" clip-rule="evenodd" d="M126.669 142.327C126.319 142.778 126.285 142.961 126.118 143.429C126.269 143.562 126.552 143.645 126.736 143.629C127.036 143.612 127.053 143.512 127.053 143.228C127.053 142.995 127.153 142.811 127.103 142.594C127.053 142.36 126.819 142.127 126.552 142.277L126.669 142.327Z" fill="#0EDBFF"/>
<path fill-rule="evenodd" clip-rule="evenodd" d="M104.973 120.297C105.174 120.481 105.291 120.698 105.341 120.965C105.074 121.032 105.04 120.765 104.99 120.548C104.923 120.214 105.09 120.314 105.24 120.047C105.274 120.047 105.307 120.064 105.324 120.064L104.973 120.297Z" fill="#0EDBFF"/>
<path fill-rule="evenodd" clip-rule="evenodd" d="M129.656 98.2515C129.439 98.4017 129.256 98.6019 129.122 98.8356C129.256 99.0025 129.189 99.2862 129.489 99.2695C129.706 99.2528 129.873 99.0192 129.973 98.8523C130.09 98.652 130.107 98.4851 130.124 98.2682C130.124 98.1513 130.124 97.6674 129.923 97.9844L129.656 98.2515Z" fill="#0EDBFF"/>
<path fill-rule="evenodd" clip-rule="evenodd" d="M126.319 40.8248C126.569 40.758 126.886 40.6245 127.136 40.6245C127.203 40.6245 127.303 40.6746 127.387 40.6913C127.654 40.708 127.654 40.6579 127.787 40.8748C127.937 41.1085 128.004 41.2921 127.954 41.5758C127.804 42.5437 126.435 41.0918 126.903 40.7246L126.319 40.8248Z" fill="#0EDBFF"/>
<path fill-rule="evenodd" clip-rule="evenodd" d="M21.5788 42.5605C21.1449 42.694 20.4774 42.7441 20.4273 43.2447C20.3772 43.6787 21.0948 44.1293 21.4453 44.2461C22.0795 44.463 23.1309 44.5632 23.448 43.8289C23.6316 43.4116 23.498 42.5772 23.231 42.21C22.697 41.4423 21.5955 41.7594 20.7611 42.0765L21.5788 42.5605Z" fill="#0EDBFF"/>
<path fill-rule="evenodd" clip-rule="evenodd" d="M132.694 143.395C132.494 141.91 132.227 140.425 133.562 139.64C134.279 139.206 135.614 139.073 136.299 139.574C136.799 139.941 137.217 140.625 137.534 141.126C137.984 141.877 137.867 141.877 137.634 142.578C137.083 144.163 136.716 145.198 135.147 145.214C133.061 145.214 132.744 143.596 132.711 141.593V143.395H132.694Z" fill="#0EDBFF"/>
<path fill-rule="evenodd" clip-rule="evenodd" d="M133.612 101.422C134.196 101.272 134.696 100.955 135.114 100.521C134.696 100.271 133.778 99.7201 133.612 100.504V101.422Z" fill="#0EDBFF"/>
<path fill-rule="evenodd" clip-rule="evenodd" d="M15.6375 139.423C16.2216 139.273 16.7222 138.956 17.1394 138.522C16.7222 138.272 15.8043 137.721 15.6375 138.505V139.423Z" fill="#0EDBFF"/>
<path fill-rule="evenodd" clip-rule="evenodd" d="M15.6375 151.957C16.2216 151.806 16.7222 151.489 17.1394 151.055C16.7222 150.805 15.8043 150.254 15.6375 151.039V151.957Z" fill="#0EDBFF"/>
<path fill-rule="evenodd" clip-rule="evenodd" d="M103.838 107.097C104.423 106.379 105.257 105.094 106.292 105.795C106.893 106.212 107.076 107.297 106.492 107.731C105.958 108.131 105.457 108.248 104.856 108.415C104.389 108.549 103.705 108.232 103.838 107.547V107.097Z" fill="#0EDBFF"/>
<path fill-rule="evenodd" clip-rule="evenodd" d="M123.415 139.373C123.999 138.655 124.833 137.37 125.868 138.071C126.469 138.489 126.652 139.573 126.068 140.007C125.534 140.408 125.034 140.525 124.433 140.692C123.965 140.825 123.281 140.508 123.415 139.824V139.373Z" fill="#0EDBFF"/>
<path fill-rule="evenodd" clip-rule="evenodd" d="M120.461 32.4302C121.362 32.5804 122.898 32.6638 122.797 33.9322C122.731 34.6665 121.88 35.3507 121.212 35.067C120.595 34.8 120.261 34.4162 119.81 33.9822C119.476 33.6485 119.393 32.8808 120.06 32.6638L120.461 32.4302Z" fill="#0EDBFF"/>
<path fill-rule="evenodd" clip-rule="evenodd" d="M117.256 147.734C117.841 147.017 118.675 145.732 119.71 146.432C120.311 146.85 120.494 147.934 119.91 148.368C119.376 148.769 118.875 148.886 118.275 149.053C117.807 149.186 117.123 148.869 117.256 148.185V147.734Z" fill="#0EDBFF"/>
<path fill-rule="evenodd" clip-rule="evenodd" d="M90.5877 106.029C89.8533 106.496 88.6017 107.08 88.4848 108.098C88.4014 108.716 88.6851 109.066 89.2359 109.333C89.7031 109.567 90.4208 109.583 90.888 109.333C91.5723 108.999 92.34 108.432 92.6571 107.714C92.874 107.197 92.8407 106.83 92.5904 106.329C92.4568 106.045 92.1898 105.728 91.906 105.611C90.9548 105.278 90.3874 106.212 89.7032 106.629L90.5877 106.029Z" fill="#0EDBFF"/>
<path fill-rule="evenodd" clip-rule="evenodd" d="M92.9741 103.342C93.3746 103.492 93.7251 103.709 93.9921 104.009C93.5916 104.143 93.1576 104.46 92.7404 104.31C92.2064 104.126 92.1062 103.609 92.2231 103.108C92.2898 102.824 92.7905 102.34 93.0742 102.457C93.2244 102.524 93.2411 102.724 93.2912 102.841C93.3913 103.108 93.3914 103.058 93.2579 103.325H92.9741V103.342Z" fill="#0EDBFF"/>
<path fill-rule="evenodd" clip-rule="evenodd" d="M113.368 98.8855C111.415 100.605 109.58 102.641 108.545 105.094C108.011 106.346 108.962 106.412 110.08 106.179C112.283 105.745 114.486 105.144 116.656 104.593C117.941 104.259 119.777 103.592 120.678 102.49C121.362 101.656 121.646 100.204 121.496 99.1526C121.279 97.6839 120.244 97.0998 118.909 96.7327C115.855 95.8815 111.515 99.1859 110.381 101.99L113.368 98.8855Z" fill="#0EDBFF"/>
<path fill-rule="evenodd" clip-rule="evenodd" d="M102.487 110C103.121 110.017 103.705 110.167 104.256 110.468C104.106 110.651 104.156 110.902 104.072 111.135C103.955 111.452 103.638 111.786 103.355 111.97C102.871 112.27 102.053 112.387 101.519 112.187C99.8832 111.569 102.387 109.617 102.937 110.318L102.487 110Z" fill="#0EDBFF"/>
<path fill-rule="evenodd" clip-rule="evenodd" d="M11.098 172.534C10.8811 172.684 10.6975 172.884 10.564 173.118C10.7809 173.385 10.8811 173.635 11.2316 173.735C11.3818 173.769 11.532 173.785 11.6488 173.669C11.799 173.518 11.7156 173.368 11.7656 173.218C11.8658 172.868 11.9659 172.784 11.7656 172.45C11.6488 172.25 11.5654 172.183 11.3484 172.183C11.1982 172.183 10.8811 172.217 10.8143 172.384L11.098 172.534Z" fill="#0EDBFF"/>
<path fill-rule="evenodd" clip-rule="evenodd" d="M12.2664 180.678C12.2331 180.762 11.8325 181.78 12.3499 181.479C12.6002 181.329 12.5168 180.929 12.3499 180.828C12.3666 180.795 12.3666 180.762 12.3833 180.728L12.2664 180.678Z" fill="#0EDBFF"/>
<path fill-rule="evenodd" clip-rule="evenodd" d="M16.3049 173.519C16.5052 173.702 16.6221 173.919 16.6721 174.186C16.4051 174.253 16.3717 173.986 16.3216 173.769C16.2549 173.435 16.4218 173.535 16.572 173.268C16.6054 173.268 16.6387 173.285 16.6554 173.285L16.3049 173.519Z" fill="#0EDBFF"/>
<path fill-rule="evenodd" clip-rule="evenodd" d="M13.8183 163.205C14.4525 163.222 15.0366 163.372 15.5873 163.672C15.4371 163.856 15.4872 164.106 15.4037 164.34C15.2869 164.657 14.9698 164.991 14.6861 165.174C14.2022 165.475 13.3843 165.591 12.8503 165.391C11.2148 164.774 13.7182 162.821 14.2689 163.522L13.8183 163.205Z" fill="#0EDBFF"/>
<path fill-rule="evenodd" clip-rule="evenodd" d="M117.256 33.8821C117.807 34.2659 118.408 34.5663 118.825 35.0837C119.309 35.6845 119.793 36.2185 120.16 36.9028C120.344 37.2366 120.811 37.9876 120.127 38.071C119.393 38.1711 118.091 37.2032 117.557 36.836C116.639 36.1852 115.771 35.601 115.104 34.6832C114.77 34.2159 114.269 33.3981 114.603 32.8474C114.887 32.3801 115.287 32.2966 115.805 32.2966C116.339 32.3133 116.656 32.4635 117.09 32.814C117.29 32.9642 118.241 33.9321 117.907 34.1992L117.256 33.8821Z" fill="#0EDBFF"/>
<path fill-rule="evenodd" clip-rule="evenodd" d="M124.349 96.0652C124.082 96.2655 122.013 97.4003 122.997 97.901C123.531 98.168 124.566 98.0845 125.1 97.8676C125.584 97.6673 126.068 97.3502 125.768 96.7995C125.167 95.6813 123.648 96.3322 122.864 96.8162L124.349 96.0652Z" fill="#0EDBFF"/>
<path fill-rule="evenodd" clip-rule="evenodd" d="M139.236 28.4082C138.552 28.8922 133.378 31.7794 135.848 33.031C137.183 33.6986 139.787 33.515 141.138 32.9309C142.34 32.4136 143.558 31.6292 142.807 30.2607C141.289 27.4736 137.467 29.0758 135.498 30.2941L139.236 28.4082Z" fill="#0EDBFF"/>
<path fill-rule="evenodd" clip-rule="evenodd" d="M16.3718 146.216C16.5888 147.434 16.8391 148.752 17.8905 149.554C18.9753 150.388 20.2269 150.054 21.295 149.42C22.0961 148.953 22.8471 148.452 23.6148 147.968C24.0654 147.684 24.4659 147.618 24.4826 146.967C24.4993 146.266 23.8652 145.331 23.4646 144.814C22.9807 144.18 22.0294 143.429 21.2784 143.145C19.6429 142.544 16.5387 143.145 16.5888 145.348L16.3718 146.216Z" fill="#0EDBFF"/>
<path fill-rule="evenodd" clip-rule="evenodd" d="M125.351 148.602C125.501 149.453 125.684 150.388 126.419 150.938C127.186 151.523 128.054 151.289 128.805 150.838C129.356 150.505 129.89 150.154 130.441 149.82C130.758 149.62 131.042 149.57 131.058 149.119C131.075 148.635 130.624 147.968 130.341 147.601C130.007 147.15 129.323 146.633 128.805 146.432C127.67 145.999 125.484 146.432 125.501 147.985L125.351 148.602Z" fill="#0EDBFF"/>
<path d="M135.164 156.346C143.321 156.346 149.934 149.733 149.934 141.576C149.934 133.419 143.321 126.806 135.164 126.806C127.007 126.806 120.394 133.419 120.394 141.576C120.394 149.733 127.007 156.346 135.164 156.346Z" fill="url(#paint24_radial_24_3753)"/>
<path d="M115.421 115.157C122.988 115.157 129.122 109.023 129.122 101.456C129.122 93.8886 122.988 87.7542 115.421 87.7542C107.853 87.7542 101.719 93.8886 101.719 101.456C101.719 109.023 107.853 115.157 115.421 115.157Z" fill="url(#paint25_radial_24_3753)"/>
<path fill-rule="evenodd" clip-rule="evenodd" d="M124.166 40.5743C122.43 42.9608 118.074 42.7605 114.453 40.1237C110.815 37.4868 109.279 33.4147 111.015 31.0282C112.75 28.6417 117.106 28.8419 120.728 31.4788C124.366 34.1156 125.901 38.1877 124.166 40.5743Z" fill="url(#paint26_radial_24_3753)"/>
<path fill-rule="evenodd" clip-rule="evenodd" d="M106.859 24.9871C106.859 24.9871 110.431 40.1907 120.511 45.915C133.245 53.1747 142.14 50.6213 142.14 50.6213C142.14 50.6213 130.758 50.2208 120.227 43.0445C111.432 37.0532 106.859 24.9871 106.859 24.9871Z" fill="url(#paint27_linear_24_3753)"/>
<path opacity="0.4" fill-rule="evenodd" clip-rule="evenodd" d="M82.9607 142.227L89.7197 132.297C89.7197 132.297 98.3813 156.963 120.878 164.69L115.955 167.861C115.955 167.861 93.0241 161.336 82.9607 142.227Z" fill="url(#paint28_linear_24_3753)"/>
<path fill-rule="evenodd" clip-rule="evenodd" d="M95.7612 32.4468C95.7612 32.4468 128.188 65.0904 151.536 79.6098C151.536 79.6098 149.283 70.6812 142.991 62.4702C142.991 62.4702 123.398 56.0283 95.7612 32.4468Z" fill="url(#paint29_linear_24_3753)"/>
<path fill-rule="evenodd" clip-rule="evenodd" d="M73.398 48.8356C79.7731 58.5152 72.6804 74.4198 57.5769 84.3664C42.4734 94.2963 25.0667 94.5133 18.6915 84.817C12.3163 75.1374 19.4092 59.2328 34.5127 49.2862C49.6162 39.3563 67.0395 39.156 73.398 48.8356Z" fill="url(#paint30_radial_24_3753)"/>
<defs>
<linearGradient id="paint0_linear_24_3753" x1="26.1856" y1="63.7383" x2="26.1856" y2="36.7304" gradientUnits="userSpaceOnUse">
<stop stop-color="#9A00B3"/>
<stop offset="1" stop-color="#7F72FF"/>
</linearGradient>
<linearGradient id="paint1_linear_24_3753" x1="20.2082" y1="65.1063" x2="30.3564" y2="34.1248" gradientUnits="userSpaceOnUse">
<stop stop-color="#5B008B"/>
<stop offset="1" stop-color="#8E00FF"/>
</linearGradient>
<radialGradient id="paint2_radial_24_3753" cx="0" cy="0" r="1" gradientUnits="userSpaceOnUse" gradientTransform="translate(29.6932 69.1035) scale(125.271 125.271)">
<stop offset="0.00558659" stop-color="#60DBFF"/>
<stop offset="0.0937" stop-color="#60D5FF"/>
<stop offset="0.211" stop-color="#5FC4FF"/>
<stop offset="0.3446" stop-color="#5DA9FF"/>
<stop offset="0.4903" stop-color="#5A82FF"/>
<stop offset="0.6442" stop-color="#5751FF"/>
<stop offset="0.6844" stop-color="#5643FF"/>
<stop offset="0.7432" stop-color="#563DF8"/>
<stop offset="0.8282" stop-color="#552EE5"/>
<stop offset="0.9287" stop-color="#5315C6"/>
<stop offset="1" stop-color="#5200AB"/>
</radialGradient>
<linearGradient id="paint3_linear_24_3753" x1="0.00500668" y1="84.1846" x2="112.187" y2="84.1846" gradientUnits="userSpaceOnUse">
<stop offset="0.0112" stop-color="#81E0FF"/>
<stop offset="0.3224" stop-color="#82DDFF"/>
<stop offset="0.5506" stop-color="#86D4FF"/>
<stop offset="0.7523" stop-color="#8BC4FF"/>
<stop offset="0.9375" stop-color="#94ADFF"/>
<stop offset="1" stop-color="#97A4FF"/>
</linearGradient>
<linearGradient id="paint4_linear_24_3753" x1="113.332" y1="176.272" x2="113.332" y2="139.653" gradientUnits="userSpaceOnUse">
<stop stop-color="#B8C2FF"/>
<stop offset="1" stop-color="#5B729C"/>
</linearGradient>
<radialGradient id="paint5_radial_24_3753" cx="0" cy="0" r="1" gradientUnits="userSpaceOnUse" gradientTransform="translate(21.0007 52.4978) scale(102.647 102.647)">
<stop stop-color="#FFFFD9"/>
<stop offset="1"/>
</radialGradient>
<linearGradient id="paint6_linear_24_3753" x1="0.716115" y1="62.1108" x2="98.7925" y2="62.1108" gradientUnits="userSpaceOnUse">
<stop stop-color="#B8C2FF"/>
<stop offset="1" stop-color="#7D72B3"/>
</linearGradient>
<linearGradient id="paint7_linear_24_3753" x1="16.6341" y1="135.114" x2="155.977" y2="135.114" gradientUnits="userSpaceOnUse">
<stop stop-color="#B8C2FF"/>
<stop offset="1" stop-color="#7D72B3"/>
</linearGradient>
<linearGradient id="paint8_linear_24_3753" x1="8.40347" y1="106.292" x2="147.467" y2="106.292" gradientUnits="userSpaceOnUse">
<stop stop-color="#B8C2FF"/>
<stop offset="1" stop-color="#7D72B3"/>
</linearGradient>
<linearGradient id="paint9_linear_24_3753" x1="0.00834448" y1="86.8578" x2="136.701" y2="86.8578" gradientUnits="userSpaceOnUse">
<stop stop-color="#B8C2FF"/>
<stop offset="1" stop-color="#7D72B3"/>
</linearGradient>
<linearGradient id="paint10_linear_24_3753" x1="101.277" y1="75.5905" x2="103.153" y2="75.5905" gradientUnits="userSpaceOnUse">
<stop stop-color="#E8DDFF"/>
<stop offset="1" stop-color="#AA8AD8"/>
</linearGradient>
<linearGradient id="paint11_linear_24_3753" x1="4.8974" y1="110.264" x2="5.28706" y2="110.264" gradientUnits="userSpaceOnUse">
<stop stop-color="#E8DDFF"/>
<stop offset="1" stop-color="#AA8AD8"/>
</linearGradient>
<linearGradient id="paint12_linear_24_3753" x1="92.9412" y1="43.0554" x2="142.992" y2="43.0554" gradientUnits="userSpaceOnUse">
<stop stop-color="#7F72FF"/>
<stop offset="1" stop-color="#9A00B3"/>
</linearGradient>
<linearGradient id="paint13_linear_24_3753" x1="104.31" y1="163.205" x2="129.698" y2="85.6964" gradientUnits="userSpaceOnUse">
<stop stop-color="#280077"/>
<stop offset="1" stop-color="#812CFF"/>
</linearGradient>
<linearGradient id="paint14_linear_24_3753" x1="111.578" y1="161.628" x2="135.797" y2="87.6937" gradientUnits="userSpaceOnUse">
<stop stop-color="#7A00B3"/>
<stop offset="1" stop-color="#B136FF"/>
</linearGradient>
<linearGradient id="paint15_linear_24_3753" x1="119.921" y1="140.419" x2="119.921" y2="86.8644" gradientUnits="userSpaceOnUse">
<stop stop-color="#8E00B3"/>
<stop offset="1" stop-color="#E05CFF"/>
</linearGradient>
<linearGradient id="paint16_linear_24_3753" x1="34.0559" y1="171.418" x2="34.0559" y2="139.976" gradientUnits="userSpaceOnUse">
<stop stop-color="#81A9CE"/>
<stop offset="1" stop-color="#5B729C"/>
</linearGradient>
<linearGradient id="paint17_linear_24_3753" x1="25.2204" y1="162.386" x2="35.7078" y2="130.369" gradientUnits="userSpaceOnUse">
<stop stop-color="#280077"/>
<stop offset="1" stop-color="#812CFF"/>
</linearGradient>
<linearGradient id="paint18_linear_24_3753" x1="89.3454" y1="190.142" x2="89.3454" y2="176.272" gradientUnits="userSpaceOnUse">
<stop stop-color="#7A00B3"/>
<stop offset="0.9162" stop-color="#7006FC"/>
<stop offset="1" stop-color="#7006F9"/>
</linearGradient>
<linearGradient id="paint19_linear_24_3753" x1="25.8496" y1="167.503" x2="25.8496" y2="127.638" gradientUnits="userSpaceOnUse">
<stop stop-color="#7A00B3"/>
<stop offset="1" stop-color="#B136FF"/>
</linearGradient>
<linearGradient id="paint20_linear_24_3753" x1="27.9391" y1="167.487" x2="27.9391" y2="127.638" gradientUnits="userSpaceOnUse">
<stop stop-color="#8E00B3"/>
<stop offset="1" stop-color="#E05CFF"/>
</linearGradient>
<linearGradient id="paint21_linear_24_3753" x1="85.4555" y1="114.869" x2="92.1274" y2="94.5001" gradientUnits="userSpaceOnUse">
<stop stop-color="#5B008B"/>
<stop offset="1" stop-color="#8E00FF"/>
</linearGradient>
<linearGradient id="paint22_linear_24_3753" x1="87.7801" y1="113.398" x2="93.2986" y2="96.5503" gradientUnits="userSpaceOnUse">
<stop stop-color="#A400CA"/>
<stop offset="1" stop-color="#B136FF"/>
</linearGradient>
<linearGradient id="paint23_linear_24_3753" x1="115.445" y1="53.4487" x2="123.41" y2="29.135" gradientUnits="userSpaceOnUse">
<stop stop-color="#5B008B"/>
<stop offset="1" stop-color="#8E00FF"/>
</linearGradient>
<radialGradient id="paint24_radial_24_3753" cx="0" cy="0" r="1" gradientUnits="userSpaceOnUse" gradientTransform="translate(135.171 141.58) scale(14.7621 14.762)">
<stop stop-color="#317AFF"/>
<stop offset="0.1048" stop-color="#2967D7"/>
<stop offset="0.2917" stop-color="#1D4897"/>
<stop offset="0.4701" stop-color="#132E61"/>
<stop offset="0.635" stop-color="#0B1A37"/>
<stop offset="0.7833" stop-color="#050C19"/>
<stop offset="0.91" stop-color="#010307"/>
<stop offset="1"/>
</radialGradient>
<radialGradient id="paint25_radial_24_3753" cx="0" cy="0" r="1" gradientUnits="userSpaceOnUse" gradientTransform="translate(115.412 101.447) scale(13.7058 13.7058)">
<stop stop-color="#317AFF"/>
<stop offset="0.1048" stop-color="#2967D7"/>
<stop offset="0.2917" stop-color="#1D4897"/>
<stop offset="0.4701" stop-color="#132E61"/>
<stop offset="0.635" stop-color="#0B1A37"/>
<stop offset="0.7833" stop-color="#050C19"/>
<stop offset="0.91" stop-color="#010307"/>
<stop offset="1"/>
</radialGradient>
<radialGradient id="paint26_radial_24_3753" cx="0" cy="0" r="1" gradientUnits="userSpaceOnUse" gradientTransform="translate(117.598 35.7973) rotate(35.9932) scale(8.12466 5.34428)">
<stop stop-color="#317AFF"/>
<stop offset="0.1048" stop-color="#2967D7"/>
<stop offset="0.2917" stop-color="#1D4897"/>
<stop offset="0.4701" stop-color="#132E61"/>
<stop offset="0.635" stop-color="#0B1A37"/>
<stop offset="0.7833" stop-color="#050C19"/>
<stop offset="0.91" stop-color="#010307"/>
<stop offset="1"/>
</radialGradient>
<linearGradient id="paint27_linear_24_3753" x1="124.499" y1="51.0692" x2="124.499" y2="24.9954" gradientUnits="userSpaceOnUse">
<stop stop-color="#B000D9"/>
<stop offset="1" stop-color="#E05CFF"/>
</linearGradient>
<linearGradient id="paint28_linear_24_3753" x1="101.925" y1="167.855" x2="101.925" y2="132.289" gradientUnits="userSpaceOnUse">
<stop stop-color="#B8C2FF"/>
<stop offset="1" stop-color="#7D72B3"/>
</linearGradient>
<linearGradient id="paint29_linear_24_3753" x1="123.653" y1="79.6086" x2="123.653" y2="32.4494" gradientUnits="userSpaceOnUse">
<stop stop-color="#81A9CE"/>
<stop offset="1" stop-color="#5B729C"/>
</linearGradient>
<radialGradient id="paint30_radial_24_3753" cx="0" cy="0" r="1" gradientUnits="userSpaceOnUse" gradientTransform="translate(46.0548 66.8299) rotate(-33.3383) scale(32.739 20.9889)">
<stop stop-color="#06FEFF"/>
<stop offset="0.1732" stop-color="#05C4C5"/>
<stop offset="0.3988" stop-color="#037F80"/>
<stop offset="0.6025" stop-color="#024849"/>
<stop offset="0.7769" stop-color="#012121"/>
<stop offset="0.9151" stop-color="#000909"/>
<stop offset="1"/>
</radialGradient>
</defs>
</svg>
